<?xml version="1.0" standalone="no"?>
<!DOCTYPE svg PUBLIC "-//W3C//DTD SVG 1.1//EN" "http://www.w3.org/Graphics/SVG/1.1/DTD/svg11.dtd" >
<svg xmlns="http://www.w3.org/2000/svg" xmlns:xlink="http://www.w3.org/1999/xlink" version="1.1">
<metadata>
Created by FontForge 20161003 at Mon Feb 27 10:30:12 2017
 By www-data
Copyright (c) 2012 by Avraham Cornfeld. All rights reserved.
</metadata>
<defs>
<font id="." horiz-adv-x="0" >
  <font-face 
    font-family="."
    font-weight="700"
    font-stretch="normal"
    units-per-em="2048"
    panose-1="2 11 8 0 0 0 0 2 0 4"
    ascent="1638"
    descent="-410"
    x-height="928"
    cap-height="1278"
    bbox="-307 -534 2984 1721"
    underline-thickness="90"
    underline-position="-291"
    unicode-range="U+0020-FFFC"
  />
<missing-glyph horiz-adv-x="524" 
 />
    <glyph glyph-name=".notdef" horiz-adv-x="524" 
 />
    <glyph glyph-name=".null" 
 />
    <glyph glyph-name="nonmarkingreturn" horiz-adv-x="682" 
 />
    <glyph glyph-name="space" unicode=" " horiz-adv-x="524" 
 />
    <glyph glyph-name="exclam" unicode="!" horiz-adv-x="557" 
d="M413 1277v-513l-52 -318h-164l-52 318v513h268zM153 0v260h256v-260h-256z" />
    <glyph glyph-name="quotedbl" unicode="&#x22;" horiz-adv-x="626" 
d="M125 1205h164v-150l-130 -320h-87zM376 1203h164v-149l-130 -320h-87z" />
    <glyph glyph-name="numbersign" unicode="#" horiz-adv-x="1278" 
d="M1159 523h-229l-58 -184h234l-45 -118h-240l-71 -221h-143l71 221h-226l-70 -221h-144l71 221h-231l43 118h237l58 184h-240l43 121h248l81 219h143l-81 -219h225l81 219h146l-81 -219h223zM729 339l55 184h-223l-57 -184h225z" />
    <glyph glyph-name="dollar" unicode="$" horiz-adv-x="896" 
d="M809 285q0 -125 -79.5 -199.5t-239.5 -83.5v-135h-101v135q-74 2 -128 19.5t-91 52t-58.5 86t-29.5 122.5h195q13 -58 36 -89.5t76 -41.5v328q-52 29 -106 63t-97.5 73.5t-71 85t-27.5 98.5t16 100t52 82.5t93.5 57.5t140.5 24v135h101v-137q73 -4 131.5 -24.5t100 -57
t63.5 -88t24 -116.5l-209 1q-2 63 -30.5 92t-79.5 40v-269q54 -33 109 -63t100 -69t75 -92t35 -130zM286 807q0 -22 3.5 -38.5t14.5 -31.5t31 -30t54 -35v240q-59 -5 -81 -27.5t-22 -77.5zM490 153q66 2 99.5 28t33.5 89q0 32 -5.5 55t-20 42.5t-40.5 37.5t-67 41v-293z" />
    <glyph glyph-name="percent" unicode="%" horiz-adv-x="1056" 
d="M292 0h-131l589 1062h131zM251 1070q88 0 134 -50t46 -143v-166q0 -95 -46 -144t-134 -49q-87 0 -133 49.5t-46 143.5v166q0 95 46 144t133 49zM251 603q32 0 48.5 25.5t16.5 57.5v216q0 32 -18.5 55t-47.5 23t-46 -23t-17 -55v-216q0 -32 16 -57.5t48 -25.5zM804 544
q87 0 133 -49.5t46 -143.5v-166q0 -95 -46 -144t-133 -49t-133.5 49.5t-46.5 143.5v166q0 95 46.5 144t133.5 49zM804 77q32 0 48 25.5t16 57.5v216q0 32 -18 55t-47 23q-30 0 -47 -23t-17 -55v-216q0 -32 16.5 -57.5t48.5 -25.5z" />
    <glyph glyph-name="ampersand" unicode="&#x26;" horiz-adv-x="1108" 
d="M411 -27q-48 3 -90 10t-78 22t-67.5 39.5t-58.5 62.5q-54 81 -58.5 161t30 157t102.5 148t160 134q-28 31 -59.5 74t-57.5 77q-59 83 -64.5 162t34 141t121.5 100t198 38q77 0 134.5 -22.5t95 -60t56 -85.5t17 -99t-22 -101t-60.5 -91q-43 -42 -95 -76t-93 -64l266 -329
q18 47 21 110t1 136h168q8 -97 -15 -191.5t-79 -172.5l197 -253h-219l-90 116q-79 -71 -178 -109.5t-216 -33.5zM514 1175q-51 0 -90.5 -22t-56.5 -61t-6 -94t61 -121q12 -15 25.5 -31.5t27.5 -35.5q35 29 65 56.5t51 50.5q41 44 53.5 90t0.5 83.5t-46 61t-85 23.5zM425 597
q-43 -33 -84 -75.5t-64.5 -92t-22 -105t43.5 -115.5q27 -39 74.5 -60.5t106 -22.5t122.5 20t125 68z" />
    <glyph glyph-name="quotesingle" unicode="'" horiz-adv-x="417" 
d="M90 729l60 475h184v-151l-146 -324h-98v0z" />
    <glyph glyph-name="parenleft" unicode="(" horiz-adv-x="686" 
d="M662 -190v-68q-7 -2 -22 -2.5t-31.5 -0.5t-31 0.5t-21.5 0.5q-101 0 -172.5 35.5t-116.5 125t-65.5 242t-20.5 385.5q0 156 9 273t28 202t49 140.5t71.5 88.5t95.5 46.5t122 13.5h21.5t31 -0.5t31.5 -1.5t22 -2v-74q-61 -3 -105.5 -17t-75.5 -44t-51 -79.5t-31 -125
t-15 -179t-4 -241.5q0 -137 4 -242.5t15 -183t31 -130.5t51 -86.5t75.5 -49.5t105.5 -20v-6z" />
    <glyph glyph-name="parenright" unicode=")" horiz-adv-x="673" 
d="M-5 -184q61 4 105.5 20t75.5 49.5t51 86.5t31 130.5t15 182.5t4 243t-4 241.5t-15 179t-31 125t-51 79.5t-75.5 43.5t-105.5 17.5v74q7 1 21.5 2t31 1.5t31.5 0.5h22q67 0 121.5 -13.5t96 -46.5t71.5 -88.5t49 -140.5t28 -202t9 -273q0 -233 -20.5 -385.5t-65.5 -242
t-116.5 -125t-172.5 -35.5q-7 0 -22 -0.5t-31.5 -0.5t-31 0.5t-21.5 2.5v68v6z" />
    <glyph glyph-name="asterisk" unicode="*" horiz-adv-x="811" 
d="M50 1157l60 178l212 -90l-22 230h188l-25 -227l218 88l57 -179l-229 -51l158 -172l-150 -108l-126 198l-121 -198l-146 107l152 174z" />
    <glyph glyph-name="plus" unicode="+" horiz-adv-x="956" 
d="M890 443h-314v-324h-184v324h-313v172h313v315h184v-315h314v-172z" />
    <glyph glyph-name="comma" unicode="," horiz-adv-x="487" 
d="M83 -323l66 553h201v-176l-159 -377h-108v0z" />
    <glyph glyph-name="hyphen" unicode="-" horiz-adv-x="817" 
d="M107 625h588v-176h-588v176z" />
    <glyph glyph-name="period" unicode="." horiz-adv-x="567" 
d="M157 0v260h256v-260h-256z" />
    <glyph glyph-name="slash" unicode="/" horiz-adv-x="606" 
d="M124 -260h-117l476 1539h117l-476 -1539v0z" />
    <glyph glyph-name="zero" unicode="0" horiz-adv-x="917" 
d="M458 1075q171 0 261.5 -98t90.5 -281v-325q0 -187 -90.5 -283t-261.5 -96t-262 97.5t-91 281.5v325q0 186 91 282.5t262 96.5zM458 176q63 0 95 41.5t32 104.5v423q0 31 -9.5 57t-27 44t-41 28t-51.5 10q-59 0 -92 -38t-33 -101v-423q0 -31 8 -57.5t24 -46t39.5 -31
t55.5 -11.5z" />
    <glyph glyph-name="one" unicode="1" horiz-adv-x="653" 
d="M63 189h172v530h-160v133q41 0 74 9t58.5 23.5t44 33t31.5 38.5q31 46 43 105h142v-872h114v-189h-519v189z" />
    <glyph glyph-name="two" unicode="2" horiz-adv-x="827" 
d="M738 196v-196h-655q20 33 53.5 87.5t73 119.5t81.5 135t80.5 134t69.5 116t48 82q22 37 29 72.5t-1.5 64.5t-32 47.5t-62.5 20.5q-50 1 -77.5 -13t-41 -40t-15.5 -61.5t0 -76.5h-226q-6 87 10 157.5t58.5 120.5t113.5 77.5t173 27.5q109 0 188.5 -42t118 -114t30 -167.5
t-74.5 -202.5q-32 -55 -67.5 -116t-64.5 -113q-34 -61 -68 -120h259z" />
    <glyph glyph-name="three" unicode="3" horiz-adv-x="839" 
d="M564 561q58 -8 97.5 -32t63.5 -60t34 -81.5t10 -94.5q0 -69 -25 -125t-71 -95.5t-111 -61t-145 -21.5q-81 0 -144 16t-106 53.5t-65 99.5t-21 154h234q0 -74 27 -103.5t83 -29.5q28 0 52 7t41 22.5t26.5 40.5t9.5 61q0 165 -199 165v137q32 4 62 15t52.5 30t36 46
t13.5 62q0 46 -25.5 79.5t-64.5 39.5q-61 9 -95.5 -31.5t-36.5 -118.5h-218q-5 76 14.5 138.5t62 107.5t106 69.5t146.5 24.5q81 0 142.5 -22.5t103 -61t62 -89t20.5 -107.5q0 -36 -8 -73.5t-28 -70t-53 -56.5t-83 -34z" />
    <glyph glyph-name="four" unicode="4" horiz-adv-x="897" 
d="M845 387v-186h-103v-201h-219v201h-514l358 860h226l-264 -678h194l2 219h217v-215h103v0z" />
    <glyph glyph-name="five" unicode="5" horiz-adv-x="852" 
d="M331 299q1 -34 10.5 -56t23.5 -35.5t32 -19t37 -5.5q24 0 48 3.5t43.5 21.5t32 55t12.5 104q0 64 -10 102.5t-26 60t-37.5 30t-43.5 12.5q-11 2 -29.5 1t-38 -8t-38 -22t-29.5 -41h-207v559h633v-188h-430v-195q15 25 43.5 43t64.5 26.5t77.5 6t84.5 -18.5
q53 -20 89.5 -55t58.5 -83t31.5 -108t9.5 -129q0 -84 -22.5 -152t-67 -116t-110 -74t-152.5 -26q-55 0 -110 13t-99.5 47t-72.5 93.5t-28 153.5h220z" />
    <glyph glyph-name="six" unicode="6" horiz-adv-x="827" 
d="M408 -10q-76 0 -140.5 24t-112.5 65.5t-77.5 97t-33.5 118.5q-3 34 -3.5 64t5 62.5t19.5 70.5t40 88q12 22 30 54.5t40 70.5t45.5 79t46.5 81q54 92 115 196h260l-281 -419q18 9 40.5 14t45.5 5.5t44.5 -1.5t37.5 -6q50 -11 93 -36.5t75 -66t50 -97.5t18 -130
q0 -75 -27 -137t-74.5 -105.5t-113 -67.5t-142.5 -24zM422 509q-36 0 -66.5 -13.5t-52.5 -37.5t-34.5 -55.5t-12.5 -67.5t10.5 -66.5t31 -53t49.5 -35t66 -12.5q34 0 62.5 12.5t49.5 35t32.5 53t11.5 66.5q0 35 -11 66.5t-30.5 55.5t-46.5 38t-59 14z" />
    <glyph glyph-name="seven" unicode="7" horiz-adv-x="766" 
d="M359 0h-239l321 874h-350v187h641l-373 -1061v0z" />
    <glyph glyph-name="eight" unicode="8" horiz-adv-x="852" 
d="M599 598q48 -16 84 -45t60 -66t36 -80t12 -88q0 -70 -27.5 -130.5t-77 -105t-117 -70t-148.5 -25.5q-80 0 -148 25.5t-117.5 70t-77.5 105t-28 130.5q0 45 13.5 88.5t39 81t61 66t79.5 43.5q-36 11 -62.5 33t-44.5 51t-26.5 62.5t-8.5 66.5q0 57 23.5 105.5t66 83.5
t101.5 55t129 20t128.5 -20t101 -55t66 -83.5t23.5 -105.5q0 -33 -8.5 -65t-26 -60.5t-44 -51t-62.5 -36.5zM421 902q-54 0 -82.5 -30t-28.5 -72q0 -22 8 -43.5t23 -39t35.5 -28t44.5 -10.5t45 10.5t36.5 28t24 39t8.5 43.5q0 42 -29.5 72t-84.5 30zM421 171q31 0 60.5 7.5
t51.5 25.5t35.5 47.5t13.5 72.5q0 42 -12 73.5t-33.5 52.5t-51 31.5t-64.5 10.5q-69 0 -111.5 -41.5t-42.5 -126.5q0 -43 12.5 -72.5t33.5 -47.5t49 -25.5t59 -7.5z" />
    <glyph glyph-name="nine" unicode="9" horiz-adv-x="852" 
d="M417 1070q76 0 140.5 -24t112.5 -65.5t77 -97t34 -118.5q3 -35 3.5 -65t-5 -62t-19.5 -70t-40 -88q-12 -22 -30.5 -54.5t-40 -70.5t-45.5 -79.5t-47 -80.5q-54 -93 -114 -196h-260l281 419q-18 -9 -40.5 -14t-45.5 -5.5t-44.5 1.5t-37.5 6q-50 11 -93 36.5t-75 66t-50 97
t-18 130.5q0 75 27 137t74.5 105.5t113 67.5t142.5 24zM403 557q36 0 66.5 12.5t52 35t33.5 53.5t12 67q0 72 -40.5 117.5t-114.5 45.5q-34 0 -62 -12t-48 -33.5t-31 -51.5t-11 -66q0 -35 10 -66t29 -53.5t45.5 -35.5t58.5 -13z" />
    <glyph glyph-name="colon" unicode=":" horiz-adv-x="657" 
d="M208 618v260h256v-260h-256zM210 0v260h256v-260h-256z" />
    <glyph glyph-name="semicolon" unicode=";" horiz-adv-x="657" 
d="M208 618v260h256v-260h-256zM226 192h206v-169l-163 -364h-110z" />
    <glyph glyph-name="less" unicode="&#x3c;" horiz-adv-x="978" 
d="M66 588l817 405v-217l-617 -246l617 -241v-215l-817 405v109z" />
    <glyph glyph-name="equal" unicode="=" horiz-adv-x="954" 
d="M119 448h712v-175h-712v175zM119 785h712v-175h-712v175z" />
    <glyph glyph-name="greater" unicode="&#x3e;" horiz-adv-x="960" 
d="M893 479l-817 -405v215l617 241l-617 246v217l817 -405v-109z" />
    <glyph glyph-name="question" unicode="?" horiz-adv-x="902" 
d="M440 1280q97 0 168.5 -26t119 -72.5t71 -109.5t23.5 -137q0 -73 -21 -124.5t-52.5 -92t-68 -74t-67.5 -70t-51 -80t-19 -104.5h-208q-9 73 6 132t42.5 107.5t62 88t65 73.5t51 63.5t20.5 58.5q0 78 -37 125.5t-106 47.5q-40 0 -71.5 -12t-52.5 -38t-31 -66t-7 -97h-240
q-7 85 12.5 159.5t68 129.5t128.5 86.5t194 31.5zM319 0v224h243v-224h-243z" />
    <glyph glyph-name="at" unicode="@" horiz-adv-x="1470" 
d="M859 -203q-140 -26 -258 -17.5t-214 44.5t-169.5 95t-123 134t-74.5 162.5t-25 179.5t24.5 179.5t70.5 164t112.5 140.5t150 110.5t182.5 72t211 25.5q159 0 291 -40.5t227 -116.5t147.5 -185.5t53.5 -246.5q0 -68 -15 -131t-42 -118.5t-63 -102t-78.5 -81t-88.5 -55.5
t-92 -26q-56 -6 -102 5.5t-80 35.5t-53.5 59.5t-22.5 77.5q-32 -38 -75.5 -57t-102.5 -17q-62 1 -116 22t-88.5 68.5t-44 123t17.5 185.5q21 85 54.5 143t78 92t99 47t116.5 9q71 -5 110 -34t52 -85q5 20 9 35.5t7 26.5q4 13 6 24h160q-27 -100 -46 -169t-32 -116.5t-21 -77
t-14 -51t-11 -39t-11 -40.5q-28 -98 -2.5 -140t96.5 -34q51 4 90 43.5t65 99t39 132.5t13 145q-1 132 -38 221.5t-105.5 144t-166.5 78t-221 23.5q-117 0 -216.5 -39t-173 -112.5t-115 -179.5t-41.5 -239t34 -235t110.5 -166.5t201 -87.5t304.5 2l10 -109zM873 442
q18 65 19.5 109t-12 71t-42 38.5t-71.5 11.5q-35 0 -62 -9t-49 -34t-40 -68t-36 -110q-35 -142 -9.5 -203t110.5 -58q43 2 71 15t48 42t36.5 76.5t36.5 118.5z" />
    <glyph glyph-name="A" unicode="A" horiz-adv-x="1207" 
d="M459 1278h309l486 -1278h-261l-131 387h-499l-131 -387h-261zM418 551h389l-195 575z" />
    <glyph glyph-name="B" unicode="B" horiz-adv-x="1114" 
d="M777 696q74 -11 124.5 -40t81.5 -74t44.5 -105t13.5 -133q0 -173 -97.5 -258.5t-289.5 -85.5h-524v1278h541q73 0 133.5 -21.5t103.5 -60t66.5 -92t23.5 -117.5q0 -62 -11 -110.5t-37 -85t-68.5 -60t-104.5 -35.5zM359 770h197q111 0 169 52.5t58 142.5q0 87 -52 122
t-167 35h-205v-352zM593 162q53 0 96 9t73.5 33t47 65t16.5 106q0 64 -17.5 108t-49 71t-76 38.5t-98.5 11.5h-226v-442h234z" />
    <glyph glyph-name="C" unicode="C" horiz-adv-x="1137" 
d="M601 167q118 0 179 61.5t75 180.5h240q-13 -110 -52 -188.5t-102 -129t-148.5 -74.5t-191.5 -24q-122 0 -215.5 31t-158.5 96.5t-100.5 166t-41.5 239.5q-1 31 -1.5 55.5t-0.5 49t0.5 53t1.5 68.5q9 267 140.5 400.5t375.5 133.5q102 0 186 -24.5t145.5 -75t100 -127.5
t49.5 -182h-233q-2 46 -20.5 88.5t-50.5 75t-77 52t-100 19.5q-138 0 -204.5 -79t-75.5 -236q-5 -72 -4.5 -153t4.5 -159q6 -159 73.5 -238.5t206.5 -79.5z" />
    <glyph glyph-name="D" unicode="D" horiz-adv-x="1210" 
d="M636 1278q105 0 182.5 -21.5t132 -61.5t89 -97t54 -128t26.5 -154.5t7 -176.5q0 -94 -7 -177.5t-26.5 -154.5t-54 -128t-89 -96.5t-132 -61t-182.5 -21.5h-463v1278h463zM562 158q87 0 145 16t94.5 45.5t55 72t26.5 96t8.5 117t0.5 134.5t-0.5 134t-8.5 116.5t-26.5 96
t-55 72.5t-95 46t-144.5 16h-153v-962h153z" />
    <glyph glyph-name="E" unicode="E" horiz-adv-x="962" 
d="M140 0v1278h774v-182h-532v-322h450v-180h-450v-414h532v-180h-774v0z" />
    <glyph glyph-name="F" unicode="F" horiz-adv-x="975" 
d="M140 1v1278h768l-2 -182h-524v-322h426v-180h-426v-594h-242v0z" />
    <glyph glyph-name="G" unicode="G" horiz-adv-x="1220" 
d="M1133 690v-79.5t-2 -84.5q-6 -139 -37 -240t-92.5 -167t-156.5 -97.5t-230 -31.5q-122 0 -216 31.5t-159 97.5t-100.5 167t-40.5 240q-2 31 -2.5 55.5t-0.5 49t0.5 53t2.5 68.5q9 267 140.5 402.5t375.5 135.5q102 0 189.5 -22t153 -68.5t106 -118t47.5 -170.5h-242
q-11 107 -77.5 156t-176.5 49q-70 0 -120.5 -20.5t-84.5 -60.5t-52.5 -100t-22.5 -138q-5 -72 -4 -153t4 -159q6 -159 73 -242.5t207 -83.5q79 0 135 23.5t92 70t52.5 115t17.5 158.5h-272v164h493z" />
    <glyph glyph-name="H" unicode="H" horiz-adv-x="1181" 
d="M824 733v545h244v-1278h-244v547h-450v-547h-242v1278h242v-545h450v0z" />
    <glyph glyph-name="I" unicode="I" horiz-adv-x="512" 
d="M134 0v1278h240v-1278h-240v0z" />
    <glyph glyph-name="J" unicode="J" horiz-adv-x="596" 
d="M218 1278h244v-983q0 -81 -15 -137.5t-44 -91.5t-71 -50.5t-96 -15.5h-239v180h108q31 0 53 2.5t35 16t19 41t6 77.5v961z" />
    <glyph glyph-name="K" unicode="K" horiz-adv-x="1132" 
d="M1111 1278l-492 -580l533 -698h-269l-507 674l507 604h228zM146 1278h228v-1278h-228v1278z" />
    <glyph glyph-name="L" unicode="L" horiz-adv-x="899" 
d="M404 1278v-1098h484v-180h-727v1278h243v0z" />
    <glyph glyph-name="M" unicode="M" horiz-adv-x="1523" 
d="M767 533l248 745h374v-1278h-215v1093l-301 -860h-213l-301 860v-1093h-217v1278h377l248 -745v0z" />
    <glyph glyph-name="N" unicode="N" horiz-adv-x="1290" 
d="M939 218v1060h221v-1278h-344l-465 1083v-1083h-223v1278h344l467 -1060v0z" />
    <glyph glyph-name="O" unicode="O" horiz-adv-x="1192" 
d="M595 1296q245 0 376 -137.5t140 -406.5q1 -40 2 -68.5t1 -53t-1 -49t-2 -55.5q-11 -278 -141.5 -411t-374.5 -133q-245 0 -374.5 133t-141.5 411q-1 31 -1.5 55.5t-0.5 49t0.5 53t1.5 68.5q9 269 139.5 406.5t376.5 137.5zM875 485q3 78 4 159t-4 153q-9 157 -75 241
t-205 84t-205.5 -84t-75.5 -241q-5 -72 -4 -153t4 -159q6 -158 74 -244.5t207 -86.5t206.5 86.5t73.5 244.5z" />
    <glyph glyph-name="P" unicode="P" horiz-adv-x="1050" 
d="M572 1278q93 0 172.5 -21.5t137.5 -68.5t91 -122.5t33 -184.5q0 -110 -34.5 -185t-93.5 -121.5t-138 -67t-168 -20.5h-213v-487h-239v1278h452zM537 651q45 0 90 8t81 32.5t58.5 69.5t22.5 120t-22 122t-58 73.5t-81 36t-91 9.5h-178v-471h178z" />
    <glyph glyph-name="Q" unicode="Q" horiz-adv-x="1204" 
d="M603 1296q246 0 376.5 -137.5t139.5 -406.5q1 -40 2 -68.5t1 -53t-1 -49t-2 -55.5q-11 -247 -119 -375.5t-301 -148.5q19 -2 40.5 -5.5t42 -7.5t39 -8.5t32.5 -9.5q22 -8 54 -19t61 -22q34 -12 71 -26l-55 -160q-90 36 -179 73q-38 16 -79.5 33t-83.5 34.5t-83 34.5
t-77 32q-62 26 -118 60t-109 77q-79 65 -120.5 174.5t-47.5 263.5q-1 31 -1.5 55.5t-0.5 49t0.5 53t1.5 68.5q9 269 140 406.5t376 137.5zM884 485q3 78 4 159t-4 153q-5 78 -23 139t-52 102t-85 62.5t-121 21.5q-138 0 -204.5 -84t-75.5 -241q-5 -72 -4 -153t4 -159
q6 -158 74 -244.5t206 -86.5q140 0 207.5 86.5t73.5 244.5z" />
    <glyph glyph-name="R" unicode="R" horiz-adv-x="1097" 
d="M1035 881q0 -92 -21.5 -160t-60 -114.5t-91 -73.5t-115.5 -37l266 -496h-244l-239 487h-148v-487h-236v1278h453q93 0 172.5 -21.5t138 -68.5t92 -122.5t33.5 -184.5zM564 651q45 0 90 8t81 32.5t58.5 69.5t22.5 120t-22.5 122t-58.5 73.5t-81 36t-90 9.5h-182v-471h182z
" />
    <glyph glyph-name="S" unicode="S" horiz-adv-x="995" 
d="M492 1296q111 0 194.5 -26.5t138.5 -76.5t81.5 -121t24.5 -159h-226q0 45 -13.5 87t-39.5 73.5t-66 50.5t-92 19q-38 0 -72.5 -11.5t-60 -32.5t-40.5 -49.5t-15 -62.5t10.5 -61.5t36 -53.5t69 -52.5t109.5 -57.5q102 -47 175.5 -91t121 -95t70 -113.5t22.5 -145.5
q0 -77 -33 -138t-91.5 -104.5t-139 -66.5t-176.5 -23q-78 0 -151 17t-130.5 59.5t-93.5 115t-39 183.5h226q0 -57 16 -96.5t42.5 -65t60.5 -37t69 -11.5q99 0 152 47.5t53 134.5q0 46 -16.5 81t-46.5 62.5t-71.5 50.5t-90.5 45q-92 43 -163.5 85t-120.5 90.5t-75 106
t-26 132.5q0 67 29 124t83.5 98.5t131.5 65t173 23.5z" />
    <glyph glyph-name="T" unicode="T" horiz-adv-x="860" 
d="M-3 1112v166h860v-166h-311v-1112h-246v1112h-303v0z" />
    <glyph glyph-name="U" unicode="U" horiz-adv-x="1204" 
d="M840 1278h248v-795q0 -123 -33.5 -215.5t-96.5 -153.5t-153.5 -91.5t-204.5 -30.5q-113 0 -203 30.5t-153 91.5t-97 153.5t-34 215.5v795h248v-780q0 -75 13 -136t42 -104t74 -66.5t110 -23.5q69 0 115.5 22.5t74 65.5t39 104t11.5 138v780z" />
    <glyph glyph-name="V" unicode="V" horiz-adv-x="1054" 
d="M529 267l297 1011h268l-444 -1278h-244l-444 1278h268l299 -1011v0z" />
    <glyph glyph-name="W" unicode="W" horiz-adv-x="1558" 
d="M1150 318l186 960h260l-320 -1278h-249l-244 993l-252 -993h-249l-312 1278h258l187 -960l225 960h285l225 -960v0z" />
    <glyph glyph-name="X" unicode="X" horiz-adv-x="1020" 
d="M748 1278h252l-350 -639l350 -639h-252l-233 474l-234 -474h-251l352 639l-352 639h251l234 -474l233 474v0z" />
    <glyph glyph-name="Y" unicode="Y" horiz-adv-x="948" 
d="M472 728l258 550h244l-385 -754v-524h-236v524l-383 754h244l258 -550v0z" />
    <glyph glyph-name="Z" unicode="Z" horiz-adv-x="868" 
d="M851 1278l-510 -1100h485v-178h-803l510 1104h-485v174h803v0z" />
    <glyph glyph-name="bracketleft" unicode="[" horiz-adv-x="583" 
d="M509 1172h-144v-1311h144v-121h-303v1551h303v-119v0z" />
    <glyph glyph-name="backslash" unicode="\" horiz-adv-x="604" 
d="M469 -260l-476 1552h117l476 -1552h-117v0z" />
    <glyph glyph-name="bracketright" unicode="]" horiz-adv-x="583" 
d="M76 1172v119h303v-1551h-303v121h144v1311h-144v0z" />
    <glyph glyph-name="asciicircum" unicode="^" horiz-adv-x="1097" 
d="M638 1277l375 -583h-205l-258 435l-250 -435h-207l375 583h170z" />
    <glyph glyph-name="underscore" unicode="_" horiz-adv-x="1141" 
d="M1 195h1139v-195h-1139v195z" />
    <glyph glyph-name="grave" unicode="`" horiz-adv-x="458" 
d="M104 729l60 475h184v-151l-146 -324h-98v0z" />
    <glyph glyph-name="a" unicode="a" horiz-adv-x="999" 
d="M349 -12q-78 0 -132.5 20t-88.5 56t-49 85.5t-15 108.5t15.5 109t49.5 90t88 68.5t130 45.5q51 11 100 20.5t91.5 17.5t76 14.5t54.5 11.5q0 51 -12 79t-35 41t-57 15t-79 2q-18 0 -43.5 -1t-54 -2.5t-59 -3.5t-59.5 -4q-68 -5 -142 -11l-8 165q117 6 216 10l84 4t78 3.5
t63.5 2.5t39.5 1q97 0 155 -27t89 -78t41 -123.5t10 -162.5v-545h-225v121q-23 -35 -56 -60.5t-74.5 -41.5t-90 -23.5t-101.5 -7.5zM445 446q-85 -24 -132.5 -70t-47.5 -112q0 -33 15.5 -56t37.5 -37.5t47 -21t43 -6.5q63 0 112 21t82.5 55.5t51 80t17.5 93.5v111
q-60 -13 -120.5 -29t-105.5 -29z" />
    <glyph glyph-name="b" unicode="b" horiz-adv-x="1046" 
d="M345 0h-219v1278h219v-443q24 33 55 54.5t65.5 34.5t72 18t75.5 5q67 0 133 -22t118 -77.5t84 -150.5t32 -242q0 -148 -32 -238.5t-84 -140.5t-118 -67t-133 -17q-38 0 -79 7t-78 22t-66.5 39t-44.5 59v-119zM548 779q-43 0 -81 -16.5t-66.5 -54t-45 -98.5t-16.5 -151
q0 -86 16.5 -144t45 -93t66.5 -49.5t81 -14.5q44 0 82.5 11.5t67 44t45 91.5t16.5 154q0 96 -16.5 158t-45 98t-67 50t-82.5 14z" />
    <glyph glyph-name="c" unicode="c" horiz-adv-x="952" 
d="M892 301q-9 -86 -36 -146t-75 -97.5t-119 -54.5t-170 -17q-191 0 -295.5 97t-113.5 300q-2 23 -2.5 40.5t-0.5 35t0.5 38.5t2.5 50q3 97 31.5 170.5t80.5 123.5t127 75.5t170 25.5q93 0 163 -17.5t118.5 -55t77.5 -95t41 -137.5h-240q-9 78 -53.5 117t-106.5 39
q-44 0 -74.5 -13t-50.5 -39.5t-30.5 -66t-14.5 -92.5q-2 -48 -2 -103.5t2 -107.5q3 -54 13 -97.5t30.5 -74.5t51.5 -47.5t75 -16.5q73 0 113.5 45.5t48.5 120.5h238v0z" />
    <glyph glyph-name="d" unicode="d" horiz-adv-x="1011" 
d="M689 119q-15 -35 -45 -59t-67.5 -39t-78 -22t-77.5 -7q-68 0 -134 17t-118.5 67t-84.5 140.5t-32 238.5q0 147 32 242t84.5 150.5t118.5 77t134 21.5q37 0 74 -5t72 -18t66 -34.5t56 -54.5v444h211v-1278h-211v119zM484 158q43 0 81 14.5t66.5 49.5t45 93t16.5 144
q0 90 -16.5 151t-45 98.5t-66.5 53.5t-81 16q-44 0 -82.5 -14t-67 -49.5t-45 -97.5t-16.5 -158q0 -95 16.5 -154t45 -91.5t67 -44t82.5 -11.5z" />
    <glyph glyph-name="e" unicode="e" horiz-adv-x="991" 
d="M894 248q-8 -68 -42 -117t-87.5 -81.5t-121.5 -48t-144 -15.5q-200 0 -303.5 97t-116.5 300q-2 23 -2.5 40.5t-0.5 35t0.5 38.5t2.5 50q10 195 114.5 295t305.5 100q99 0 176.5 -27t131 -79.5t81.5 -130t28 -178.5v-100.5t-2 -47.5h-610q1 -58 14.5 -104.5t38.5 -79.5
t60.5 -50.5t81.5 -17.5q68 0 105 33.5t46 87.5h244zM499 801q-56 0 -93 -22.5t-60 -60t-33 -87.5t-11 -105h383q0 47 -6.5 94.5t-26 86.5t-56.5 65t-97 29z" />
    <glyph glyph-name="f" unicode="f" horiz-adv-x="620" 
d="M181 999q0 82 16.5 135.5t44 85.5t63 45t73.5 13h192v-160h-82q-21 0 -39.5 -3t-33 -14.5t-23 -33.5t-8.5 -59v-80h164v-164h-160v-764h-207v764h-129v164h129v71v0z" />
    <glyph glyph-name="g" unicode="g" horiz-adv-x="1026" 
d="M695 926h221l-2 -797q0 -91 -15 -170t-50 -139t-93 -96.5t-143 -42.5q-53 -5 -116 -4.5t-119 2.5q-65 2 -131 6l10 155q53 -2 107 -4q46 -2 97.5 -2t96.5 2q43 2 70 19.5t42 44.5t20 60t5 67v104q-15 -34 -45 -57.5t-67 -38.5t-78 -22t-78 -7q-44 0 -88.5 7.5t-85.5 26.5
t-76 52t-61 84.5t-41 124t-15 170.5t15 170.5t41 124.5t61 84.5t76 51.5t85 26t89 7q94 0 162.5 -42t105.5 -113v146zM494 178q44 0 82 13.5t65.5 46.5t43.5 89t16 140q0 73 -16 129t-43.5 93.5t-65.5 56.5t-82 19t-83 -15.5t-68 -50.5t-45.5 -92t-16.5 -140
q0 -91 16.5 -147.5t45.5 -88t68 -42.5t83 -11z" />
    <glyph glyph-name="h" unicode="h" horiz-adv-x="1079" 
d="M347 0h-227v1278h227v-447q46 50 113.5 77.5t156.5 27.5q88 0 156.5 -30t115.5 -82.5t71 -122.5t24 -150v-551h-217v516q0 60 -15.5 106t-44 77.5t-68 48t-87.5 16.5q-96 0 -150.5 -63.5t-54.5 -184.5v-516z" />
    <glyph glyph-name="i" unicode="i" horiz-adv-x="473" 
d="M355 1278v-191h-227v191h227zM355 928v-928h-227v928h227z" />
    <glyph glyph-name="j" unicode="j" horiz-adv-x="508" 
d="M382 1087h-228v191h228v-191zM226 -287q-33 -12 -74.5 -14.5t-84 3t-83.5 17t-73 27.5l35 135q8 -4 26 -10t40 -10t45.5 -4.5t43.5 6.5q25 9 39 40t14 97v928h228v-946q0 -114 -36.5 -177t-119.5 -92z" />
    <glyph glyph-name="k" unicode="k" horiz-adv-x="932" 
d="M590 496l381 -496h-252l-377 481l393 447h229zM120 1278h219v-1278h-219v1278z" />
    <glyph glyph-name="l" unicode="l" horiz-adv-x="503" 
d="M341 292q0 -38 6 -60.5t17 -34.5t27 -16t36 -4h67v-177h-180q-37 0 -72 8t-62.5 33.5t-44.5 74.5t-17 130v1032h223v-986v0z" />
    <glyph glyph-name="m" unicode="m" horiz-adv-x="1591" 
d="M1291 532q0 119 -50 183.5t-138 64.5t-139.5 -64.5t-51.5 -183.5v-532h-209v532q0 119 -50 183.5t-138 64.5t-138.5 -64.5t-50.5 -183.5v-532h-208v928h208v-107q36 54 95.5 84.5t146.5 30.5q58 0 105.5 -11.5t84 -32.5t64 -51t45.5 -67q42 74 115.5 118t173.5 44
q96 0 161.5 -30t106 -82.5t58.5 -122.5t18 -150v-551h-209v532v0z" />
    <glyph glyph-name="n" unicode="n" horiz-adv-x="1048" 
d="M750 532q0 59 -15.5 105.5t-43.5 78t-68 48t-88 16.5q-96 0 -150 -64.5t-54 -183.5v-532h-228v928h228v-123q34 62 98 96.5t166 34.5q104 0 175.5 -30t116 -82.5t64 -122.5t19.5 -150v-551h-220v532v0z" />
    <glyph glyph-name="o" unicode="o" horiz-adv-x="960" 
d="M888 547q1 -29 2 -50t1 -38.5t-1 -35t-2 -40.5q-8 -203 -111.5 -300t-296.5 -97q-194 0 -296 97t-111 300q-1 23 -1.5 40.5t-0.5 35t0.5 38.5t1.5 50q6 195 109 295t298 100t298 -100t110 -295zM662 360q2 53 2.5 108t-2.5 103q-6 107 -48.5 164.5t-133.5 57.5
q-90 0 -132 -57.5t-50 -164.5q-2 -48 -2 -103t2 -108q5 -108 48.5 -166.5t133.5 -58.5q91 0 134 58.5t48 166.5z" />
    <glyph glyph-name="p" unicode="p" horiz-adv-x="1030" 
d="M337 -260h-211v1188h211v-119q15 34 45 58.5t67.5 39.5t78.5 22t79 7q44 0 88.5 -7t85.5 -26t76 -52t61 -84.5t41 -123.5t15 -170q0 -147 -32.5 -243t-84.5 -152.5t-117.5 -79.5t-132.5 -23q-38 0 -75.5 5.5t-72.5 18t-66.5 34.5t-55.5 55v-348zM542 770q-43 0 -81 -15
t-66.5 -50t-45 -92.5t-16.5 -143.5q0 -90 16.5 -152t45 -101t66.5 -56t81 -17t81.5 15t67 52t45 100t16.5 159q0 95 -16.5 154t-45 91.5t-67 44t-81.5 11.5z" />
    <glyph glyph-name="q" unicode="q" horiz-adv-x="1015" 
d="M425 -17q-45 0 -89 9t-85 31t-76 58.5t-61 91t-41 128.5t-15 172t15 170t41 123.5t61 84.5t76 52t85 26t89 7q37 0 78.5 -7t79 -22t67.5 -39.5t45 -58.5v119h211v-1188h-211v348q-24 -33 -55.5 -53.5t-66.5 -32t-73 -15.5t-75 -4zM490 770q-44 0 -82 -11.5t-67 -44
t-45.5 -91.5t-16.5 -154q0 -96 16.5 -159t45.5 -100t67 -52t82 -15q43 0 81 17t66.5 56t45 101t16.5 152q0 86 -16.5 143.5t-45 92.5t-66.5 50t-81 15z" />
    <glyph glyph-name="r" unicode="r" horiz-adv-x="678" 
d="M339 0h-211v928h211v-199q13 34 35.5 68.5t54 64t72 49t88.5 23.5q18 2 34 1t27 -2q13 -2 25 -3l-13 -219q-16 1 -32 3q-14 1 -29.5 2t-26.5 1q-60 0 -104 -24t-73 -63.5t-43 -91.5t-15 -108v-430z" />
    <glyph glyph-name="s" unicode="s" horiz-adv-x="821" 
d="M410 131q53 0 83.5 21.5t35.5 70.5q2 25 -5 47t-26 42.5t-51.5 40.5t-81.5 42q-61 27 -119 56t-101 66.5t-65.5 86.5t-13.5 117q6 49 30.5 90t67 70.5t102.5 46t138 16.5t144 -16.5t114 -49.5t74 -84t25 -120h-217q0 27 -6.5 49.5t-21.5 39t-39.5 25.5t-61.5 9
q-63 0 -92 -25.5t-29 -79.5q0 -28 12 -47t35.5 -35.5t57.5 -32t79 -36.5q51 -25 101 -53.5t89 -64.5t63 -81.5t24 -105.5q0 -56 -22.5 -102.5t-67.5 -79.5t-112.5 -51.5t-156.5 -18.5q-81 0 -142.5 21t-104 58.5t-66.5 90t-29 114.5h232q1 -34 12 -59.5t28 -43t38.5 -26
t45.5 -8.5z" />
    <glyph glyph-name="t" unicode="t" horiz-adv-x="551" 
d="M142 772h-139v156h139v235h203v-235h168v-156h-168v-488q0 -38 6.5 -59.5t18 -32t28 -13t37.5 -2.5h102v-177h-192q-38 0 -74.5 8t-65 33.5t-46 74.5t-17.5 130v526z" />
    <glyph glyph-name="u" unicode="u" horiz-adv-x="1005" 
d="M679 113q-29 -57 -85 -89t-147 -32q-98 0 -162 30t-102.5 82.5t-54 122.5t-15.5 150v551h213v-533q0 -120 39.5 -179.5t128.5 -59.5q45 0 79.5 18.5t58 53t35.5 83.5t12 109v508h213v-928h-213v113v0z" />
    <glyph glyph-name="v" unicode="v" horiz-adv-x="723" 
d="M765 928l-299 -928h-211l-299 928h252l161 -670l144 670h252v0z" />
    <glyph glyph-name="w" unicode="w" horiz-adv-x="1231" 
d="M902 313l121 615h241l-276 -928h-178l-197 776l-197 -776h-179l-275 928h244l120 -615l146 615h285l145 -615v0z" />
    <glyph glyph-name="x" unicode="x" horiz-adv-x="811" 
d="M257 0h-256l281 489l-281 439h256l141 -277l141 277h256l-280 -439l280 -489h-256l-141 328l-141 -328v0z" />
    <glyph glyph-name="y" unicode="y" horiz-adv-x="747" 
d="M165 -260l133 387l-326 801h242l175 -558l138 558h236l-375 -1188h-223v0z" />
    <glyph glyph-name="z" unicode="z" horiz-adv-x="688" 
d="M662 0h-657l362 758h-337v170h657l-363 -751h338v-177v0z" />
    <glyph glyph-name="braceleft" unicode="{" horiz-adv-x="665" 
d="M443 721q0 -28 -7.5 -58t-25.5 -57t-47.5 -47t-72.5 -27q43 -7 72 -26.5t47 -46.5t26 -57t8 -58v-215q0 -76 2.5 -138t21 -106t59.5 -67t118 -21v-63q-78 -10 -143.5 0t-112.5 50t-73.5 114.5t-26.5 193.5v270q2 38 -9 68q-10 26 -35.5 47t-76.5 21v69q51 0 76.5 20.5
t35.5 46.5q11 30 9 68v271q0 119 26.5 193.5t73.5 114.5t112.5 50t143.5 0v-63q-77 2 -118 -21t-59.5 -67t-21 -106t-2.5 -138v-215v0z" />
    <glyph glyph-name="bar" unicode="|" horiz-adv-x="546" 
d="M333 -260h-113v1551h113v-1551z" />
    <glyph glyph-name="braceright" unicode="}" horiz-adv-x="632" 
d="M196 936q0 76 -2.5 138t-21 106t-59.5 67t-118 21v63q78 10 143.5 0t112.5 -50t73.5 -114.5t26.5 -193.5v-271q-2 -38 9 -68q10 -26 35 -46.5t77 -20.5v-69q-26 0 -45 -6t-32 -15.5t-21.5 -21.5t-13.5 -25q-11 -30 -9 -68v-270q0 -119 -26.5 -193.5t-73.5 -114.5
t-112.5 -50t-143.5 0v63q77 -2 118 21t59.5 67t21 106t2.5 138v215q0 28 8 58t26 57t47 46.5t72 26.5q-44 7 -73 27t-47 47t-25.5 57t-7.5 58v215z" />
    <glyph glyph-name="asciitilde" unicode="~" horiz-adv-x="567" 
d="M32 559q13 15 26.5 30t30 27.5t38 20.5t50.5 8q39 0 66.5 -12.5t50 -27.5t42.5 -27.5t44 -12.5q29 0 50 7.5t36.5 19.5t28 26t24.5 27v-146q-12 -14 -23 -29t-26 -27t-35 -20t-49 -8q-37 0 -59 14t-42.5 31t-44 31t-63.5 14q-32 0 -54 -9.5t-38.5 -24t-29 -30.5
t-23.5 -28v146z" />
    <glyph glyph-name="nonbreakingspace" unicode="&#xa0;" horiz-adv-x="515" 
 />
    <glyph glyph-name="exclamdown" unicode="&#xa1;" horiz-adv-x="510" 
d="M132 -216v505l42 338h184l42 -338v-505h-268zM137 800v260h256v-260h-256z" />
    <glyph glyph-name="cent" unicode="&#xa2;" horiz-adv-x="882" 
d="M828 301q-8 -82 -31 -140t-63.5 -95.5t-100 -56.5t-141.5 -22v-114h-75v115q-159 10 -245 106.5t-94 288.5q-2 23 -2.5 40.5t-0.5 35t0.5 38.5t2.5 50q5 183 92 282.5t247 110.5v150h75v-149q154 -7 235 -80t101 -224h-222q-8 66 -38.5 103.5t-75.5 48.5v-650
q51 11 80 54t35 108h221zM299 371q5 -94 31.5 -155t86.5 -77v650q-60 -12 -85.5 -63.5t-32.5 -143.5q-2 -48 -2 -103.5t2 -107.5z" />
    <glyph glyph-name="sterling" unicode="&#xa3;" horiz-adv-x="659" 
d="M87 153h96v611h-120v164h120v71q0 82 15.5 135.5t41 85.5t58.5 45t68 13h179v-160h-76q-19 0 -36.5 -3t-31 -14.5t-21.5 -33.5t-8 -59v-80h153v-164h-149v-611h207v-154h-496v154z" />
    <glyph glyph-name="currency" unicode="&#xa4;" horiz-adv-x="952" 
d="M675 373q-44 -35 -95.5 -52t-105 -17.5t-106.5 15.5t-99 48l-110 -109l-60 59l107 109q-36 46 -55.5 100t-20 110t17 110t54.5 100l-113 112l63 62l111 -113q46 34 100 50t109 14.5t108.5 -20t98.5 -54.5l104 107l60 -64l-107 -106q31 -45 46.5 -96.5t15.5 -104
t-16 -103.5t-48 -94l104 -104l-61 -62zM331 502q28 -27 63 -41t71 -14t71.5 13.5t64.5 41.5q27 27 41 62t14.5 72.5t-13.5 73t-42 62.5q-27 28 -62.5 41.5t-73 13.5t-72.5 -13.5t-62 -41.5q-28 -29 -41.5 -63.5t-13.5 -70.5t14 -71.5t41 -64.5z" />
    <glyph glyph-name="yen" unicode="&#xa5;" horiz-adv-x="938" 
d="M124 541h229l-383 737h244l258 -600l258 600h244l-385 -737h221v-116h-221v-97h221v-116h-221v-212h-236v212h-229v116h229v97h-229v116z" />
    <glyph glyph-name="brokenbar" unicode="&#xa6;" horiz-adv-x="315" 
d="M212 692h-113v586h113v-586zM212 -259h-113v586h113v-586z" />
    <glyph glyph-name="section" unicode="&#xa7;" horiz-adv-x="776" 
d="M423 -88q39 0 65.5 11t42 28t21 38.5t2.5 41.5q-3 18 -24.5 43.5t-50.5 51.5t-60.5 51.5t-53.5 43.5q-24 20 -56 46.5t-66 56t-66 62t-57 65.5t-40 66t-14 63q-2 49 11 85t34.5 61.5t49.5 41.5t57 25q-29 26 -59 59t-54 69.5t-39.5 73.5t-15.5 72q-2 67 24.5 111.5
t71.5 71.5t104 38.5t124 11.5q75 0 138.5 -15.5t109 -48.5t70.5 -84.5t24 -123.5h-170q2 29 -4.5 57t-23.5 49.5t-46.5 35t-73.5 14.5q-75 2 -115.5 -30.5t-35.5 -92.5q3 -36 20.5 -67.5t44.5 -60t60 -55t67 -53.5q33 -25 73.5 -53.5t79.5 -59t71.5 -63t48.5 -65.5
q19 -39 24.5 -80t-5 -83t-39.5 -83t-79 -78q69 -48 98 -116.5t27 -143.5q-1 -57 -27.5 -101.5t-70.5 -74.5t-103 -46t-124 -16q-80 0 -147.5 21.5t-116 61.5t-74.5 98t-21 131h186q0 -79 45 -120.5t138 -41.5zM507 557q-15 14 -37.5 33t-46 38.5t-46 36.5t-38.5 27
q-56 -25 -78.5 -53.5t-5.5 -67.5q7 -16 25.5 -36.5t43.5 -43t52.5 -45t53 -42t45 -34.5t28.5 -22q44 30 61 56.5t14 51.5t-22.5 50t-48.5 51z" />
    <glyph glyph-name="dieresis" unicode="&#xa8;" horiz-adv-x="571" 
d="M79 1271q0 35 22.5 58.5t57.5 23.5t58 -23.5t23 -58.5q0 -34 -23 -57t-58 -23t-57.5 23t-22.5 57zM331 1271q0 35 22.5 58.5t56.5 23.5q36 0 59 -23.5t23 -58.5q0 -34 -23 -57t-59 -23q-34 0 -56.5 23t-22.5 57z" />
    <glyph glyph-name="copyright" unicode="&#xa9;" horiz-adv-x="1488" 
d="M62 641q0 138 46.5 259t135 211.5t215 143t287.5 52.5q160 0 287.5 -52.5t216 -143t135.5 -211.5t47 -259t-47 -259t-135.5 -211t-216 -142t-287.5 -52q-161 0 -287.5 52t-215 142t-135 211t-46.5 259zM222 639q0 -127 37 -228t105 -171.5t164.5 -108t215.5 -37.5
t215.5 37.5t165 108t105.5 171.5t37 228t-37 228t-105.5 171.5t-165 108t-215.5 37.5t-215.5 -37.5t-164.5 -108t-105 -171.5t-37 -228zM1062 508q-7 -68 -28 -115.5t-59 -77.5t-94.5 -43.5t-134.5 -13.5q-151 0 -233 76.5t-90 238.5q-1 18 -1.5 32t-0.5 27.5t0.5 29.5
t1.5 38q6 155 89 234.5t234 79.5q148 0 222.5 -58t93.5 -184h-189q-8 62 -42.5 92.5t-84.5 30.5q-69 0 -98.5 -41.5t-36.5 -124.5v-166q5 -86 35.5 -136t99.5 -50q57 0 89 35.5t40 95.5h187z" />
    <glyph glyph-name="ordfeminine" unicode="&#xaa;" horiz-adv-x="696" 
d="M249 679q-48 0 -81.5 12.5t-54.5 34.5t-30.5 53t-9.5 67q0 74 40 123.5t135 70.5q64 14 118.5 23.5t80.5 15.5q0 32 -7.5 49t-21.5 25t-35 9.5t-49 1.5q-23 0 -60.5 -2.5t-73.5 -4.5q-42 -3 -88 -6l-5 102q73 3 134 6q26 1 52 2.5t48 2.5t39 1.5t25 0.5q60 0 96 -17
t55.5 -48.5t25.5 -76t6 -100.5v-338h-139v75q-29 -44 -81.5 -63t-118.5 -19zM309 962q-53 -15 -82.5 -43t-29.5 -69q0 -21 9.5 -35t23.5 -23t29 -13t27 -4q39 0 69.5 13t51 34.5t31.5 49t11 57.5v69q-38 -8 -75 -18t-65 -18z" />
    <glyph glyph-name="guillemotleft" unicode="&#xab;" horiz-adv-x="610" 
d="M111 1204h164v-149l-130 -319h-88zM373 1204h164v-149l-130 -319h-88z" />
    <glyph glyph-name="logicalnot" unicode="&#xac;" horiz-adv-x="829" 
d="M16 1141v138h780v-346h-165v208h-615z" />
    <glyph glyph-name="uni00AD" unicode="&#xad;" horiz-adv-x="847" 
d="M43 612h745v-160h-745v160z" />
    <glyph glyph-name="registered" unicode="&#xae;" horiz-adv-x="1460" 
d="M62 641q0 138 46.5 259t135 211.5t215 143t287.5 52.5q160 0 287.5 -52.5t216 -143t135.5 -211.5t47 -259t-47 -259t-135.5 -211t-216 -142t-287.5 -52q-161 0 -287.5 52t-215 142t-135 211t-46.5 259zM222 639q0 -127 37 -228t105 -171.5t164.5 -108t215.5 -37.5
t215.5 37.5t165 108t105.5 171.5t37 228t-37 228t-105.5 171.5t-165 108t-215.5 37.5t-215.5 -37.5t-164.5 -108t-105 -171.5t-37 -228zM1021 778q0 -52 -14 -90.5t-38.5 -65t-58.5 -42t-74 -21.5l175 -280h-140l-157 276h-45v-276h-138v725h244q53 0 98 -12t78 -39
t51.5 -70t18.5 -105zM755 649q25 0 50.5 4.5t46 18t33.5 39t13 67.5q0 43 -12.5 70t-33 42t-46 20t-51.5 5h-86v-266h86z" />
    <glyph glyph-name="macron" unicode="&#xaf;" horiz-adv-x="1022" 
d="M-1 1277h1025v-160h-1025v160z" />
    <glyph glyph-name="degree" unicode="&#xb0;" horiz-adv-x="745" 
d="M91 1001q0 59 22.5 111.5t61.5 91.5t91.5 61.5t111.5 22.5t111 -22.5t91 -61.5t61.5 -91.5t22.5 -111.5t-22.5 -111t-61.5 -91t-91 -61.5t-111 -22.5t-111.5 22.5t-91.5 61.5t-61.5 91t-22.5 111zM202 1001q0 -37 13.5 -68.5t36.5 -55t55 -37t69 -13.5t69 13.5t56 37
t37.5 55t13.5 68.5t-13.5 69.5t-37.5 56.5t-56 37.5t-69 13.5t-69 -13.5t-55 -37.5t-36.5 -56.5t-13.5 -69.5z" />
    <glyph glyph-name="plusminus" unicode="&#xb1;" horiz-adv-x="573" 
d="M25 621h195v188h137v-188h195v-129h-195v-199h-137v199h-195v129zM32 115h510v-115h-510v115z" />
    <glyph glyph-name="twosuperior" unicode="&#xb2;" horiz-adv-x="495" 
d="M424 789v-103h-362q11 19 30 49t41.5 66t46.5 74.5t45.5 74t39 64t27.5 45.5q12 20 15.5 41.5t-1.5 39.5t-18 30t-35 14q-27 1 -43 -8.5t-24.5 -26t-10 -38t-0.5 -44.5h-125q-3 48 6 87t32.5 67t62.5 43t96 15q60 0 104 -23.5t65 -63t16.5 -92.5t-41.5 -112
q-18 -31 -39.5 -65.5t-41.5 -64.5q-23 -35 -46 -69h160z" />
    <glyph glyph-name="threesuperior" unicode="&#xb3;" horiz-adv-x="463" 
d="M298 996q33 -4 55.5 -17.5t37 -33.5t21 -45.5t6.5 -52.5q0 -38 -14 -70t-39.5 -54.5t-61.5 -35t-81 -12.5t-80 9.5t-59 31t-36 56.5t-12 86h125q0 -46 16.5 -66.5t50.5 -20.5t52.5 22t18.5 64q0 48 -24.5 69.5t-81.5 21.5v77q36 0 61.5 23.5t25.5 62.5q0 32 -11 49.5
t-39 20.5q-45 7 -61 -16.5t-17 -65.5h-116q-6 85 41.5 134.5t140.5 49.5q45 0 79.5 -12.5t57.5 -34t34.5 -50t11.5 -59.5q0 -20 -5.5 -41t-17.5 -39t-31.5 -31.5t-47.5 -19.5z" />
    <glyph glyph-name="acute" unicode="&#xb4;" horiz-adv-x="563" 
d="M304 1332h215l-297 -162h-121z" />
    <glyph glyph-name="mu1" unicode="&#xb5;" horiz-adv-x="1001" 
d="M107 928h219v-533q0 -120 39.5 -179.5t128.5 -59.5q45 0 79.5 18.5t58 53t35.5 83.5t12 109v508h213v-928h-213v113q-29 -57 -76 -89t-116 -32q-18 0 -41 3.5t-46 11t-44 20t-34 31.5v-316h-215v1186z" />
    <glyph glyph-name="paragraph" unicode="&#xb6;" horiz-adv-x="929" 
d="M660 1118h-148v-1118h-128v649h-8q-70 0 -128 20t-100 58t-65 92.5t-23 124.5t23 124.5t65 92.5t100 58t128 20h518v-121h-107v-1118h-127v1118z" />
    <glyph glyph-name="periodcentered" unicode="&#xb7;" horiz-adv-x="618" 
d="M190 428v260h256v-260h-256z" />
    <glyph glyph-name="cedilla" unicode="&#xb8;" horiz-adv-x="440" 
d="M154 -334v84h95q35 0 50 13.5t13.5 29.5t-17 29.5t-40.5 13.5h-115q-38 0 -56 23.5t-16.5 54t22 60.5t60.5 42q-28 -40 -20 -70t51 -30h115q31 0 54 -18.5t34.5 -46.5t10.5 -60t-17.5 -60t-49 -46.5t-83.5 -18.5h-91z" />
    <glyph glyph-name="onesuperior" unicode="&#xb9;" horiz-adv-x="456" 
d="M90 784h102v305h-95v69q47 0 74 18t42 40q17 26 24 58h80v-490h64v-100h-291v100z" />
    <glyph glyph-name="ordmasculine" unicode="&#xba;" horiz-adv-x="663" 
d="M579 1033q1 -18 1 -31v-24v-22t-1 -25q-5 -128 -69.5 -188t-185.5 -60t-184.5 60t-68.5 188q-1 14 -1.5 25t-0.5 22t0.5 24t1.5 31q3 121 67.5 183.5t185.5 62.5t185.5 -62.5t69.5 -183.5zM438 916q1 33 1.5 68t-1.5 64q-4 66 -30.5 102t-83.5 36q-56 0 -82 -36t-31 -102
q-1 -29 -1 -64t1 -68q2 -67 29.5 -103.5t83.5 -36.5q57 0 84 36.5t30 103.5z" />
    <glyph glyph-name="guillemotright" unicode="&#xbb;" horiz-adv-x="594" 
d="M111 1204h164v-149l-130 -319h-88zM373 1204h164v-149l-130 -319h-88z" />
    <glyph glyph-name="onequarter" unicode="&#xbc;" horiz-adv-x="1423" 
d="M96 575h340v119h-74v582h-93q-8 -39 -28 -69q-17 -26 -50 -47.5t-87 -21.5v-81h112v-363h-120v-119zM1299 251h-71v136h-128l-1 -139h-153l185 457h-150l-238 -571h356v-134h129v134h71v117zM488 0h-118l500 1277h118z" />
    <glyph glyph-name="onehalf" unicode="&#xbd;" horiz-adv-x="1427" 
d="M1088 124q28 41 55 82q23 35 49 76.5t48 78.5q43 71 48.5 134t-19.5 110.5t-77.5 75t-124.5 27.5q-68 0 -114.5 -18t-74.5 -51t-38.5 -80t-6.5 -104h149q-1 27 1 52.5t11.5 45t28.5 31t52 10.5q25 -2 41 -16t22 -35t2 -47t-19 -50q-11 -20 -32 -54.5t-47 -76.5t-54.5 -88
t-55.5 -89t-49.5 -79t-35.5 -58h432v123h-191zM137 575h340v119h-74v582h-93q-8 -39 -28 -69q-17 -26 -50 -47.5t-87 -21.5v-81h112v-363h-120v-119zM488 0h-118l500 1277h118z" />
    <glyph glyph-name="threequarters" unicode="&#xbe;" horiz-adv-x="1427" 
d="M402 950q38 -5 65 -21t44 -40t25 -53.5t8 -62.5q0 -45 -16.5 -82.5t-47 -64.5t-73.5 -42t-96 -15q-54 0 -95.5 11.5t-70 37t-43 67t-13.5 102.5h148q0 -55 19.5 -79.5t59.5 -24.5q41 0 63.5 26t22.5 76q0 57 -29 82.5t-98 25.5v91q43 0 73 27.5t30 73.5q0 38 -13 59
t-46 25q-54 8 -72.5 -19.5t-19.5 -77.5h-138q-4 50 9 90t40.5 68.5t69.5 43.5t97 15q54 0 94.5 -15t68 -40t41 -58.5t13.5 -70.5q0 -24 -6.5 -48.5t-20.5 -46t-37 -37.5t-56 -23zM1287 133h-71v-133h-128v133h-354l237 568h149l-184 -455h152l1 139h127v-136h71v-116zM488 0
h-118l500 1277h118z" />
    <glyph glyph-name="questiondown" unicode="&#xbf;" horiz-adv-x="907" 
d="M450 -220q114 0 194 31.5t128.5 86.5t68 129.5t12.5 159.5h-240q3 -57 -7 -97t-31 -66t-52.5 -38t-71.5 -12q-69 0 -106 47.5t-37 125.5q0 29 20.5 58.5t51 63.5t65 73.5t62 88t42.5 107.5t6 132h-208q1 -61 -19 -104.5t-51 -80t-67.5 -70t-68 -74t-52.5 -92t-21 -124.5
q0 -74 23.5 -137t71 -109.5t119 -72.5t168.5 -26zM571 1060v-224h-243v224h243z" />
    <glyph glyph-name="Agrave" unicode="&#xc0;" horiz-adv-x="1214" 
d="M457 1278h309l486 -1278h-261l-131 387h-499l-131 -387h-261zM416 551h389l-195 575zM812 1399h-121l-297 162h215z" />
    <glyph glyph-name="Aacute" unicode="&#xc1;" horiz-adv-x="1222" 
d="M460 1278h309l486 -1278h-261l-131 387h-499l-131 -387h-261zM419 551h389l-195 575zM675 1561h215l-297 -162h-121z" />
    <glyph glyph-name="Acircumflex" unicode="&#xc2;" horiz-adv-x="1203" 
d="M455 1278h309l486 -1278h-261l-131 387h-499l-131 -387h-261zM414 551h389l-195 575zM663 1677l196 -273h-132l-98 162l-107 -162h-134l206 273h69z" />
    <glyph glyph-name="Atilde" unicode="&#xc3;" horiz-adv-x="1208" 
d="M766 1278l486 -1278h-261l-131 387h-499l-131 -387h-261l488 1278h309zM805 551l-195 575l-194 -575h389zM453 1487q11 15 22.5 32.5t25 32.5t31 25t41.5 10q32 0 55.5 -19t42 -41.5t35.5 -41t37 -18.5q24 0 41.5 12t30.5 29t23 36.5t20 34.5v-118q-6 -18 -15 -35.5
t-22 -32t-31 -23.5t-42 -9q-21 0 -35.5 8.5t-26.5 21t-23 27.5t-23.5 27.5t-28.5 21t-38 8.5q-26 0 -44.5 -13t-32 -30.5t-23.5 -36t-20 -28.5v120z" />
    <glyph glyph-name="Adieresis" unicode="&#xc4;" horiz-adv-x="1203" 
d="M764 1278l486 -1278h-261l-131 387h-499l-131 -387h-261l488 1278h309zM803 551l-195 575l-194 -575h389zM402 1502q0 35 22.5 58.5t57.5 23.5t58 -23.5t23 -58.5q0 -34 -23 -57t-58 -23t-57.5 23t-22.5 57zM654 1502q0 35 22.5 58.5t56.5 23.5q36 0 59 -23.5t23 -58.5
q0 -34 -23 -57t-59 -23q-34 0 -56.5 23t-22.5 57z" />
    <glyph glyph-name="Aring" unicode="&#xc5;" horiz-adv-x="1209" 
d="M356 1471q0 51 19.5 96.5t53.5 79.5t79.5 54t96.5 20t96.5 -20t79.5 -54t54 -79.5t20 -96.5q0 -60 -25.5 -109.5t-69.5 -83.5h-309q-43 34 -69 83.5t-26 109.5zM456 1471q0 -31 12 -59t32 -49.5t47.5 -34t57.5 -12.5q31 0 58.5 12.5t48 34t32 49.5t11.5 59t-11.5 58.5
t-32 48t-48 32t-58.5 11.5q-30 0 -57.5 -11.5t-47.5 -32t-32 -48t-12 -58.5zM761 1278l486 -1278h-261l-131 387h-499l-131 -387h-261l488 1278h309zM800 551l-195 575l-194 -575h389z" />
    <glyph glyph-name="AE" unicode="&#xc6;" horiz-adv-x="1439" 
d="M599 1278h117v-178l-297 -615h297v-159h-353l-139 -326h-254zM715 0v1278h618v-182h-425v-322h360v-180h-360v-414h425v-180h-618z" />
    <glyph glyph-name="Ccedilla" unicode="&#xc7;" horiz-adv-x="1214" 
d="M611 154q117 0 178.5 68t75.5 187h240q-13 -110 -52 -190.5t-102 -133.5t-148.5 -79t-191.5 -26q-244 0 -374 134t-142 412q-1 31 -1.5 55.5t-0.5 49t0.5 53t1.5 68.5q9 269 140 406.5t376 137.5q102 0 186 -26t145.5 -78.5t100 -131t49.5 -183.5h-233q-2 46 -20.5 90
t-50.5 78.5t-77 55.5t-100 21q-138 0 -204.5 -84t-75.5 -241q-5 -72 -4.5 -153t4.5 -159q6 -158 74 -244.5t206 -86.5zM625 -364v84h95q35 0 50 13.5t13.5 29.5t-17 29.5t-40.5 13.5h-115q-38 0 -56 23.5t-16.5 54t22 60.5t60.5 42q-28 -40 -20 -70t51 -30h115
q31 0 54 -18.5t34.5 -46.5t10.5 -60t-17.5 -60t-49 -46.5t-83.5 -18.5h-91z" />
    <glyph glyph-name="Egrave" unicode="&#xc8;" horiz-adv-x="1028" 
d="M140 0v1278h774v-182h-532v-322h450v-180h-450v-414h532v-180h-774zM741 1399h-121l-297 162h215z" />
    <glyph glyph-name="Eacute" unicode="&#xc9;" horiz-adv-x="1065" 
d="M140 0v1278h774v-182h-532v-322h450v-180h-450v-414h532v-180h-774zM601 1561h215l-297 -162h-121z" />
    <glyph glyph-name="Ecircumflex" unicode="&#xca;" horiz-adv-x="1071" 
d="M140 0v1278h774v-182h-532v-322h450v-180h-450v-414h532v-180h-774zM539 1677l196 -273h-132l-98 162l-107 -162h-134l206 273h69z" />
    <glyph glyph-name="Edieresis" unicode="&#xcb;" horiz-adv-x="1058" 
d="M140 1278h774v-182h-532v-322h450v-180h-450v-414h532v-180h-774v1278zM358 1502q0 35 22.5 58.5t57.5 23.5t58 -23.5t23 -58.5q0 -34 -23 -57t-58 -23t-57.5 23t-22.5 57zM610 1502q0 35 22.5 58.5t56.5 23.5q36 0 59 -23.5t23 -58.5q0 -34 -23 -57t-59 -23
q-34 0 -56.5 23t-22.5 57z" />
    <glyph glyph-name="Igrave" unicode="&#xcc;" horiz-adv-x="506" 
d="M134 0v1278h240v-1278h-240zM395 1399h-121l-297 162h215z" />
    <glyph glyph-name="Iacute" unicode="&#xcd;" horiz-adv-x="512" 
d="M134 0v1278h240v-1278h-240zM253 1561h215l-297 -162h-121z" />
    <glyph glyph-name="Icircumflex" unicode="&#xce;" horiz-adv-x="506" 
d="M134 0v1278h240v-1278h-240zM307 1677l196 -273h-132l-98 162l-107 -162h-134l206 273h69z" />
    <glyph glyph-name="Idieresis" unicode="&#xcf;" horiz-adv-x="512" 
d="M134 1278h240v-1278h-240v1278zM68 1502q0 35 22.5 58.5t57.5 23.5t58 -23.5t23 -58.5q0 -34 -23 -57t-58 -23t-57.5 23t-22.5 57zM320 1502q0 35 22.5 58.5t56.5 23.5q36 0 59 -23.5t23 -58.5q0 -34 -23 -57t-59 -23q-34 0 -56.5 23t-22.5 57z" />
    <glyph glyph-name="Eth" unicode="&#xd0;" horiz-adv-x="1241" 
d="M11 732h211v546h426q145 0 234 -47.5t137 -132t64 -202t16 -257.5q0 -141 -16 -258t-64 -202t-137 -132t-234 -47h-426v566h-211v166zM580 158q79 0 132.5 16t87.5 45.5t51 72t24 96t7.5 117t0.5 134.5t-0.5 134t-7.5 116.5t-24 96t-51 72.5t-87.5 46t-132.5 16h-141
v-388h170v-166h-170v-408h141z" />
    <glyph glyph-name="Ntilde" unicode="&#xd1;" horiz-adv-x="1308" 
d="M953 1278h221v-1278h-344l-465 1143v-1143h-223v1278h344l467 -1120v1120zM466 1517q11 15 22.5 32.5t25 32.5t31 25t41.5 10q32 0 55.5 -19t42 -41.5t35.5 -41t37 -18.5q24 0 41.5 12t30.5 29t23 36.5t20 34.5v-118q-6 -18 -15 -35.5t-22 -32t-31 -23.5t-42 -9
q-21 0 -35.5 8.5t-26.5 21t-23 27.5t-23.5 27.5t-28.5 21t-38 8.5q-26 0 -44.5 -13t-32 -30.5t-23.5 -36t-20 -28.5v120z" />
    <glyph glyph-name="Ograve" unicode="&#xd2;" horiz-adv-x="1216" 
d="M597 1296q245 0 376 -137.5t140 -406.5q1 -40 2 -68.5t1 -53t-1 -49t-2 -55.5q-11 -278 -141.5 -411t-374.5 -133q-245 0 -374.5 133t-141.5 411q-1 31 -1.5 55.5t-0.5 49t0.5 53t1.5 68.5q9 269 139.5 406.5t376.5 137.5zM877 485q3 78 4 159t-4 153q-9 157 -75 241
t-205 84t-205.5 -84t-75.5 -241q-5 -72 -4 -153t4 -159q6 -158 74 -244.5t207 -86.5t206.5 86.5t73.5 244.5zM823 1399h-121l-297 162h215z" />
    <glyph glyph-name="Oacute" unicode="&#xd3;" horiz-adv-x="1204" 
d="M599 1296q245 0 376 -137.5t140 -406.5q1 -40 2 -68.5t1 -53t-1 -49t-2 -55.5q-11 -278 -141.5 -411t-374.5 -133q-245 0 -374.5 133t-141.5 411q-1 31 -1.5 55.5t-0.5 49t0.5 53t1.5 68.5q9 269 139.5 406.5t376.5 137.5zM879 485q3 78 4 159t-4 153q-9 157 -75 241
t-205 84t-205.5 -84t-75.5 -241q-5 -72 -4 -153t4 -159q6 -158 74 -244.5t207 -86.5t206.5 86.5t73.5 244.5zM664 1561h215l-297 -162h-121z" />
    <glyph glyph-name="Ocircumflex" unicode="&#xd4;" horiz-adv-x="1204" 
d="M599 1296q245 0 376 -137.5t140 -406.5q1 -40 2 -68.5t1 -53t-1 -49t-2 -55.5q-11 -278 -141.5 -411t-374.5 -133q-245 0 -374.5 133t-141.5 411q-1 31 -1.5 55.5t-0.5 49t0.5 53t1.5 68.5q9 269 139.5 406.5t376.5 137.5zM879 485q3 78 4 159t-4 153q-9 157 -75 241
t-205 84t-205.5 -84t-75.5 -241q-5 -72 -4 -153t4 -159q6 -158 74 -244.5t207 -86.5t206.5 86.5t73.5 244.5zM637 1677l196 -273h-132l-98 162l-107 -162h-134l206 273h69z" />
    <glyph glyph-name="Otilde" unicode="&#xd5;" horiz-adv-x="1208" 
d="M599 1296q245 0 376 -137.5t140 -406.5q1 -40 2 -68.5t1 -53t-1 -49t-2 -55.5q-11 -278 -141.5 -411t-374.5 -133q-245 0 -374.5 133t-141.5 411q-1 31 -1.5 55.5t-0.5 49t0.5 53t1.5 68.5q9 269 139.5 406.5t376.5 137.5zM879 485q3 78 4 159t-4 153q-9 157 -75 241
t-205 84t-205.5 -84t-75.5 -241q-5 -72 -4 -153t4 -159q6 -158 74 -244.5t207 -86.5t206.5 86.5t73.5 244.5zM404 1517q11 15 22.5 32.5t25 32.5t31 25t41.5 10q32 0 55.5 -19t42 -41.5t35.5 -41t37 -18.5q24 0 41.5 12t30.5 29t23 36.5t20 34.5v-118q-6 -18 -15 -35.5
t-22 -32t-31 -23.5t-42 -9q-21 0 -35.5 8.5t-26.5 21t-23 27.5t-23.5 27.5t-28.5 21t-38 8.5q-26 0 -44.5 -13t-32 -30.5t-23.5 -36t-20 -28.5v120z" />
    <glyph glyph-name="Odieresis" unicode="&#xd6;" horiz-adv-x="1204" 
d="M599 1296q245 0 376 -137.5t140 -406.5q1 -40 2 -68.5t1 -53t-1 -49t-2 -55.5q-11 -278 -141.5 -411t-374.5 -133q-245 0 -374.5 133t-141.5 411q-1 31 -1.5 55.5t-0.5 49t0.5 53t1.5 68.5q9 269 139.5 406.5t376.5 137.5zM879 485q3 78 4 159t-4 153q-9 157 -75 241
t-205 84t-205.5 -84t-75.5 -241q-5 -72 -4 -153t4 -159q6 -158 74 -244.5t207 -86.5t206.5 86.5t73.5 244.5zM380 1502q0 35 22.5 58.5t57.5 23.5t58 -23.5t23 -58.5q0 -34 -23 -57t-58 -23t-57.5 23t-22.5 57zM632 1502q0 35 22.5 58.5t56.5 23.5q36 0 59 -23.5t23 -58.5
q0 -34 -23 -57t-59 -23q-34 0 -56.5 23t-22.5 57z" />
    <glyph glyph-name="multiply" unicode="&#xd7;" horiz-adv-x="782" 
d="M204 835l188 -189l188 189l121 -121l-188 -189l188 -188l-121 -121l-188 188l-188 -188l-121 121l188 188l-188 189z" />
    <glyph glyph-name="Oslash" unicode="&#xd8;" horiz-adv-x="1138" 
d="M560 1296q60 0 112.5 -8.5t99.5 -25.5l66 147l99 -45l-68 -151q97 -66 149 -181t58 -280q1 -40 2 -68.5t1 -53t-1 -49t-2 -55.5q-11 -278 -141.5 -411t-374.5 -133q-131 0 -227 37l-74 -164l-98 47l76 169q-90 65 -138 177.5t-55 277.5q-1 31 -1.5 55.5t-0.5 49t0.5 53
t1.5 68.5q9 269 139.5 406.5t376.5 137.5zM840 485q3 78 4 159t-4 153q-5 69 -19 123.5t-40 95.5l-371 -825q59 -37 150 -37q139 0 206.5 86.5t73.5 244.5zM279 485q2 -64 14.5 -116.5t35.5 -92.5l367 817q-56 29 -136 29q-139 0 -205.5 -84t-75.5 -241q-5 -72 -4 -153
t4 -159z" />
    <glyph glyph-name="Ugrave" unicode="&#xd9;" horiz-adv-x="1144" 
d="M816 1278h248v-795q0 -123 -33.5 -215.5t-96.5 -153.5t-153.5 -91.5t-204.5 -30.5q-113 0 -203 30.5t-153 91.5t-97 153.5t-34 215.5v795h248v-780q0 -75 13 -136t42 -104t74 -66.5t110 -23.5q69 0 115.5 22.5t74 65.5t39 104t11.5 138v780zM733 1399h-121l-297 162h215z
" />
    <glyph glyph-name="Uacute" unicode="&#xda;" horiz-adv-x="1161" 
d="M816 1278h248v-795q0 -123 -33.5 -215.5t-96.5 -153.5t-153.5 -91.5t-204.5 -30.5q-113 0 -203 30.5t-153 91.5t-97 153.5t-34 215.5v795h248v-780q0 -75 13 -136t42 -104t74 -66.5t110 -23.5q69 0 115.5 22.5t74 65.5t39 104t11.5 138v780zM693 1561h215l-297 -162h-121
z" />
    <glyph glyph-name="Ucircumflex" unicode="&#xdb;" horiz-adv-x="1149" 
d="M816 1278h248v-795q0 -123 -33.5 -215.5t-96.5 -153.5t-153.5 -91.5t-204.5 -30.5q-113 0 -203 30.5t-153 91.5t-97 153.5t-34 215.5v795h248v-780q0 -75 13 -136t42 -104t74 -66.5t110 -23.5q69 0 115.5 22.5t74 65.5t39 104t11.5 138v780zM629 1677l196 -273h-132
l-98 162l-107 -162h-134l206 273h69z" />
    <glyph glyph-name="Udieresis" unicode="&#xdc;" horiz-adv-x="1144" 
d="M816 1278h248v-795q0 -123 -33.5 -215.5t-96.5 -153.5t-153.5 -91.5t-204.5 -30.5q-113 0 -203 30.5t-153 91.5t-97 153.5t-34 215.5v795h248v-780q0 -75 13 -136t42 -104t74 -66.5t110 -23.5q69 0 115.5 22.5t74 65.5t39 104t11.5 138v780zM378 1502q0 35 22.5 58.5
t57.5 23.5t58 -23.5t23 -58.5q0 -34 -23 -57t-58 -23t-57.5 23t-22.5 57zM630 1502q0 35 22.5 58.5t56.5 23.5q36 0 59 -23.5t23 -58.5q0 -34 -23 -57t-59 -23q-34 0 -56.5 23t-22.5 57z" />
    <glyph glyph-name="Yacute" unicode="&#xdd;" horiz-adv-x="864" 
d="M437 678l258 600h244l-385 -754v-524h-236v524l-383 754h244zM519 1561h215l-297 -162h-121z" />
    <glyph glyph-name="Thorn" unicode="&#xde;" horiz-adv-x="1050" 
d="M124 1279h220v-291q80 34 193 34q195 0 298 -100t110 -295q1 -29 2 -61.5t1 -64.5t-1 -61.5t-2 -52.5q-8 -203 -111.5 -300t-296.5 -97q-111 0 -193 32v-282h-220v1539zM719 364q1 26 1.5 65.5t0.5 80.5t-0.5 79t-1.5 62q-6 107 -48.5 164.5t-133.5 57.5
q-90 0 -132 -57.5t-50 -164.5q-1 -24 -1.5 -62t-0.5 -79t0.5 -80.5t1.5 -65.5q5 -108 48.5 -166.5t133.5 -58.5q91 0 134 58.5t48 166.5z" />
    <glyph glyph-name="germandbls" unicode="&#xdf;" horiz-adv-x="1169" 
d="M351 0h-217v915q0 94 33 162.5t90 113t135 66t168 21.5q74 0 143 -15.5t122.5 -52t85.5 -97t32 -150.5q0 -54 -15 -88.5t-37.5 -57t-49 -37.5t-49 -29t-37.5 -31.5t-15 -45.5q0 -26 24.5 -46t61.5 -39.5t81 -42.5t83 -55t67.5 -77t34.5 -109q9 -85 -12 -143.5
t-71.5 -94.5t-130.5 -51.5t-191 -15.5h-92v162h53q62 0 107 6.5t72.5 23.5t37 48t0.5 79q-6 35 -29 62t-54 51t-66 46t-64 47.5t-48 55.5t-19 70q-5 33 5 58t28.5 47t41 43t43 45.5t34 55.5t13.5 73q0 33 -10.5 60t-33.5 46.5t-59.5 30.5t-88.5 12q-56 1 -95.5 -15.5
t-64.5 -52t-37 -90t-12 -130.5z" />
    <glyph glyph-name="agrave" unicode="&#xe0;" horiz-adv-x="1011" 
d="M349 -12q-78 0 -132.5 20t-88.5 56t-49 85.5t-15 108.5t15.5 109t49.5 90t88 68.5t130 45.5q51 11 100 20.5t91.5 17.5t76 14.5t54.5 11.5q0 51 -12 79t-35 41t-57 15t-79 2q-18 0 -43.5 -1t-54 -2.5t-59 -3.5t-59.5 -4q-68 -5 -142 -11l-8 165q117 6 216 10l84 4t78 3.5
t63.5 2.5t39.5 1q97 0 155 -27t89 -78t41 -123.5t10 -162.5v-545h-225v121q-23 -35 -56 -60.5t-74.5 -41.5t-90 -23.5t-101.5 -7.5zM445 446q-85 -24 -132.5 -70t-47.5 -112q0 -33 15.5 -56t37.5 -37.5t47 -21t43 -6.5q63 0 112 21t82.5 55.5t51 80t17.5 93.5v111
q-60 -13 -120.5 -29t-105.5 -29zM655 1115h-121l-297 162h215z" />
    <glyph glyph-name="aacute" unicode="&#xe1;" horiz-adv-x="1001" 
d="M349 -12q-78 0 -132.5 20t-88.5 56t-49 85.5t-15 108.5t15.5 109t49.5 90t88 68.5t130 45.5q51 11 100 20.5t91.5 17.5t76 14.5t54.5 11.5q0 51 -12 79t-35 41t-57 15t-79 2q-18 0 -43.5 -1t-54 -2.5t-59 -3.5t-59.5 -4q-68 -5 -142 -11l-8 165q117 6 216 10l84 4t78 3.5
t63.5 2.5t39.5 1q97 0 155 -27t89 -78t41 -123.5t10 -162.5v-545h-225v121q-23 -35 -56 -60.5t-74.5 -41.5t-90 -23.5t-101.5 -7.5zM445 446q-85 -24 -132.5 -70t-47.5 -112q0 -33 15.5 -56t37.5 -37.5t47 -21t43 -6.5q63 0 112 21t82.5 55.5t51 80t17.5 93.5v111
q-60 -13 -120.5 -29t-105.5 -29zM519 1262h215l-297 -162h-121z" />
    <glyph glyph-name="acircumflex" unicode="&#xe2;" horiz-adv-x="991" 
d="M349 -12q-78 0 -132.5 20t-88.5 56t-49 85.5t-15 108.5t15.5 109t49.5 90t88 68.5t130 45.5q51 11 100 20.5t91.5 17.5t76 14.5t54.5 11.5q0 51 -12 79t-35 41t-57 15t-79 2q-18 0 -43.5 -1t-54 -2.5t-59 -3.5t-59.5 -4q-68 -5 -142 -11l-8 165q117 6 216 10l84 4t78 3.5
t63.5 2.5t39.5 1q97 0 155 -27t89 -78t41 -123.5t10 -162.5v-545h-225v121q-23 -35 -56 -60.5t-74.5 -41.5t-90 -23.5t-101.5 -7.5zM445 446q-85 -24 -132.5 -70t-47.5 -112q0 -33 15.5 -56t37.5 -37.5t47 -21t43 -6.5q63 0 112 21t82.5 55.5t51 80t17.5 93.5v111
q-60 -13 -120.5 -29t-105.5 -29zM537 1318l196 -273h-132l-98 162l-107 -162h-134l206 273h69z" />
    <glyph glyph-name="atilde" unicode="&#xe3;" horiz-adv-x="1001" 
d="M349 -12q-78 0 -132.5 20t-88.5 56t-49 85.5t-15 108.5t15.5 109t49.5 90t88 68.5t130 45.5q51 11 100 20.5t91.5 17.5t76 14.5t54.5 11.5q0 51 -12 79t-35 41t-57 15t-79 2q-18 0 -43.5 -1t-54 -2.5t-59 -3.5t-59.5 -4q-68 -5 -142 -11l-8 165q117 6 216 10l84 4t78 3.5
t63.5 2.5t39.5 1q97 0 155 -27t89 -78t41 -123.5t10 -162.5v-545h-225v121q-23 -35 -56 -60.5t-74.5 -41.5t-90 -23.5t-101.5 -7.5zM445 446q-85 -24 -132.5 -70t-47.5 -112q0 -33 15.5 -56t37.5 -37.5t47 -21t43 -6.5q63 0 112 21t82.5 55.5t51 80t17.5 93.5v111
q-60 -13 -120.5 -29t-105.5 -29zM308 1204q11 15 22.5 32.5t25 32.5t31 25t41.5 10q32 0 55.5 -19t42 -41.5t35.5 -41t37 -18.5q24 0 41.5 12t30.5 29t23 36.5t20 34.5v-118q-6 -18 -15 -35.5t-22 -32t-31 -23.5t-42 -9q-20 0 -35 8.5t-27 21t-23 27.5t-23.5 27.5t-28.5 21
t-38 8.5q-26 0 -44.5 -13t-32 -30.5t-23.5 -36t-20 -28.5v120z" />
    <glyph glyph-name="adieresis" unicode="&#xe4;" horiz-adv-x="995" 
d="M349 -12q-78 0 -132.5 20t-88.5 56t-49 85.5t-15 108.5t15.5 109t49.5 90t88 68.5t130 45.5q51 11 100 20.5t91.5 17.5t76 14.5t54.5 11.5q0 51 -12 79t-35 41t-57 15t-79 2q-18 0 -43.5 -1t-54 -2.5t-59 -3.5t-59.5 -4q-68 -5 -142 -11l-8 165q117 6 216 10l84 4t78 3.5
t63.5 2.5t39.5 1q97 0 155 -27t89 -78t41 -123.5t10 -162.5v-545h-225v121q-23 -35 -56 -60.5t-74.5 -41.5t-90 -23.5t-101.5 -7.5zM445 446q-85 -24 -132.5 -70t-47.5 -112q0 -33 15.5 -56t37.5 -37.5t47 -21t43 -6.5q63 0 112 21t82.5 55.5t51 80t17.5 93.5v111
q-60 -13 -120.5 -29t-105.5 -29zM276 1181q0 35 22.5 58.5t57.5 23.5t58 -23.5t23 -58.5q0 -34 -23 -57t-58 -23t-57.5 23t-22.5 57zM528 1181q0 35 22.5 58.5t56.5 23.5q36 0 59 -23.5t23 -58.5q0 -34 -23 -57t-59 -23q-34 0 -56.5 23t-22.5 57z" />
    <glyph glyph-name="aring" unicode="&#xe5;" horiz-adv-x="1005" 
d="M269 1259q0 46 18 87.5t48.5 72.5t72 49.5t88.5 18.5q46 0 87.5 -18.5t72.5 -49.5t49 -72.5t18 -87.5q0 -47 -18 -88t-49 -72t-72.5 -49t-87.5 -18q-47 0 -88.5 18t-72 49t-48.5 72t-18 88zM360 1259q0 -28 11 -52.5t29.5 -43t43 -29t52.5 -10.5t53 10.5t43.5 29t29 43
t10.5 52.5q0 29 -10.5 54t-29 43.5t-43.5 29t-53 10.5t-52.5 -10.5t-43 -29t-29.5 -43.5t-11 -54zM349 -12q-78 0 -132.5 20t-88.5 56t-49 85.5t-15 108.5t15.5 109t49.5 90t88 68.5t130 45.5q51 11 100 20.5t91.5 17.5t76 14.5t54.5 11.5q0 51 -12 79t-35 41t-57 15t-79 2
q-18 0 -43.5 -1t-54 -2.5t-59 -3.5t-59.5 -4q-68 -5 -142 -11l-8 165q117 6 216 10l84 4t78 3.5t63.5 2.5t39.5 1q97 0 155 -27t89 -78t41 -123.5t10 -162.5v-545h-225v121q-23 -35 -56 -60.5t-74.5 -41.5t-90 -23.5t-101.5 -7.5zM445 446q-85 -24 -132.5 -70t-47.5 -112
q0 -33 15.5 -56t37.5 -37.5t47 -21t43 -6.5q63 0 112 21t82.5 55.5t51 80t17.5 93.5v111q-60 -13 -120.5 -29t-105.5 -29z" />
    <glyph glyph-name="ae" unicode="&#xe6;" horiz-adv-x="1540" 
d="M1430 250q-8 -68 -40 -118t-82 -82.5t-114 -48t-135 -15.5q-52 0 -99 10.5t-87 33t-72 57t-54 82.5q-36 -50 -76.5 -84.5t-88.5 -56.5t-105.5 -31.5t-128.5 -8.5q-74 1 -124.5 21t-82.5 56t-46 85t-14 108t14.5 109t46.5 90t82.5 68.5t122.5 45.5q48 11 94 20.5
t85.5 17.5t71 14.5t51.5 11.5q0 51 -11 79t-33 41t-54 15t-74 2q-17 0 -41 -1t-51 -2.5t-55.5 -3.5t-55.5 -4q-64 -5 -133 -11l-8 165q111 6 203 10q39 2 78.5 4t73.5 3.5t59.5 2.5t37.5 1q37 0 66.5 -8.5t53 -23t42 -33t34.5 -38.5q20 24 50 44.5t66.5 36.5t77.5 25t84 9
q93 0 166 -27t123 -80t76.5 -131t26.5 -180q0 -29 -0.5 -50.5t-0.5 -39t-0.5 -31.5t-0.5 -28h-573q1 -58 14 -105t36 -80t56.5 -50.5t76.5 -17.5q64 0 99 33.5t43 88.5h229zM439 446q-80 -24 -124.5 -70t-44.5 -112q0 -33 14.5 -56t35.5 -37.5t44 -21t40 -6.5q59 0 105 21
t77.5 55.5t48 80t16.5 93.5v111q-57 -13 -113.5 -29t-98.5 -29zM1059 806q-52 0 -87 -22.5t-56.5 -60.5t-31 -88.5t-10.5 -105.5h360q0 48 -6 96t-25 87t-53 65t-91 29z" />
    <glyph glyph-name="ccedilla" unicode="&#xe7;" horiz-adv-x="975" 
d="M892 301q-9 -86 -36 -146t-75 -97.5t-119 -54.5t-170 -17q-191 0 -295.5 97t-113.5 300q-2 23 -2.5 40.5t-0.5 35t0.5 38.5t2.5 50q3 97 31.5 170.5t80.5 123.5t127 75.5t170 25.5q93 0 163 -17.5t118.5 -55t77.5 -95t41 -137.5h-240q-9 78 -53.5 117t-106.5 39
q-44 0 -74.5 -13t-50.5 -39.5t-30.5 -66t-14.5 -92.5q-2 -48 -2 -103.5t2 -107.5q3 -54 13 -97.5t30.5 -74.5t51.5 -47.5t75 -16.5q73 0 113.5 45.5t48.5 120.5h238zM364 -347v84h95q35 0 50 13.5t13.5 29.5t-17 29.5t-40.5 13.5h-115q-38 0 -56 23.5t-16.5 54t22 60.5
t60.5 42q-28 -40 -20 -70t51 -30h115q31 0 54 -18.5t34.5 -46.5t10.5 -60t-17.5 -60t-49 -46.5t-83.5 -18.5h-91z" />
    <glyph glyph-name="egrave" unicode="&#xe8;" horiz-adv-x="991" 
d="M894 248q-8 -68 -42 -117t-87.5 -81.5t-121.5 -48t-144 -15.5q-200 0 -303.5 97t-116.5 300q-2 23 -2.5 40.5t-0.5 35t0.5 38.5t2.5 50q10 195 114.5 295t305.5 100q99 0 176.5 -27t131 -79.5t81.5 -130t28 -178.5v-100.5t-2 -47.5h-610q1 -58 14.5 -104.5t38.5 -79.5
t60.5 -50.5t81.5 -17.5q68 0 105 33.5t46 87.5h244zM499 801q-56 0 -93 -22.5t-60 -60t-33 -87.5t-11 -105h383q0 47 -6.5 94.5t-26 86.5t-56.5 65t-97 29zM661 1083h-121l-297 162h215z" />
    <glyph glyph-name="eacute" unicode="&#xe9;" horiz-adv-x="987" 
d="M894 248q-8 -68 -42 -117t-87.5 -81.5t-121.5 -48t-144 -15.5q-200 0 -303.5 97t-116.5 300q-2 23 -2.5 40.5t-0.5 35t0.5 38.5t2.5 50q10 195 114.5 295t305.5 100q99 0 176.5 -27t131 -79.5t81.5 -130t28 -178.5v-100.5t-2 -47.5h-610q1 -58 14.5 -104.5t38.5 -79.5
t60.5 -50.5t81.5 -17.5q68 0 105 33.5t46 87.5h244zM499 801q-56 0 -93 -22.5t-60 -60t-33 -87.5t-11 -105h383q0 47 -6.5 94.5t-26 86.5t-56.5 65t-97 29zM530 1251h215l-297 -162h-121z" />
    <glyph glyph-name="ecircumflex" unicode="&#xea;" horiz-adv-x="987" 
d="M894 248q-8 -68 -42 -117t-87.5 -81.5t-121.5 -48t-144 -15.5q-200 0 -303.5 97t-116.5 300q-2 23 -2.5 40.5t-0.5 35t0.5 38.5t2.5 50q10 195 114.5 295t305.5 100q99 0 176.5 -27t131 -79.5t81.5 -130t28 -178.5v-100.5t-2 -47.5h-610q1 -58 14.5 -104.5t38.5 -79.5
t60.5 -50.5t81.5 -17.5q68 0 105 33.5t46 87.5h244zM499 801q-56 0 -93 -22.5t-60 -60t-33 -87.5t-11 -105h383q0 47 -6.5 94.5t-26 86.5t-56.5 65t-97 29zM525 1329l196 -273h-132l-98 162l-107 -162h-134l206 273h69z" />
    <glyph glyph-name="edieresis" unicode="&#xeb;" horiz-adv-x="987" 
d="M894 248q-8 -68 -42 -117t-87.5 -81.5t-121.5 -48t-144 -15.5q-200 0 -303.5 97t-116.5 300q-2 23 -2.5 40.5t-0.5 35t0.5 38.5t2.5 50q10 195 114.5 295t305.5 100q99 0 176.5 -27t131 -79.5t81.5 -130t28 -178.5v-100.5t-2 -47.5h-610q1 -58 14.5 -104.5t38.5 -79.5
t60.5 -50.5t81.5 -17.5q68 0 105 33.5t46 87.5h244zM499 801q-56 0 -93 -22.5t-60 -60t-33 -87.5t-11 -105h383q0 47 -6.5 94.5t-26 86.5t-56.5 65t-97 29zM282 1148q0 35 22.5 58.5t57.5 23.5t58 -23.5t23 -58.5q0 -34 -23 -57t-58 -23t-57.5 23t-22.5 57zM534 1148
q0 35 22.5 58.5t56.5 23.5q36 0 59 -23.5t23 -58.5q0 -34 -23 -57t-59 -23q-34 0 -56.5 23t-22.5 57z" />
    <glyph glyph-name="igrave" unicode="&#xec;" horiz-adv-x="463" 
d="M388 1085h-121l-297 162h215zM114 0v934h240v-934h-240z" />
    <glyph glyph-name="iacute" unicode="&#xed;" horiz-adv-x="483" 
d="M234 1241h215l-297 -162h-121zM114 0v934h240v-934h-240z" />
    <glyph glyph-name="icircumflex" unicode="&#xee;" horiz-adv-x="467" 
d="M262 1330l196 -273h-132l-98 162l-107 -162h-134l206 273h69zM114 0v934h240v-934h-240z" />
    <glyph glyph-name="idieresis" unicode="&#xef;" horiz-adv-x="473" 
d="M32 1183q0 35 22.5 58.5t57.5 23.5t58 -23.5t23 -58.5q0 -34 -23 -57t-58 -23t-57.5 23t-22.5 57zM284 1183q0 35 22.5 58.5t56.5 23.5q36 0 59 -23.5t23 -58.5q0 -34 -23 -57t-59 -23q-34 0 -56.5 23t-22.5 57zM114 934h240v-934h-240v934z" />
    <glyph glyph-name="eth" unicode="&#xf0;" horiz-adv-x="848" 
d="M546 894q25 -43 48.5 -81t46 -74t43 -72t39.5 -76q24 -51 37 -89.5t18.5 -71.5t5 -64t-2.5 -65q-5 -64 -33 -119t-75 -96t-111.5 -64.5t-140.5 -23.5q-77 0 -142.5 24t-113.5 68.5t-75.5 106.5t-27.5 137q0 73 19 130t51.5 98t75.5 67.5t92 38.5q13 3 34 4.5t44.5 0
t48 -6.5t45.5 -15l-100 150l-130 -81l-42 62l124 84l-93 127l187 110l81 -144l123 76l40 -70zM425 528q-31 0 -58 -13t-47.5 -36.5t-32.5 -56.5t-12 -72q0 -44 11.5 -78.5t31 -59t46.5 -37.5t59 -13q75 0 121.5 49.5t46.5 136.5q0 42 -14 75.5t-37.5 57t-53.5 35.5t-61 12z
" />
    <glyph glyph-name="ntilde" unicode="&#xf1;" horiz-adv-x="1061" 
d="M750 532q0 59 -15.5 105.5t-43.5 78t-68 48t-88 16.5q-96 0 -150 -64.5t-54 -183.5v-532h-228v928h228v-123q34 62 98 96.5t166 34.5q104 0 175.5 -30t116 -82.5t64 -122.5t19.5 -150v-551h-220v532zM357 1173q11 15 22.5 32.5t25 32.5t31 25t41.5 10q32 0 55.5 -19
t42 -41.5t35.5 -41t37 -18.5q24 0 41.5 12t30.5 29t23 36.5t20 34.5v-118q-6 -18 -15 -35.5t-22 -32t-31 -23.5t-42 -9q-21 0 -35.5 8.5t-26.5 21t-23 27.5t-23.5 27.5t-28.5 21t-38 8.5q-26 0 -44.5 -13t-32 -30.5t-23.5 -36t-20 -28.5v120z" />
    <glyph glyph-name="ograve" unicode="&#xf2;" horiz-adv-x="970" 
d="M894 547q1 -29 2 -50t1 -38.5t-1 -35t-2 -40.5q-8 -203 -111.5 -300t-296.5 -97q-194 0 -296 97t-111 300q-1 23 -1.5 40.5t-0.5 35t0.5 38.5t1.5 50q6 195 109 295t298 100t298 -100t110 -295zM668 360q2 53 2.5 108t-2.5 103q-6 107 -48.5 164.5t-133.5 57.5
q-90 0 -132 -57.5t-50 -164.5q-2 -48 -2 -103t2 -108q5 -108 48.5 -166.5t133.5 -58.5q91 0 134 58.5t48 166.5zM640 1067h-121l-297 162h215z" />
    <glyph glyph-name="oacute" unicode="&#xf3;" horiz-adv-x="975" 
d="M894 547q1 -29 2 -50t1 -38.5t-1 -35t-2 -40.5q-8 -203 -111.5 -300t-296.5 -97q-194 0 -296 97t-111 300q-1 23 -1.5 40.5t-0.5 35t0.5 38.5t1.5 50q6 195 109 295t298 100t298 -100t110 -295zM668 360q2 53 2.5 108t-2.5 103q-6 107 -48.5 164.5t-133.5 57.5
q-90 0 -132 -57.5t-50 -164.5q-2 -48 -2 -103t2 -108q5 -108 48.5 -166.5t133.5 -58.5q91 0 134 58.5t48 166.5zM499 1209h215l-297 -162h-121z" />
    <glyph glyph-name="ocircumflex" unicode="&#xf4;" horiz-adv-x="970" 
d="M894 547q1 -29 2 -50t1 -38.5t-1 -35t-2 -40.5q-8 -203 -111.5 -300t-296.5 -97q-194 0 -296 97t-111 300q-1 23 -1.5 40.5t-0.5 35t0.5 38.5t1.5 50q6 195 109 295t298 100t298 -100t110 -295zM668 360q2 53 2.5 108t-2.5 103q-6 107 -48.5 164.5t-133.5 57.5
q-90 0 -132 -57.5t-50 -164.5q-2 -48 -2 -103t2 -108q5 -108 48.5 -166.5t133.5 -58.5q91 0 134 58.5t48 166.5zM518 1315l196 -273h-132l-98 162l-107 -162h-134l206 273h69z" />
    <glyph glyph-name="otilde" unicode="&#xf5;" horiz-adv-x="975" 
d="M894 547q1 -29 2 -50t1 -38.5t-1 -35t-2 -40.5q-8 -203 -111.5 -300t-296.5 -97q-194 0 -296 97t-111 300q-1 23 -1.5 40.5t-0.5 35t0.5 38.5t1.5 50q6 195 109 295t298 100t298 -100t110 -295zM668 360q2 53 2.5 108t-2.5 103q-6 107 -48.5 164.5t-133.5 57.5
q-90 0 -132 -57.5t-50 -164.5q-2 -48 -2 -103t2 -108q5 -108 48.5 -166.5t133.5 -58.5q91 0 134 58.5t48 166.5zM293 1171q11 15 22.5 32.5t25 32.5t31 25t41.5 10q32 0 55.5 -19t42 -41.5t35.5 -41t37 -18.5q24 0 41.5 12t30.5 29t23 36.5t20 34.5v-118q-6 -18 -15 -35.5
t-22 -32t-31 -23.5t-42 -9q-20 0 -35 8.5t-27 21t-23 27.5t-23.5 27.5t-28.5 21t-38 8.5q-26 0 -44.5 -13t-32 -30.5t-23.5 -36t-20 -28.5v120z" />
    <glyph glyph-name="odieresis" unicode="&#xf6;" horiz-adv-x="970" 
d="M894 547q1 -29 2 -50t1 -38.5t-1 -35t-2 -40.5q-8 -203 -111.5 -300t-296.5 -97q-194 0 -296 97t-111 300q-1 23 -1.5 40.5t-0.5 35t0.5 38.5t1.5 50q6 195 109 295t298 100t298 -100t110 -295zM668 360q2 53 2.5 108t-2.5 103q-6 107 -48.5 164.5t-133.5 57.5
q-90 0 -132 -57.5t-50 -164.5q-2 -48 -2 -103t2 -108q5 -108 48.5 -166.5t133.5 -58.5q91 0 134 58.5t48 166.5zM286 1163q0 35 22.5 58.5t57.5 23.5t58 -23.5t23 -58.5q0 -34 -23 -57t-58 -23t-57.5 23t-22.5 57zM538 1163q0 35 22.5 58.5t56.5 23.5q36 0 59 -23.5
t23 -58.5q0 -34 -23 -57t-59 -23q-34 0 -56.5 23t-22.5 57z" />
    <glyph glyph-name="divide" unicode="&#xf7;" horiz-adv-x="709" 
d="M222 719v260h256v-260h-256zM224 0v260h256v-260h-256zM26 591h641v-194h-641v194z" />
    <glyph glyph-name="oslash" unicode="&#xf8;" horiz-adv-x="917" 
d="M861 547q1 -29 2 -50t1 -38.5t-1 -35t-2 -40.5q-8 -203 -111.5 -300t-296.5 -97q-48 0 -89 5.5t-77 16.5l-59 -133l-67 33l57 130q-162 91 -172 345q-1 23 -1.5 40.5t-0.5 35t0.5 38.5t1.5 50q6 195 109 295t298 100q86 0 155 -21l44 99l68 -31l-42 -96q174 -91 183 -346
zM635 360q2 53 2.5 108t-2.5 103q-3 45 -11.5 81t-24.5 64l-245 -555q40 -26 99 -26q91 0 134 58.5t48 166.5zM271 360q3 -82 30 -136l242 548q-38 21 -90 21q-90 0 -132 -57.5t-50 -164.5q-2 -48 -2 -103t2 -108z" />
    <glyph glyph-name="ugrave" unicode="&#xf9;" horiz-adv-x="1018" 
d="M679 113q-29 -57 -85 -89t-147 -32q-98 0 -162 30t-102.5 82.5t-54 122.5t-15.5 150v551h213v-533q0 -120 39.5 -179.5t128.5 -59.5q45 0 79.5 18.5t58 53t35.5 83.5t12 109v508h213v-928h-213v113zM653 1084h-121l-297 162h215z" />
    <glyph glyph-name="uacute" unicode="&#xfa;" horiz-adv-x="1028" 
d="M679 113q-29 -57 -85 -89t-147 -32q-98 0 -162 30t-102.5 82.5t-54 122.5t-15.5 150v551h213v-533q0 -120 39.5 -179.5t128.5 -59.5q45 0 79.5 18.5t58 53t35.5 83.5t12 109v508h213v-928h-213v113zM546 1244h215l-297 -162h-121z" />
    <glyph glyph-name="ucircumflex" unicode="&#xfb;" horiz-adv-x="1022" 
d="M679 113q-29 -57 -85 -89t-147 -32q-98 0 -162 30t-102.5 82.5t-54 122.5t-15.5 150v551h213v-533q0 -120 39.5 -179.5t128.5 -59.5q45 0 79.5 18.5t58 53t35.5 83.5t12 109v508h213v-928h-213v113zM550 1355l196 -273h-132l-98 162l-107 -162h-134l206 273h69z" />
    <glyph glyph-name="udieresis" unicode="&#xfc;" horiz-adv-x="1032" 
d="M679 113q-29 -57 -85 -89t-147 -32q-98 0 -162 30t-102.5 82.5t-54 122.5t-15.5 150v551h213v-533q0 -120 39.5 -179.5t128.5 -59.5q45 0 79.5 18.5t58 53t35.5 83.5t12 109v508h213v-928h-213v113zM305 1177q0 35 22.5 58.5t57.5 23.5t58 -23.5t23 -58.5q0 -34 -23 -57
t-58 -23t-57.5 23t-22.5 57zM557 1177q0 35 22.5 58.5t56.5 23.5q36 0 59 -23.5t23 -58.5q0 -34 -23 -57t-59 -23q-34 0 -56.5 23t-22.5 57z" />
    <glyph glyph-name="yacute" unicode="&#xfd;" horiz-adv-x="757" 
d="M184 -260l133 387l-326 801h242l178 -525l135 525h236l-375 -1188h-223zM438 1232h215l-297 -162h-121z" />
    <glyph glyph-name="thorn" unicode="&#xfe;" horiz-adv-x="871" 
d="M126 1062h180v-263q32 28 74.5 42t87.5 14q159 0 239 -80.5t86 -235.5q3 -68 -14 -128t-56.5 -104.5t-102.5 -70.5t-152 -26q-45 0 -87.5 13.5t-74.5 40.5v-264h-180v1062zM460 329q50 0 80.5 19.5t46.5 51.5t20.5 72t1.5 82q-5 85 -40 133t-109 48q-73 0 -110.5 -50
t-37.5 -147q0 -65 9.5 -105.5t28 -63.5t46.5 -31.5t64 -8.5z" />
    <glyph glyph-name="ydieresis" unicode="&#xff;" horiz-adv-x="772" 
d="M298 127l-326 801h242l168 -588l145 588h236l-375 -1188h-223zM190 1161q0 35 22.5 58.5t57.5 23.5t58 -23.5t23 -58.5q0 -34 -23 -57t-58 -23t-57.5 23t-22.5 57zM442 1161q0 35 22.5 58.5t56.5 23.5q36 0 59 -23.5t23 -58.5q0 -34 -23 -57t-59 -23q-34 0 -56.5 23
t-22.5 57z" />
    <glyph glyph-name="OE" unicode="&#x152;" horiz-adv-x="1757" 
d="M595 1296q123 0 203.5 -47t134.5 -135v164h656v-182h-457v-322h387v-180h-387v-414h457v-180h-656v159q-53 -87 -134 -132t-204 -45q-227 0 -347.5 133t-131.5 411q-1 31 -1.5 55.5t-0.5 49t0.5 53t1.5 68.5q8 267 130 405.5t349 138.5zM866 485q2 78 3 159t-3 153
q-9 157 -75 241t-196 84q-128 0 -190 -84t-71 -241q-4 -72 -3 -153t3 -159q6 -158 69.5 -244.5t191.5 -86.5q130 0 197.5 86.5t73.5 244.5z" />
    <glyph glyph-name="oe" unicode="&#x153;" horiz-adv-x="1546" 
d="M1475 248q-8 -68 -40.5 -117t-83.5 -81.5t-116.5 -48t-138.5 -15.5q-51 0 -96.5 13.5t-84 37.5t-69.5 56.5t-52 71.5q-22 -39 -54 -71.5t-71.5 -56.5t-85.5 -37.5t-97 -13.5q-194 0 -296 97t-111 300q-1 23 -1.5 40.5t-0.5 35t0.5 38.5t1.5 50q6 195 109 295t298 100
q51 0 97 -14t85 -38t71 -57.5t54 -72.5q22 39 53 72.5t70 57.5t84.5 38t95.5 14q190 0 294.5 -105.5t104.5 -319.5l-1 -138h-587q1 -58 14.5 -104.5t37.5 -79.5t58.5 -50.5t78.5 -17.5q66 0 101.5 33.5t43.5 87.5h234zM671 360q3 53 3 108t-3 103q-6 107 -50 164.5
t-135 57.5q-90 0 -133 -57.5t-49 -164.5q-3 -48 -2.5 -103t2.5 -108q5 -108 48.5 -166.5t133.5 -58.5q91 0 134.5 58.5t50.5 166.5zM1096 801q-53 0 -89 -22.5t-58.5 -60t-32.5 -87.5t-11 -105h370q0 47 -6 94.5t-25 86.5t-54.5 65t-93.5 29z" />
    <glyph glyph-name="Scaron" unicode="&#x160;" horiz-adv-x="1046" 
d="M448 1385l-234 236h176l133 -174l129 174h176l-231 -236h-149zM504 1296q111 0 194.5 -26.5t138.5 -76.5t81.5 -121t24.5 -159h-226q0 45 -13.5 87t-39.5 73.5t-66 50.5t-92 19q-38 0 -72.5 -11.5t-60 -32.5t-40.5 -49.5t-15 -62.5t10.5 -61.5t36 -53.5t69 -52.5
t109.5 -57.5q102 -47 175.5 -91t121 -95t70 -113.5t22.5 -145.5q0 -77 -33 -138t-91.5 -104.5t-139 -66.5t-176.5 -23q-78 0 -151 17t-130.5 59.5t-93.5 115t-39 183.5h226q0 -57 16 -96.5t42.5 -65t60.5 -37t69 -11.5q99 0 152 47.5t53 134.5q0 46 -16.5 81t-46.5 62.5
t-71.5 50.5t-90.5 45q-92 43 -163.5 85t-120.5 90.5t-75 106t-26 132.5q0 67 29 124t83.5 98.5t131.5 65t173 23.5z" />
    <glyph glyph-name="scaron" unicode="&#x161;" horiz-adv-x="788" 
d="M332 1041l-233 235h176l133 -174l129 174h176l-231 -235h-150zM410 131q53 0 83.5 21.5t35.5 70.5q2 25 -5 47t-26 42.5t-51.5 40.5t-81.5 42q-61 27 -119 56t-101 66.5t-65.5 86.5t-13.5 117q6 49 30.5 90t67 70.5t102.5 46t138 16.5t144 -16.5t114 -49.5t74 -84
t25 -120h-217q0 27 -6.5 49.5t-21.5 39t-39.5 25.5t-61.5 9q-63 0 -92 -25.5t-29 -79.5q0 -28 12 -47t35.5 -35.5t57.5 -32t79 -36.5q51 -25 101 -53.5t89 -64.5t63 -81.5t24 -105.5q0 -56 -22.5 -102.5t-67.5 -79.5t-112.5 -51.5t-156.5 -18.5q-81 0 -142.5 21t-104 58.5
t-66.5 90t-29 114.5h232q1 -34 12 -59.5t28 -43t38.5 -26t45.5 -8.5z" />
    <glyph glyph-name="Ydieresis" unicode="&#x178;" horiz-adv-x="923" 
d="M730 1278h244l-385 -754v-524h-236v524l-383 754h244l258 -600zM269 1502q0 35 22.5 58.5t57.5 23.5t58 -23.5t23 -58.5q0 -34 -23 -57t-58 -23t-57.5 23t-22.5 57zM521 1502q0 35 22.5 58.5t56.5 23.5q36 0 59 -23.5t23 -58.5q0 -34 -23 -57t-59 -23q-34 0 -56.5 23
t-22.5 57z" />
    <glyph glyph-name="Zcaron" unicode="&#x17d;" horiz-adv-x="868" 
d="M322 1391l-233 235h176l133 -174l129 174h176l-231 -235h-150zM851 1278l-510 -1100h485v-178h-803l510 1104h-485v174h803z" />
    <glyph glyph-name="zcaron" unicode="&#x17e;" horiz-adv-x="688" 
d="M322 1041l-233 235h176l133 -174l129 174h176l-231 -235h-150zM662 0h-657l362 758h-337v170h657l-363 -751h338v-177z" />
    <glyph glyph-name="florin" unicode="&#x192;" horiz-adv-x="641" 
d="M157 711h-144v159h144v144q0 82 21.5 133.5t55.5 80.5t75 39.5t79 10.5h209v-154h-139q-42 0 -71.5 -33.5t-29.5 -107.5v-113h193v-159h-195v-793q0 -81 -14 -136t-42 -88.5t-69.5 -48t-95.5 -14.5h-135v158h69q31 0 48.5 12t26.5 33.5t11.5 52t2.5 68.5v756z" />
    <glyph glyph-name="circumflex" unicode="&#x2c6;" horiz-adv-x="640" 
d="M363 1446l196 -273h-132l-98 162l-107 -162h-134l206 273h69z" />
    <glyph glyph-name="tilde" unicode="&#x2dc;" horiz-adv-x="563" 
d="M77 1286q11 15 22.5 32.5t25 32.5t31 25t41.5 10q32 0 55.5 -19t42 -41.5t35.5 -41t37 -18.5q24 0 41.5 12t30.5 29t23 36.5t20 34.5v-118q-6 -18 -15 -35.5t-22 -32t-31 -23.5t-42 -9q-20 0 -35 8.5t-27 21t-23 27.5t-23.5 27.5t-28.5 21t-38 8.5q-26 0 -44.5 -13
t-32 -30.5t-23.5 -36t-20 -28.5v120z" />
    <glyph glyph-name="sheva" unicode="&#x5b0;" 
d="M-77 -206q0 32 22.5 54.5t54.5 22.5t55 -22.5t23 -54.5t-23 -55t-55 -23t-54.5 23t-22.5 55zM-77 -446q0 32 22.5 54.5t54.5 22.5t55 -22.5t23 -54.5t-23 -55t-55 -23t-54.5 23t-22.5 55z" />
    <glyph glyph-name="hatafsegol" unicode="&#x5b1;" 
d="M243 -206q0 32 22.5 54.5t54.5 22.5t55 -22.5t23 -54.5t-23 -55t-55 -23t-54.5 23t-22.5 55zM243 -446q0 32 22.5 54.5t54.5 22.5t55 -22.5t23 -54.5t-23 -55t-55 -23t-54.5 23t-22.5 55zM-37 -206q0 32 22.5 54.5t54.5 22.5t55 -22.5t23 -54.5t-23 -55t-55 -23t-54.5 23
t-22.5 55zM-307 -206q0 32 22.5 54.5t54.5 22.5t55 -22.5t23 -54.5t-23 -55t-55 -23t-54.5 23t-22.5 55zM-171 -410q0 32 22.5 54.5t54.5 22.5t55 -22.5t23 -54.5t-23 -55t-55 -23t-54.5 23t-22.5 55z" />
    <glyph glyph-name="hatafpatah" unicode="&#x5b2;" 
d="M243 -206q0 32 22.5 54.5t54.5 22.5t55 -22.5t23 -54.5t-23 -55t-55 -23t-54.5 23t-22.5 55zM243 -446q0 32 22.5 54.5t54.5 22.5t55 -22.5t23 -54.5t-23 -55t-55 -23t-54.5 23t-22.5 55zM-302 -251v102h424v-102h-424z" />
    <glyph glyph-name="hatafqamats" unicode="&#x5b3;" 
d="M243 -206q0 32 22.5 54.5t54.5 22.5t55 -22.5t23 -54.5t-23 -55t-55 -23t-54.5 23t-22.5 55zM243 -446q0 32 22.5 54.5t54.5 22.5t55 -22.5t23 -54.5t-23 -55t-55 -23t-54.5 23t-22.5 55zM-146 -439v188h-156v102h424v-102h-154v-188h-114z" />
    <glyph glyph-name="hiriq" unicode="&#x5b4;" 
d="M1 -140q19 0 36.5 -7.5t30.5 -20t20.5 -30t7.5 -37.5q0 -21 -7.5 -38t-20.5 -30t-30.5 -20t-36.5 -7q-42 0 -69.5 26.5t-27.5 68.5q0 17 6 34t18.5 30.5t30.5 22t42 8.5z" />
    <glyph glyph-name="tsere" unicode="&#x5b5;" 
d="M-130 -141q28 0 57 -21q27 -23 27 -63q0 -35 -24.5 -59.5t-59.5 -24.5q-39 0 -61.5 23.5t-22.5 60.5q0 36 23.5 60t60.5 24zM130 -141q21 0 36.5 -7.5t26 -19.5t16 -27t5.5 -30q0 -37 -23 -60.5t-61 -23.5q-14 0 -29 5.5t-27 16.5t-20 26.5t-8 35.5q0 16 6 31t17 27
t26.5 19t34.5 7z" />
    <glyph glyph-name="segol" unicode="&#x5b6;" 
d="M-130 -140q28 0 57 -21q27 -23 27 -63q0 -35 -24.5 -59.5t-59.5 -24.5q-39 0 -61.5 23.5t-22.5 60.5t23.5 60.5t60.5 23.5zM130 -140q21 0 36.5 -7.5t26 -19.5t16 -27t5.5 -30q0 -37 -23 -60.5t-61 -23.5q-14 0 -29 5.5t-27 16.5t-20 26.5t-8 35.5q0 16 6 31t17 27
t26.5 19t34.5 7zM1 -351q35 0 59.5 -24.5t24.5 -59.5q0 -18 -6.5 -33t-18 -26.5t-27 -18t-32.5 -6.5q-37 0 -61.5 24.5t-24.5 59.5t24.5 59.5t61.5 24.5z" />
    <glyph glyph-name="patah" unicode="&#x5b7;" 
d="M394 -251v102h424v-102h-424z" />
    <glyph glyph-name="qamats" unicode="&#x5b8;" 
d="M-56 -439v188h-156v102h424v-102h-154v-188h-114z" />
    <glyph glyph-name="holam" unicode="&#x5b9;" 
d="M-82 1248q0 37 25 62t62 25t62.5 -25t25.5 -62t-25.5 -62.5t-62.5 -25.5t-62 25.5t-25 62.5z" />
    <glyph glyph-name="qubuts" unicode="&#x5bb;" 
d="M-76 -326q0 32 22.5 54.5t54.5 22.5t55 -22.5t23 -54.5t-23 -55t-55 -23t-54.5 23t-22.5 55zM84 -456q0 32 22.5 54.5t54.5 22.5t55 -22.5t23 -54.5t-23 -55t-55 -23t-54.5 23t-22.5 55zM-236 -196q0 32 22.5 54.5t54.5 22.5t55 -22.5t23 -54.5t-23 -55t-55 -23t-54.5 23
t-22.5 55z" />
    <glyph glyph-name="dagesh" unicode="&#x5bc;" 
d="M0 662q15 0 30 -5.5t27 -16.5t19.5 -26.5t7.5 -35.5q0 -35 -24.5 -59.5t-59.5 -24.5t-59.5 23.5t-24.5 60.5q0 15 5.5 30t16 27t26 19.5t36.5 7.5z" />
    <glyph glyph-name="meteg" unicode="&#x5bd;" 
d="M-52 -111h104v-379h-104v379z" />
    <glyph glyph-name="maqaf" unicode="&#x5be;" horiz-adv-x="630" 
d="M60 1060h502v-191h-502v191z" />
    <glyph glyph-name="paseq" unicode="&#x5c0;" 
d="M-97 -1v1277h195v-1277h-195z" />
    <glyph glyph-name="shindot" unicode="&#x5c1;" 
d="M-82 1248q0 37 25 62t62 25t62.5 -25t25.5 -62t-25.5 -62.5t-62.5 -25.5t-62 25.5t-25 62.5z" />
    <glyph glyph-name="sindot" unicode="&#x5c2;" 
d="M-82 1248q0 37 25 62t62 25t62.5 -25t25.5 -62t-25.5 -62.5t-62.5 -25.5t-62 25.5t-25 62.5z" />
    <glyph glyph-name="alef" unicode="&#x5d0;" horiz-adv-x="1192" 
d="M824 0l-375 580q-31 -9 -50 -21.5t-29.5 -31t-14 -46t-3.5 -67.5v-414h-242v354q0 63 11.5 122.5t39 108t74.5 82.5t118 46l-235 348h264l323 -489q40 3 66 14.5t41.5 32t21.5 50t6 68.5v324h240v-299q0 -78 -19 -137.5t-54.5 -101.5t-85.5 -67.5t-112 -35.5l288 -420
h-273z" />
    <glyph glyph-name="bet" unicode="&#x5d1;" horiz-adv-x="1012" 
d="M945 195v-195h-856l2 195h481v671h-477v195h729v-866h121v0z" />
    <glyph glyph-name="gimel" unicode="&#x5d2;" horiz-adv-x="747" 
d="M425 279q-11 -73 -39 -126t-69.5 -87t-96 -50t-117.5 -16h-59v225h108q71 0 119 26t76 72.5t36.5 110t0.5 139.5q-5 39 -11.5 90t-12.5 96q-7 53 -15 107h-209v195h418l143 -1061h-222l-42 279h-8z" />
    <glyph glyph-name="dalet" unicode="&#x5d3;" horiz-adv-x="1001" 
d="M542 0v866h-494v195h869v-195h-117v-866h-258v0z" />
    <glyph glyph-name="he" unicode="&#x5d4;" horiz-adv-x="1122" 
d="M128 0v572h252v-572h-252zM120 1061h878v-1061h-254v866h-624v195z" />
    <glyph glyph-name="vav" unicode="&#x5d5;" horiz-adv-x="559" 
d="M149 1061h258v-1061h-258v1061v0z" />
    <glyph glyph-name="zayin" unicode="&#x5d6;" horiz-adv-x="811" 
d="M349 0q-22 102 -43 199q-9 41 -18.5 85t-18.5 86.5t-17.5 81t-14.5 68.5q-13 59 -15 113.5t9.5 99.5t39 79.5t72.5 53.5h-275v195h654v-195h-183q-39 -26 -54.5 -64t-16.5 -81.5t7.5 -88t17.5 -83.5q9 -40 18.5 -85t20 -90.5l21 -91t19.5 -87.5q22 -98 43 -195h-266v0z
" />
    <glyph glyph-name="het" unicode="&#x5d7;" horiz-adv-x="1210" 
d="M731 1061q108 0 175.5 -32.5t105.5 -91.5t51.5 -143t13.5 -186v-608h-254v592q0 59 -6 109.5t-25 87t-53 57t-90 20.5h-240v-866h-252v1061h574z" />
    <glyph glyph-name="tet" unicode="&#x5d8;" horiz-adv-x="1173" 
d="M1062 1061v-512q0 -155 -37 -260t-103.5 -169t-159.5 -92t-204 -28h-344l-131 1061h252l108 -866h45q51 0 96 3.5t82 17t66 40.5t49 74t30.5 118t10.5 173v245h-199v195h439z" />
    <glyph glyph-name="yod" unicode="&#x5d9;" horiz-adv-x="547" 
d="M150 1061h262v-596h-262v596v0z" />
    <glyph glyph-name="finalkaf" unicode="&#x5da;" horiz-adv-x="868" 
d="M742 1061v-1321h-260v1126h-426v195h686v0z" />
    <glyph glyph-name="kaf" unicode="&#x5db;" horiz-adv-x="950" 
d="M433 1061q217 0 318.5 -104.5t101.5 -321.5v-211q0 -215 -105.5 -319.5t-314.5 -104.5h-336v195h295q53 0 92 13.5t64.5 45.5t38 85t12.5 132v119q0 78 -12 131t-37.5 85.5t-64.5 46t-93 13.5h-299v195h340z" />
    <glyph glyph-name="lamed" unicode="&#x5dc;" horiz-adv-x="929" 
d="M898 1061l-395 -1061h-258l329 866h-504v412h240v-217h588z" />
    <glyph glyph-name="finalmem" unicode="&#x5dd;" horiz-adv-x="1144" 
d="M1037 0h-907v1061h551q101 0 169.5 -25t110 -75t59 -125.5t17.5 -176.5v-659zM802 627q0 54 -3.5 98t-22.5 75.5t-58 49t-111 17.5h-240v-673h435v433z" />
    <glyph glyph-name="mem" unicode="&#x5de;" horiz-adv-x="1132" 
d="M572 195h213v393q0 64 -10 115.5t-35 88t-69 56t-111 19.5h-68l-194 -867h-248l213 866h-172v195h514q120 0 201 -32t130.5 -96.5t70.5 -161t20 -226.5v-545h-455v195z" />
    <glyph glyph-name="finalnun" unicode="&#x5df;" horiz-adv-x="521" 
d="M134 1061h262v-1321h-262v1321v0z" />
    <glyph glyph-name="nun" unicode="&#x5e0;" horiz-adv-x="657" 
d="M207 195q34 0 53 5.5t29 20.5t12.5 43t2.5 73v529h-150v195h398v-786q0 -142 -65 -208.5t-195 -66.5h-244v195h159z" />
    <glyph glyph-name="samekh" unicode="&#x5e1;" horiz-adv-x="1132" 
d="M1033 1061v-512q0 -155 -38.5 -260t-107 -169t-163 -92t-205.5 -28h-313l-121 1061h948zM793 867h-448l88 -673h43q91 0 152 13.5t98 54t52 114.5t15 195v296z" />
    <glyph glyph-name="ayin" unicode="&#x5e2;" horiz-adv-x="1087" 
d="M980 1061v-440q0 -111 -13 -194.5t-53 -149t-115 -116t-199 -95.5q-24 -9 -59.5 -21t-77.5 -25.5t-88.5 -28.5t-91.5 -30q-106 -34 -224 -72l-52 191l283 84l-198 897h258l163 -828q63 24 104.5 48t66 62.5t34.5 98.5t10 156v463h252z" />
    <glyph glyph-name="finalpe" unicode="&#x5e3;" horiz-adv-x="1066" 
d="M958 -260h-258v854q0 78 -7 130.5t-27.5 84t-57.5 44.5t-97 13h-138v-401h-255v596h457q111 0 185 -24t118 -75t62 -129t18 -186v-907z" />
    <glyph glyph-name="pe" unicode="&#x5e4;" horiz-adv-x="1095" 
d="M576 1061q215 0 317.5 -104.5t102.5 -321.5v-211q0 -215 -106 -319.5t-314 -104.5h-442v195h401q52 0 92 12.5t66 43t39.5 82.5t13.5 130v143q0 79 -13 129.5t-39.5 80t-66 40.5t-92.5 11h-150v-386h-253v580h444z" />
    <glyph glyph-name="finaltsadi" unicode="&#x5e5;" horiz-adv-x="979" 
d="M873 1061l1 -283q0 -220 -109.5 -323.5t-315.5 -106.5l129 -608h-245l-283 1321h244l114 -532q60 1 102 11t68.5 37t39 75t12.5 124v285h243z" />
    <glyph glyph-name="tsadi" unicode="&#x5e6;" horiz-adv-x="1116" 
d="M978 758q0 -77 -15 -138t-49 -105t-88.5 -69.5t-132.5 -31.5l275 -414h-875v195h477l-536 866h268l294 -487q48 1 76 14.5t41.5 36.5t17 55t3.5 70v311h244v-303z" />
    <glyph glyph-name="qof" unicode="&#x5e7;" horiz-adv-x="1204" 
d="M1084 1061v-512q0 -155 -25.5 -260t-79.5 -169t-138.5 -92t-202.5 -28h-70v193h33q46 0 81 3.5t60.5 14.5t43 32t27.5 57t14.5 89t4.5 127v350h-700v195h952zM148 658h252v-918h-252v918z" />
    <glyph glyph-name="resh" unicode="&#x5e8;" horiz-adv-x="884" 
d="M427 1061q108 0 174.5 -35t103 -97.5t48.5 -148t12 -186.5v-594h-260v583q0 59 -6 110.5t-24 90t-51.5 60.5t-88.5 22h-293v195h385z" />
    <glyph glyph-name="shin" unicode="&#x5e9;" horiz-adv-x="1419" 
d="M1302 1061v-512q0 -275 -133.5 -412t-383.5 -137h-589l-99 1061h241l90 -866h263q81 0 150 9.5t119 41.5t78 93t28 163v559h236zM837 416h-238v645h238v-645z" />
    <glyph glyph-name="tav" unicode="&#x5ea;" horiz-adv-x="1235" 
d="M757 1061q108 0 176.5 -34t107.5 -94.5t53.5 -145t14.5 -185.5v-602h-256v590q0 59 -8 109.5t-29.5 87.5t-59.5 58t-98 21h-164v-866h-444v195h215v671h-129v195h621z" />
    <glyph glyph-name="uni2000" unicode="&#x2000;" horiz-adv-x="860" 
 />
    <glyph glyph-name="uni2001" unicode="&#x2001;" horiz-adv-x="1721" 
 />
    <glyph glyph-name="uni2002" unicode="&#x2002;" horiz-adv-x="860" 
 />
    <glyph glyph-name="uni2003" unicode="&#x2003;" horiz-adv-x="1721" 
 />
    <glyph glyph-name="uni2004" unicode="&#x2004;" horiz-adv-x="573" 
 />
    <glyph glyph-name="uni2005" unicode="&#x2005;" horiz-adv-x="430" 
 />
    <glyph glyph-name="uni2006" unicode="&#x2006;" horiz-adv-x="286" 
 />
    <glyph glyph-name="uni2007" unicode="&#x2007;" horiz-adv-x="286" 
 />
    <glyph glyph-name="uni2008" unicode="&#x2008;" horiz-adv-x="215" 
 />
    <glyph glyph-name="uni2009" unicode="&#x2009;" horiz-adv-x="344" 
 />
    <glyph glyph-name="uni200A" unicode="&#x200a;" horiz-adv-x="95" 
 />
    <glyph glyph-name="uni2010" unicode="&#x2010;" horiz-adv-x="817" 
d="M107 625h588v-176h-588v176z" />
    <glyph glyph-name="uni2011" unicode="&#x2011;" horiz-adv-x="817" 
d="M107 625h588v-176h-588v176z" />
    <glyph glyph-name="figuredash" unicode="&#x2012;" horiz-adv-x="817" 
d="M107 625h588v-176h-588v176z" />
    <glyph glyph-name="endash" unicode="&#x2013;" horiz-adv-x="1108" 
d="M43 612h1025v-160h-1025v160z" />
    <glyph glyph-name="emdash" unicode="&#x2014;" horiz-adv-x="2177" 
d="M77 588h2068v-116h-2068v116z" />
    <glyph glyph-name="quoteleft" unicode="&#x2018;" horiz-adv-x="442" 
d="M104 729l60 475h184v-151l-146 -324h-98v0z" />
    <glyph glyph-name="quoteright" unicode="&#x2019;" horiz-adv-x="440" 
d="M104 729l60 475h184v-151l-146 -324h-98v0z" />
    <glyph glyph-name="quotesinglbase" unicode="&#x201a;" horiz-adv-x="442" 
d="M104 729l60 475h184v-151l-146 -324h-98v0z" />
    <glyph glyph-name="quotedblleft" unicode="&#x201c;" horiz-adv-x="610" 
d="M111 1204h164v-149l-130 -319h-88zM373 1204h164v-149l-130 -319h-88z" />
    <glyph glyph-name="quotedblright" unicode="&#x201d;" horiz-adv-x="610" 
d="M111 1204h164v-149l-130 -319h-88zM373 1204h164v-149l-130 -319h-88z" />
    <glyph glyph-name="quotedblbase" unicode="&#x201e;" horiz-adv-x="610" 
d="M111 1204h164v-149l-130 -319h-88zM373 1204h164v-149l-130 -319h-88z" />
    <glyph glyph-name="dagger" unicode="&#x2020;" horiz-adv-x="782" 
d="M-26 752h862q-106 -186 -213 -371.5t-219 -378.5zM605 618h-397l200 -366z" />
    <glyph glyph-name="daggerdbl" unicode="&#x2021;" horiz-adv-x="825" 
d="M834 227h-862l432 750zM204 360h397l-201 367z" />
    <glyph glyph-name="bullet" unicode="&#x2022;" horiz-adv-x="673" 
d="M105 534q0 47 17.5 88t48.5 71.5t72 48t88 17.5t88 -17.5t71.5 -48t48 -71.5t17.5 -88t-17.5 -88t-48 -71.5t-71.5 -48t-88 -17.5t-88 17.5t-72 48t-48.5 71.5t-17.5 88z" />
    <glyph glyph-name="ellipsis" unicode="&#x2026;" horiz-adv-x="1763" 
d="M204 0v260h256v-260h-256zM745 0v260h256v-260h-256zM1324 0v260h256v-260h-256z" />
    <glyph glyph-name="uni202F" unicode="&#x202f;" horiz-adv-x="344" 
 />
    <glyph glyph-name="perthousand" unicode="&#x2030;" horiz-adv-x="1274" 
d="M140 0h-99l707 1062h97zM216 1070q88 0 133.5 -50t45.5 -143v-166q0 -95 -45.5 -144t-133.5 -49q-87 0 -133.5 49.5t-46.5 143.5v166q0 94 46.5 143.5t133.5 49.5zM216 603q32 0 48.5 25.5t16.5 57.5v216q0 32 -18.5 54.5t-47.5 22.5q-30 0 -46.5 -22.5t-16.5 -54.5v-216
q0 -32 16 -57.5t48 -25.5zM662 546q88 0 134 -50t46 -144v-166q0 -96 -46 -145t-134 -49t-134 50t-46 144v166q0 95 46 144.5t134 49.5zM662 77q32 0 48.5 26t16.5 58v216q0 32 -18.5 55t-47.5 23q-30 0 -47 -23t-17 -55v-216q0 -16 4 -31t12.5 -27t20.5 -19t28 -7z
M1051 546q88 0 134 -50t46 -144v-166q0 -96 -46 -145t-134 -49t-134 50t-46 144v166q0 95 46 144.5t134 49.5zM1051 77q32 0 48.5 26t16.5 58v216q0 32 -18.5 55t-47.5 23q-30 0 -47 -23t-17 -55v-216q0 -16 4 -31t12.5 -27t20.5 -19t28 -7z" />
    <glyph glyph-name="guilsinglleft" unicode="&#x2039;" horiz-adv-x="956" 
d="M20 633l817 405v-217l-617 -246l617 -241v-215l-817 405v109z" />
    <glyph glyph-name="guilsinglright" unicode="&#x203a;" horiz-adv-x="955" 
d="M908 479l-817 -405v215l617 241l-617 246v217l817 -405v-109z" />
    <glyph glyph-name="uni205F" unicode="&#x205f;" horiz-adv-x="430" 
 />
    <glyph glyph-name="newsheqelsign" unicode="&#x20aa;" horiz-adv-x="1732" 
d="M1204 375h-273v348q0 43 -7.5 71t-24 45t-43 24t-65.5 8h-363v-871h-265v1061h789q79 0 128 -26.5t76 -72.5t37 -106.5t11 -129.5v-351zM552 0v686h262v-496h375q30 0 55 6.5t43 21.5t28.5 38.5t10.5 57.5v747h255v-730q0 -73 -17 -133.5t-51 -104t-85 -68t-119 -25.5
h-757z" />
    <glyph glyph-name="Euro" unicode="&#x20ac;" horiz-adv-x="903" 
d="M-28 590h131v112h-131v129h131l2 105q0 88 32 154t87.5 109.5t130 65t158.5 21.5q103 0 177 -28.5t121 -73t69 -98.5t22 -105h-196q-9 40 -22.5 71t-35 52t-54.5 32t-81 11q-32 0 -68.5 -6t-67.5 -29t-51 -68t-20 -124v-89h213v-129h-213v-112h213v-129h-213v-80
q0 -83 17 -133.5t45.5 -77.5t66 -35.5t78.5 -8.5q48 0 81 11t55.5 32.5t35.5 54.5t21 77h198q-1 -56 -25 -112.5t-73 -101.5t-122 -73t-171 -28q-83 0 -157 22t-130 65.5t-88.5 108.5t-32.5 150v129h-133v129z" />
    <glyph glyph-name="trademark" unicode="&#x2122;" horiz-adv-x="1333" 
d="M64 1165v113h446v-113h-141v-407h-154v407h-151zM1022 1278h219v-520h-137v410l-106 -304h-160l-109 304v-410h-139v520h228l98 -295z" />
    <glyph glyph-name="arrowleft" unicode="&#x2190;" horiz-adv-x="2062" 
d="M553 823l-267 -229h1672v-121h-1672l269 -230h-162l-303 285l303 295h160z" />
    <glyph glyph-name="arrowright" unicode="&#x2192;" horiz-adv-x="2062" 
d="M1624 823l303 -295l-303 -285h-162l269 230h-1672v121h1672l-267 229h160z" />
    <glyph glyph-name="minus" unicode="&#x2212;" horiz-adv-x="807" 
d="M107 625h588v-176h-588v176z" />
    <glyph glyph-name="uni25FC" unicode="&#x25fc;" horiz-adv-x="930" 
d="M0 930h930v-930h-930v930z" />
    <glyph glyph-name="peace" unicode="&#x262e;" horiz-adv-x="931" 
d="M39 757v8v153h850v-823h-850v662zM206 517h-5v7h-9v2h9v14h-3v10h3v4h-11v2h-20v10h-4v39h-5v-71h23v-16h-15v-1h-7v1h-1v-1h-8v1h-5v-1h-3v1h-5v-1h-1v1h-1v-1h-1v1h-2v-1h-14v-16h16v-11h4v11h156v12h-31v1h5v7h-34v3h-31v-7zM826 771h13v16h-2v7h2v11h-2v8h2v13h-2v2
h2v30h-7v2h7v25h-67v-14h3v-15h-3v-6h11v30h2v-30h1v-1h-1v-28h10v44h3v-44h5v40h9v-40h2v52h12v-52h3v-19h-3v-31zM533 130h34v21h6v-21h11v9h1v-9h2v35h-9v2h9v14h-4v11h4v3h-11v3h-20v9h-3v37h-7v-68h24v-17h-24v-21h-4v-3h-9v-5zM342 297h17v12h-3v24h-25v33h-4v-24h-8
v24h-6v-27h4v-30h-4v-22h4v-2h-4v-5h6v1h8v-1h4v3h17v-3h11v8h-17v9zM720 297h16v12h-2v24h-26v33h-3v-24h-8v24h-6v-27h5v-30h-5v-22h5v-2h-5v-5h6v1h8v-1h3v3h18v-3h10v8h-16v9zM712 655h17v12h-3v24h-25v34h-4v-25h-8v25h-6v-27h5v-31h-5v-21h5v-3h-5v-3h18v2h17v-2h11v6
h-17v9zM291 412v7h-3v1h3v8h-3v36h69v-20h5v14h7v5h-7v9h6v23h-7v-17h-2v17h-6v-14h-2v14h-3v-23h9v-2h-187v-6h106v-45h3v-7h4v7h4v-7h4zM335 655h16v12h-3v24h-25v34h-3v-25h-9v25h-5v-27h4v-31h-4v-21h4v-3h-4v-3h17v2h18v-2h10v6h-16v9zM463 847v38h-68v-14h1v-15h-1v-6
h10v30h3v-30h1v-1h-1v-2h10v18h2v-18h5v14h10v-14h2v26h11v7h3v-33h12zM592 130h89v5h-6v1h-65v5h-13v9h52v3h2v2h12v3h-3v4h-37v3h-31v-35zM105 253h4v33h-11v-24h3v-4h-3v-18h2v-5h-2v-33h1v-6h-1v-11h8v-5h-8v-10h4v-3h-4v-12h2v-2h9v54h-9v14h9v29h-4v3zM188 140h7v-10
h7v18h7v17h-10v2h10v14h-3v11h3v3h-11v3h-10v-22h4v-17h-4v-19zM179 771v-33h8v13h5v20h4v-17h18v20h-18v-2h-4v7h-5v11h-8v-18h-2v-1h2zM574 754h17v20h-17v-2h-4v7h-5v11h-8v-52h8v13h5v20h4v-17zM215 144h4v6h52v3h2v2h13v3h-3v4h-37v3h-31v-21zM565 412v-33h7v13h6v20h4
v-17h17v20h-17v-2h-4v7h-6v11h-7v-18h-3v-1h3zM85 512v76h-12v-76h4v9h5v-9h3zM557 512h23v12h-10v2h10v14h-4v10h4v4h-12v2h-11v-22h5v-16h-5v-6zM204 395h17v20h-17v-2h-5v7h-5v11h-6v-52h6v13h5v20h5v-17zM233 318h3v-25h4v25h5v-25h3v65h-15v-40zM739 698h10v-21h17v36
h-27v-15zM547 566h-3v60h-3v3h-2v-95h17v22h-9v10zM604 677h2v-26h4v26h5v-26h3v67h-14v-41zM729 871v14h-81v-5h2v-9h2v8h5v-8h4v5h9v-5h3v13h10v-13h18v9h17v-9h11zM179 207h-4v43h-6v-74h18v22h-8v9zM848 571h-6v-17h4v6h5v-6h2v-3h-2v-139h4v159h-6v-9h-1v9zM612 450
v-30h3v32h7v-32h3v9h2v29h-2v3h-77v-5h64v-5h-47v-1h47zM493 885h-25v-38h10v28h8v-28h7v38zM475 511v-10h-4v10h-3v-10h-5v10h-3v-10h-35v10h-5v-1h4v-9h-7v-6h-1v-7h9v6h2v-6h7v6h26v-6h11v6h4v-6h3v6h1v7h-1v10h-3zM233 539v1h-27v-14h31v4h29v2h8v7h-20v-2h-14v2h-7z
M611 539v1h-27v-14h31v4h28v2h9v7h-20v-2h-14v2h-7zM227 677h2v-26h3v26h4v-26h4v67h-13v-41zM738 130h85v33h-3v-25h-8v25h-7v-13h5v-14h-17v-5h-3v5h-52v-6zM369 339h11v-21h15v36h-26v-15zM612 318h2v-25h4v25h4v-25h3v65h-13v-40zM100 580v25h-10v-6h3v-5h4v-6h-7v-76h3
v15h5v-15h2v54h-8v14h8zM351 871v14h-75v-6h3v-8h4v5h10v-5h3v13h10v-13h17v9h18v-9h10zM620 180v1h-28v-14h31v5h28v2h9v6h-21v-2h-14v2h-5zM241 180v1h-26v-14h31v5h27v2h10v6h-21v-2h-14v2h-7zM567 574h13v52h-13v-52zM758 318h2v7h5v-7h8v36h-26v-15h11v-21zM114 885
h-24v-38h10v28h9v-28h5v38zM584 512h3v6h5v-6h51v2h7v7h-35v3h-31v-12zM834 412h12v120h-4v-5h3v-5h-3v-98h-5v19h-3v-31zM201 698v20h-11v-30h4v-4h-4v-30h11v30h-5v14h5zM503 472v43h-14v-43h14zM369 472h26v23h-26v-23zM747 495v-23h26v23h-26zM708 379v32h8v26h-18v-17
h15v-1h-15v-8h6v-32h4zM190 574h11v52h-11v-52zM701 738v32h6v26h-16v-17h14v-1h-14v-8h5v-32h5zM475 174v-21h11v54h-9v6h-2v-18h9v-3h-9v-15h6v-3h-6zM69 885v-38h2v33h2v-33h12v38h-16zM493 580v81h-7v-21h2v-4h-2v-8h2v-15h-2v-33h7zM457 130h29v22h-11v-16h-4v16h-11
v-16h-3v-6zM726 495v-23h9v-28h4v14h7v5h-7v9h6v23h-7v-17h-2v17h-5v-14h-2v14h-3zM580 698v20h-13v-28h6v-7h-6v-13h13v14h-5v14h5zM631 438h11v16h-5v4h-8v-29h2v-9h19v8h-8v9h-11v1zM475 670h3v43h-10v-15h2v-7h3v-7h-5v-29h10v6h-3v9zM209 339v19h-13v-43h13v9h-4v15h4z
M660 357v1h-3v-1h-7v1h-11v-19h11v7h7v-7h3v7h4v-7h5v21h-5v-3h-4zM532 885h-29v-29h5v24h2v-24h4v27h2v-27h1v15h6v13h2v-13h7v14zM722 739h7v9h-11v-50h11v32h-7v9zM352 380h7v9h-11v-50h11v32h-7v9zM154 885h-28v-29h4v24h2v-24h5v27h1v-27h1v15h7v13h2v-13h6v14z
M739 831h27v18h-27v-18zM739 536h27v18h-27v-18zM353 837h-2v12h-10v-18h8v-28h5v14h7v5h-7v9h5v18h-6v-12zM283 357v1h-4v-1h-8v1h-9v-1h-1v-11h1v-7h9v7h8v-7h4v7h4v-7h4v21h-4v-3h-4zM623 797h11v17h-6v3h-6v-30h1v-8h18v7h-7v10h-11v1zM584 871h8v14h-35v-14h23v6h4v-6z
M246 797h10v17h-5v3h-7v-30h2v-8h17v7h-7v10h-10v1zM254 438h10v16h-5v4h-7v-29h2v-9h17v8h-7v9h-10v1zM245 430v-10h3v9h2v29h-17v-38h4v32h8v-1h-4v-21h4zM731 380h5v9h-10v-50h10v32h-5v9zM494 130h8v5h-2v20h2v4h-7v17h7v31h-8v-54h4v-1h-4v-22zM274 715v3h-3v-3h-8v3
h-9v-20h9v7h8v-7h3v7h5v-7h4v20h-4v-3h-5zM652 715v3h-2v-3h-9v3h-9v-3h-1v-10h1v-7h9v7h9v-7h2v7h5v-7h4v20h-4v-3h-5zM362 831h25v18h-25v-18zM389 136v-6h57v22h-3v-14h-9v14h-7v-2h4v-14h-15v-5h-3v5h-24zM523 390v-56h8v56h-8zM731 837h-2v12h-11v-18h9v-28h4v14h7v5
h-7v9h5v18h-5v-12zM345 739h6v9h-10v-50h10v32h-6v9zM468 532v-20h3v15h4v-15h3v54h-9v5h-1v-17h7v-3h-7v-15h5v-4h-5zM209 216v34h-13v-34h13zM494 389v-55h8v55h-8zM320 411h1v1h17v25h-18v-17h15v-1h-15v-8zM739 580h27v16h-27v-16zM69 152v-22h23v22h-10v-16h-5v16h-8z
M793 495v-33h10v60h-5v-12h3v-15h-8zM369 412h26v16h-26v-16zM747 412h26v16h-26v-16zM122 302h1v10h-7v-59h7v48h-1v1zM313 771h17v25h-17v-17h14v-1h-14v-7zM497 312h-3v-32h2v-3h-2v-7h2v-15h-2v-4h8v52h-5v9zM486 748v-58h7v58h-7zM516 748v-58h7v58h-7zM739 771h27v15
h-27v-15zM582 324v8h-7v-37h12v29h-5zM236 136v-6h67v5h-5v1h-62zM116 149h1v-18h-1v-1h7v5h-1v20h1v4h-6v17h6v31h-7v-54h4v-1h-4v-3zM73 623h12v38h-12v-18h7v-9h-5v-2h-1v2h-1v-11zM613 876h20v9h-35v-14h15v5zM463 599v14h-12v-33h12v13h-1v6h1zM90 623h10v38h-10v-38z
M766 871v14h-27v-14h27zM166 138v-8h4v10h17v19h-18v-21h-3zM362 771h25v15h-25v-15zM69 467v-51h8v30h-6v6h6v15h-8zM471 221v14h-1v5h1v15h-11v-34h11zM604 817v-38h4v32h7v-32h3v8h2v30h-16zM826 580h11v33h-11v-33zM73 805v-30h12v30h-12zM452 805v-3h-1v-27h12v30h-11z
M387 871v14h-25v-14h25zM849 713v-58h6v58h-6zM584 497v-8h-4v8h-15v-17h-3v-4h5v12h8v-12h12v21h-3zM525 629v-49h7v49h-7zM516 629v-49h7v49h-7zM587 216v28h-12v-28h12zM533 376v-42h8v42h-8zM793 177h10v36h-10v-10h3v-8h-3v-18zM408 536h10v35h-10v-8h2v-9h-2v-18z
M785 536h10v35h-10v-8h2v-9h-2v-18zM82 446v-30h11v30h-11zM98 446v-30h11v30h-11zM475 446v-30h11v30h-11zM227 817v-38h2v32h7v-32h4v8h2v30h-15zM848 713h-22v-15h22v15zM206 497v-8h-5v8h-13v-21h2v12h6v-12h13v21h-3zM461 446v-3h-1v-27h11v30h-10zM739 655h27v12h-27
v-12zM402 449v-37h11v16h-4v21h-7zM478 580v33h-10v-14h2v-6h-2v-13h10zM348 245h11v32h-11v-4h6v-6h-6v-22zM408 339h5v15h-11v-36h6v6h5v5h-5v10zM855 339v15h-21v-15h21zM525 735v-45h7v45h-7zM826 655h22v29h-3v-17h-19v-12zM484 323h2v9h-5v-8h-6v-27h11v15h-2v11z
M369 297h26v12h-26v-12zM73 722h12v26h-12v-26zM718 604h11v32h-11v-4h7v-6h-7v-22zM146 390v-44h7v44h-7zM305 798v22h-14v-22h14zM691 439v22h-14v-22h14zM416 177h9v36h-9v-10h3v-8h-3v-18zM90 805v-30h10v30h-10zM468 805v-30h10v30h-10zM503 642v-50h2v-3h-2v-9h5v49
h-1v6h1v7h-5zM777 698h6v15h-11v-36h5v7h6v4h-6v10zM747 410h-11v-21h2v-9h7v9h2v21zM780 495v-23h3v-10h7v33h-5v-4h-2v4h-3zM780 449v-37h10v16h-4v21h-6zM313 439v22h-13v-22h13zM682 798v22h-13v-22h13zM341 604h10v32h-10v-4h6v-6h-6v-22zM785 339h5v15h-10v-36h5v6h5
v5h-5v10zM775 821h8v28h-11v-18h3v-10zM138 805v-34h8v34h-8zM523 446v-34h8v34h-8zM154 446v-34h8v34h-8zM533 446v-34h8v34h-8zM739 720h27v10h-27v-10zM747 516h19v14h-19v-14zM146 651v33h-8v-33h8zM587 339v19h-12v-24h7v5h5zM395 361v10h-26v-10h26zM773 361v10h-26
v-10h26zM90 748v-26h10v26h-10zM109 609h5v52h-5v-52zM399 698h6v15h-10v-36h4v7h6v4h-6v10zM77 691h8v8h-12v-26h12v11h-8v7zM856 397v3h-85v-3h85zM486 516h7v2h-6v16h6v32h-7v-50zM650 472v23h-11v-23h11zM416 501v4h-63v-4h63zM380 713v-36h7v36h-7zM262 183h21v12h-21
v-12zM639 183h21v12h-21v-12zM739 768h-10v-20h2v-9h5v9h3v20zM812 462v35h-7v-35h7zM834 462h3v60h-11v-8h8v-52zM739 739h27v9h-27v-9zM739 604h27v9h-27v-9zM431 195h3v18h-7v-36h7v15h-3v3zM809 195h3v18h-7v-36h7v15h-3v3zM530 486v22h-11v-22h11zM650 221v22h-11v-22
h11zM154 376v-30h8v30h-8zM300 733v24h-10v-24h10zM678 733v24h-10v-24h10zM687 374v24h-10v-24h10zM637 318v40h-6v-40h6zM768 437v17h-14v-17h14zM146 446v-34h7v34h-7zM516 805v-34h7v34h-7zM556 871v14h-17v-14h17zM525 805v-34h7v34h-7zM553 412v34h-7v-34h7zM475 221
h11v23h-11v-4h3v-5h-3v-14zM145 556h1v10h-8v-32h8v2h-1v20zM847 843h1v15h-8v-30h8v10h-1v5zM747 380h26v9h-26v-9zM369 177h13v18h-13v-18zM747 177h13v18h-13v-18zM369 380h26v9h-26v-9zM162 221v29h-8v-29h8zM530 198h1v9h-8v-31h8v1h-1v21zM503 735v-45h5v45h-5z
M90 673h10v26h-10v-8h5v-7h-5v-11zM361 245h7v32h-7v-32zM98 291h11v21h-11v-12h9v-1h-9v-8zM510 745h1v-10h-1v-45h4v58h-4v-3zM209 295v17h-13v-17h13zM826 720h22v10h-22v-10zM632 543h20v11h-20v-11zM254 543h20v11h-20v-11zM82 262h11v24h-11v-1h5v-9h-5v-14zM726 251
h10v26h-10v-4h7v-6h-7v-16zM138 748v-27h8v27h-8zM494 439v-27h8v27h-8zM739 563h27v8h-27v-8zM308 374v24h-9v-24h9zM739 628h27v8h-27v-8zM557 835h1v12h9v-12h13v14h-23v-14zM518 389v-3h1v-10h-1v-42h4v56h-3v-1h-1zM436 402v-3h-18v-3h18v-7h6v7h2v3h-2v3h7v2h-7v6h-6
v-6h-6v-2h6zM834 361h21v10h-21v-10zM369 221h13v16h-13v-16zM747 221h13v16h-13v-16zM181 835v12h9v-12h11v14h-22v-10h-2v-4h4zM271 472v23h-9v-23h9zM402 495v-23h4v-10h7v5h-5v21h5v7h-5v-4h-3v4h-3zM628 677v41h-5v-41h5zM251 677v41h-5v-41h5zM478 334h8v20h-11v-15h3
v-5zM451 554h12v17h-12v-17zM834 221h6v34h-6v-34zM148 805v-34h6v34h-6zM522 556h1v10h-7v-32h7v2h-1v20zM175 412v34h-6v-34h6zM153 221v29h-7v-29h7zM123 221v29h-7v-29h7zM259 318v40h-5v-40h5zM146 580v25h-8v-25h8zM402 177h11v18h-11v-18zM140 389v-3h2v-10h-2v-30h5
v44h-3v-1h-2zM718 536h11v18h-11v-18zM772 536h11v18h-11v-18zM637 365v33h-6v-33h6zM639 249h11v18h-11v-18zM849 613v-33h6v33h-6zM842 613v-33h6v33h-6zM271 221v22h-9v-22h9zM263 580v22h-9v-22h9zM641 580v22h-9v-22h9zM460 195h11v18h-11v-18zM348 177h11v18h-11v-18z
M152 198h1v9h-7v-31h7v1h-1v21zM510 629v-49h4v49h-4zM219 885v-14h14v14h-14zM683 831h6v16h8v-16h4v18h-18v-18zM839 148h1v15h-6v-33h6v15h-1v3zM639 293h8v-6h3v22h-11v-16zM353 604h6v32h-6v-32zM834 297h6v9h10v-9h5v27h-2v-15h-19v-12zM154 654v30h-6v-33h4v3h2z
M575 251h12v16h-12v-16zM116 439v-27h7v27h-7zM486 798v-27h7v27h-7zM82 241h11v17h-11v-17zM82 202h11v17h-11v-17zM161 871h8v9h15v5h-23v-14zM826 554h11v17h-11v-17zM109 516h5v2h-4v16h4v32h-5v-50zM502 221v23h-8v-23h8zM541 221v23h-8v-23h8zM531 221v23h-8v-23h8z
M196 253h13v14h-13v-14zM738 251h7v26h-7v-26zM341 536h10v18h-10v-18zM395 536h10v18h-10v-18zM726 177h10v18h-10v-18zM780 177h10v18h-10v-18zM451 698h12v15h-12v-15zM451 536h12v15h-12v-15zM362 536h10v18h-10v-18zM348 412h11v16h-11v-16zM359 221v16h-11v-16h11z
M402 221h11v16h-11v-16zM729 580v16h-11v-16h11zM772 580h11v16h-11v-16zM221 427v25h-7v-25h7zM82 511v-23h11v23h-3v-16h-5v16h-3zM70 185h7v11h-8v-26h8v10h-7v5zM544 771v34h-5v-34h5zM166 771v34h-5v-34h5zM850 255v-34h5v34h-5zM747 158h13v13h-13v-13zM423 554h2v17
h-5v-35h5v15h-2v3zM369 158h13v13h-13v-13zM512 376v-42h4v42h-4zM546 334h7v24h-7v-24zM359 401v-4h10v4h5v4h-5v1h-10v-1h-14v-4h14zM800 554h3v17h-5v-35h5v15h-3v3zM106 149h3v3h-10v-22h10v1h-3v18zM369 280h13v6h7v-6h6v8h-26v-8zM251 724v33h-5v-33h5zM628 724v33h-5
v-33h5zM460 339h11v15h-11v-15zM460 177h11v15h-11v-15zM718 771h11v15h-11v-15zM772 771h11v15h-11v-15zM259 365v33h-5v-33h5zM116 389v-13h1v-3h-1v-8h7v24h-7zM137 651v33h-5v-33h5zM826 536h11v15h-11v-15zM306 831h5v16h9v-16h3v18h-17v-18zM766 640v6h-27v-6h27z
M262 249h9v18h-9v-18zM632 608h9v18h-9v-18zM254 608h9v18h-9v-18zM632 831h9v18h-9v-18zM254 831h9v18h-9v-18zM739 850h27v6h-27v-6zM726 412h10v16h-10v-16zM793 412h10v16h-10v-16zM351 580v16h-10v-16h10zM405 580v16h-10v-16h10zM780 221h10v16h-10v-16zM736 221v16
h-10v-16h10zM503 566v-32h5v32h-5zM132 566v-32h5v32h-5zM418 580v16h-10v-16h10zM785 580h10v16h-10v-16zM793 221h10v16h-10v-16zM731 604h5v32h-5v-32zM138 629v-20h8v20h-8zM362 580h10v16h-10v-16zM641 771v7h-18v-10h11v3h7zM747 297h13v12h-13v-12zM262 293h7v-6h2
v22h-9v-16zM240 563v39h-4v-39h4zM140 439v-27h5v34h-3v-7h-2zM132 798v-27h5v34h-3v-7h-2zM313 494v-22h6v16h4v6h-10zM691 494v-22h6v16h4v6h-10zM397 821h8v5h-5v21h5v2h-10v-18h2v-10zM650 412v7h-19v-9h11v2h8zM140 207v-31h5v31h-5zM123 315v22h-7v-22h7zM632 651h7
v-5h2v21h-9v-16zM254 651h7v-5h2v21h-9v-16zM71 512v76h-2v-76h2zM69 511v-23h8v23h-4v-16h-2v16h-2zM533 270v-19h8v19h-8zM523 270v-19h8v19h-8zM362 698h10v15h-10v-15zM154 580v25h-6v-25h6zM341 771h10v15h-10v-15zM395 771h10v15h-10v-15zM362 850h25v6h-25v-6z
M785 771h10v15h-10v-15zM795 698v15h-10v-15h10zM418 698v15h-10v-15h10zM803 339v15h-10v-15h10zM166 654v30h-5v-30h5zM263 771v7h-17v-10h10v3h7zM849 748v-9h6v28h-5v-19h-1zM109 673h5v31h-5v-2h3v-3h-3v-26zM145 221v29h-5v-29h5zM765 195v-18h8v18h-8zM73 609h12v12
h-12v-12zM451 655h12v12h-12v-12zM416 221h9v16h-9v-16zM98 389v-13h11v13h-11zM82 376h11v13h-11v-13zM567 216v28h-5v-28h5zM539 690h5v28h-5v-28zM271 412v7h-17v-9h10v2h7zM557 850h23v6h-23v-6zM69 202h8v17h-8v-17zM206 550h34v4h-34v-4zM584 550h34v4h-34v-4zM69 241
h8v17h-8v-17zM154 270v-17h8v17h-8zM109 798v-27h5v27h-5zM425 339v15h-9v-15h9zM503 798v-27h5v27h-5zM85 594v11h-12v-11h12zM82 155h11v12h-11v-12zM460 297h11v12h-11v-12zM416 412h6v4h3v12h-9v-16zM93 300v12h-11v-12h11zM179 850h22v6h-22v-6zM683 532h6v22h-6v-22z
M402 297h11v12h-11v-12zM772 655h11v12h-11v-12zM73 826v-15h12v9h-8v6h-4zM240 724v33h-4v-33h4zM237 365v33h-4v-33h4zM608 724v33h-4v-33h4zM319 221v22h-6v-22h6zM689 580v22h-6v-22h6zM126 642v-33h4v33h-4zM369 203h13v10h-13v-10zM382 245v10h-13v-10h13zM747 203h13
v10h-13v-10zM109 748v-26h5v26h-5zM408 771h5v4h5v11h-10v-15zM803 150v13h-10v-13h10zM694 243h-3v-22h6v21h-3v1zM510 798v-27h4v34h-3v-7h-1zM518 439v-27h4v34h-3v-7h-1zM512 283v-32h4v32h-4zM765 237v-16h8v16h-8zM138 688h8v16h-8v-16zM126 566v-32h4v32h-4zM510 566
v-32h4v32h-4zM451 826v-5h1v-10h11v9h-7v6h-5zM361 130h21v6h-21v-6zM380 554v-18h7v18h-7zM313 174h6v21h-6v-21zM691 174h6v21h-6v-21zM361 177h7v18h-7v-18zM738 177h7v18h-7v-18zM137 580v25h-5v-25h5zM114 580v25h-5v-25h5zM181 574v31h-4v-31h4zM135 207v-31h4v31h-4z
M518 207v-31h4v31h-4zM512 207v-31h4v31h-4zM525 566v-10h5v-20h-5v-2h7v32h-7zM533 207v-9h6v-21h-6v-1h8v31h-8zM82 185h11v11h-11v-11zM82 224h11v11h-11v-11zM593 431v15h-8v-15h8zM562 334h5v24h-5v-24zM362 655h10v12h-10v-12zM181 654v30h-4v-30h4zM148 629v-20h6v20
h-6zM772 807v-20h6v20h-6zM395 807v-20h6v20h-6zM248 203v40h-3v-40h3zM625 203v40h-3v-40h3zM395 655h10v12h-10v-12zM780 297h10v12h-10v-12zM793 297h10v12h-10v-12zM785 655h10v12h-10v-12zM451 720h12v10h-12v-10zM135 376v-30h4v30h-4zM90 609h10v12h-10v-12zM840 860
h8v15h-8v-15zM146 270v-17h7v17h-7zM546 251h7v16h-5v3h-2v-19zM826 739h13v9h-13v-9zM98 315h11v12h-6v-3h-5v-9zM618 563v39h-3v-39h3zM425 150v13h-9v-13h9zM403 168h10v3h-11v-13h8v-8h3v13h-10v5zM610 465v2h-58v-2h58zM132 745h2v-10h-2v-14h5v27h-5v-3zM850 163v-15
h5v26h-5v-6h3v-5h-3zM135 283v-30h4v17h-1v6h1v7h-4zM380 596v-16h7v16h-7zM69 276v-14h8v14h-8zM664 495v-23h5v22h-3v1h-2zM812 221v16h-7v-16h7zM745 221v16h-7v-16h7zM427 221h7v16h-7v-16zM368 221v16h-7v-16h7zM606 574h4v28h-4v-28zM148 566v-10h4v-20h-4v-2h6v32h-6
zM738 412h7v16h-7v-16zM361 412h7v16h-7v-16zM805 412h7v16h-7v-16zM539 402v3h-37v-3h37zM82 170h11v10h-11v-10zM306 532h5v22h-5v-22zM460 361h11v10h-11v-10zM471 153v10h-11v-10h11zM413 361v10h-11v-10h11zM783 720v10h-11v-10h11zM311 580v22h-5v-22h5zM475 361h11
v10h-11v-10zM348 203h11v10h-11v-10zM413 245v10h-11v-10h11zM402 203h11v10h-11v-10zM669 221v22h-5v-22h5zM664 287h5v22h-5v-22zM639 203h11v10h-11v-10zM139 221v29h-4v-17h2v-3h-2v-9h4zM82 467v-15h11v8h-8v7h-3zM389 195v-18h6v18h-6zM834 380h12v9h-12v-9zM130 651
v33h-4v-11h2v-12h-2v-10h4zM85 327h-3v-12h11v9h-8v3zM313 249h6v18h-6v-18zM236 216h4v27h-4v-27zM683 608h6v18h-6v-18zM614 216h4v27h-4v-27zM126 798v-27h4v27h-4zM135 439v-27h4v27h-4zM512 439v-27h4v27h-4zM683 850h18v6h-18v-6zM353 536h6v18h-6v-18zM451 739h12v9
h-12v-9zM812 339v15h-7v-15h7zM745 339v15h-7v-15h7zM434 339v15h-7v-15h7zM368 339v15h-7v-15h7zM602 375v7h-15v-7h15zM69 389v-13h8v13h-8zM554 574h2v52h-2v-52zM765 171v-13h8v13h-8zM747 280h13v8h-13v-8zM840 813h8v13h-8v-13zM154 324h8v13h-8v-13zM823 221v34h-3
v-34h3zM446 221v34h-3v-34h3zM306 850h17v6h-17v-6zM187 216v34h-3v-34h3zM691 249h3v2h3v16h-6v-18zM154 207v-9h7v-21h-7v-1h8v31h-8zM726 203h10v10h-10v-10zM780 203h10v10h-10v-10zM790 361v10h-10v-10h10zM372 720v10h-10v-10h10zM405 720v10h-10v-10h10zM468 720h10
v10h-10v-10zM132 629v-20h5v20h-5zM418 720v10h-10v-10h10zM795 720v10h-10v-10h10zM803 361v10h-10v-10h10zM618 724v33h-3v-33h3zM615 365v33h-3v-33h3zM625 365v33h-3v-33h3zM592 192h33v3h-33v-3zM783 604v9h-11v-9h11zM460 380h11v9h-11v-9zM402 380h11v9h-11v-9z
M772 739h11v9h-11v-9zM475 389v-9h11v9h-11zM664 174h5v21h-5v-12h2v-3h-2v-6zM460 467v-5h1v-10h10v8h-8v7h-3zM248 365v33h-3v-33h3zM215 192h33v3h-33v-3zM348 158h11v13h-6v-9h-5v-4zM70 153v2h7v12h-8v-14h1zM380 530v-14h7v14h-7zM359 580v16h-6v-16h6zM69 315h8v12
h-8v-12zM77 300v12h-8v-12h8zM148 688h6v16h-6v-16zM765 309v-12h8v12h-8zM389 237v-16h6v16h-6zM288 381v12h-8v-12h8zM130 580v25h-4v-13h2v-3h-2v-9h4zM843 782h5v5h-8v-16h8v4h-5v7zM522 221v23h-4v-23h4zM240 472v23h-4v-23h4zM283 472v23h-4v-23h4zM618 472v23h-4v-23
h4zM738 158h7v13h-7v-13zM580 654v7h-13v-7h13zM361 158h7v13h-7v-13zM209 276v7h-13v-7h13zM580 635v7h-13v-7h13zM146 324h7v13h-7v-13zM161 609h5v17h-3v3h-2v-20zM486 670h7v13h-7v-13zM516 670h7v13h-7v-13zM525 670h7v13h-7v-13zM747 270h13v7h-13v-7zM369 270h13v7
h-13v-7zM785 739h10v9h-10v-9zM313 130h18v5h-18v-5zM793 380h10v9h-10v-9zM606 318v18h-5v-18h5zM229 318v18h-5v-18h5zM664 249h5v18h-5v-18zM287 495v-23h4v22h-2v1h-2zM306 608h5v18h-5v-18zM425 361v10h-9v-10h9zM731 536h5v18h-5v-18zM405 604v9h-10v-9h10zM418 604v9
h-10v-9h10zM425 245v10h-9v-10h9zM795 604v9h-10v-9h10zM353 771h6v15h-6v-15zM359 698v15h-6v-15h6zM395 739h10v9h-10v-9zM780 380h10v9h-10v-9zM262 203h9v10h-9v-10zM468 748v-9h10v9h-10zM90 820v-9h10v9h-10zM408 739h10v9h-10v-9zM468 820v-9h10v9h-10zM834 177h6v15
h-6v-15zM169 253h6v14h-4v3h-2v-17zM372 604v9h-10v-9h10zM362 739h10v9h-10v-9zM849 858v-15h6v15h-6zM849 875v-15h6v15h-6zM119 482v18h-5v-18h5zM287 287h4v22h-4v-22zM718 563h11v8h-11v-8zM82 291h11v8h-11v-8zM283 580v22h-4v-22h4zM291 221v22h-4v-22h4zM772 628h11
v8h-11v-8zM279 287h4v22h-4v-22zM283 221v22h-4v-22h4zM413 280v8h-11v-8h11zM98 460v-8h11v8h-11zM697 532h4v22h-4v-22zM69 224h8v11h-8v-11zM351 757h11v8h-11v-8zM661 580v22h-4v-22h4zM475 460v-8h11v8h-11zM475 280h11v8h-11v-8zM772 563h11v8h-11v-8zM98 365h11v8
h-11v-8zM82 365h11v8h-11v-8zM840 794h8v11h-8v-11zM826 628h11v8h-11v-8zM790 510v11h3v-11h2v12h-10v-12h5zM413 510v11h3v-11h2v12h-10v-12h5zM516 221v23h-4v-11h2v-3h-2v-9h4zM567 295v17h-5v-17h5zM726 158h10v13h-5v-9h-5v-4zM691 130h17v5h-17v-5zM140 270v-17h5v17
h-5zM353 516h6v14h-6v-14zM148 735v-14h6v14h-6zM657 646h4v21h-4v-21zM657 532h4v22h-4v-11h1v-4h-1v-7zM586 574h3v28h-3v-28zM738 297h7v12h-7v-12zM327 174h4v21h-4v-21zM229 574h3v28h-3v-28zM427 416h7v12h-7v-12zM359 871v14h-6v-14h6zM739 516h6v14h-6v-14zM805 297
h7v12h-7v-12zM361 297h7v12h-7v-12zM279 532h4v22h-4v-11h1v-4h-1v-7zM362 516h6v14h-6v-14zM587 276v7h-12v-7h12zM380 667v-12h7v12h-7zM279 646h4v21h-4v-21zM416 380h9v9h-9v-9zM300 339h3v27h-3v-27zM670 698h3v27h-3v-27zM287 174h4v21h-4v-12h1v-3h-1v-6zM293 698h3
v27h-3v-27zM678 339h3v27h-3v-27zM785 628h10v8h-10v-8zM798 580h5v16h-5v-16zM468 628h10v8h-10v-8zM803 280v8h-10v-8h10zM362 628h10v8h-10v-8zM395 628h10v8h-10v-8zM341 563h10v8h-10v-8zM736 580v16h-5v-16h5zM132 688h5v16h-5v-16zM562 251h5v16h-5v-16zM154 302h8
v10h-8v-10zM765 213v-10h8v10h-8zM531 293v10h-8v-10h8zM362 563h10v8h-10v-8zM395 563h10v8h-10v-8zM790 280v8h-10v-8h10zM451 628h12v8h-5v-2h-5v-2h-1v2h-1v-6zM161 688h5v16h-5v-16zM408 628h10v8h-10v-8zM420 580h5v16h-5v-16zM389 171v-13h6v13h-6zM169 324h6v13h-6
v-13zM849 826v-13h6v13h-6zM402 270h11v7h-11v-7zM650 276v7h-11v-7h11zM201 635v7h-11v-7h11zM475 270h11v7h-11v-7zM518 270v-19h4v19h-4zM803 698v15h-5v-15h5zM736 698v15h-5v-15h5zM425 698v15h-5v-15h5zM850 145v-15h5v15h-5zM731 771h5v15h-5v-15zM850 192v-15h5v15
h-5zM798 771h5v15h-5v-15zM463 512v10h-12v-8h5v7h4v-9h3zM780 158h7v-8h3v13h-10v-5zM541 295v8h-8v-10h5v2h3zM279 249h4v18h-4v-18zM279 608h4v18h-4v-18zM697 608h4v18h-4v-18zM236 831h4v18h-4v-18zM353 655h6v12h-6v-12zM606 831h4v18h-4v-18zM425 280v8h-9v-8h9z
M327 249h4v18h-4v-18zM606 608h4v18h-4v-18zM254 563h9v8h-9v-8zM169 346h6v12h-6v-12zM287 249h4v18h-4v-18zM614 249h4v18h-4v-18zM279 831h4v18h-4v-18zM236 249h4v18h-4v-18zM236 608h4v18h-4v-18zM657 831h4v18h-4v-18zM494 323h8v9h-8v-9zM632 563h9v8h-9v-8zM523 323
h8v9h-8v-9zM533 323h8v9h-8v-9zM840 739h8v9h-8v-9zM657 608h4v18h-4v-18zM793 270h10v7h-10v-7zM427 153h7v10h-7v-10zM736 871v14h-5v-14h5zM361 203h7v10h-7v-10zM434 245v10h-7v-10h7zM745 361v10h-7v-10h7zM738 203h7v10h-7v-10zM380 730v-10h7v10h-7zM146 302h7v10h-7
v-10zM731 516h5v14h-5v-14zM812 245v10h-7v-10h7zM780 270h10v7h-10v-7zM413 391v10h-7v-10h7zM812 361v10h-7v-10h7zM460 270h11v7h-6v-1h-3v-2h-1v2h-1v-6zM434 361v10h-7v-10h7zM368 361v10h-7v-10h7zM523 651v10h-7v-10h7zM592 488h3v-12h2v21h-5v-9zM625 472v23h-3v-23
h3zM660 472v23h-3v-23h3zM723 521h3v-5h3v14h-6v-9zM345 521h3v-5h3v14h-6v-9zM248 472v23h-3v-23h3zM664 158h17v4h-17v-4zM177 609h4v17h-4v-17zM98 346h11v7h-11v-2h3v-3h-3v-2zM190 216v34h-2v-34h2zM597 677v17h-4v-17h4zM220 677v17h-4v-17h4zM460 168h11v6h-11v-6z
M274 580v22h-3v-22h3zM678 287h3v22h-3v-22zM437 580v33h-2v-33h2zM300 287h3v22h-3v-22zM303 221v22h-3v-22h3zM293 532h3v22h-3v-22zM673 580v22h-3v-22h3zM320 532h3v22h-3v-22zM670 532h3v22h-3v-22zM296 580v22h-3v-22h3zM783 640v6h-11v-6h11zM229 724v33h-2v-33h2z
M660 221v22h-3v-22h3zM718 850h11v6h-11v-6zM826 640h11v6h-11v-6zM814 580v33h-2v-33h2zM348 130h11v6h-11v-6zM681 221v22h-3v-22h3zM657 287h3v22h-3v-22zM849 805v-11h6v11h-6zM140 324h5v13h-5v-13zM539 670h5v13h-5v-13zM503 670h5v13h-5v-13zM701 580v16h-4v-16h4z
M162 315v8h-8v-8h8zM331 221v16h-4v-16h4zM126 688h4v16h-4v-16zM69 365h8v8h-8v-8zM494 460v-8h8v8h-8zM532 654v7h-7v-10h5v3h2zM69 291h8v8h-8v-8zM287 158h16v4h-16v-4zM279 516h4v4h4v-4h4v1h5v4h-17v-5zM765 288v-8h8v8h-8zM177 688h4v16h-4v-16zM416 270h9v7h-9v-7z
M271 276v7h-9v-7h9zM486 820v-9h7v9h-7zM271 646h3v21h-3v-21zM427 380h7v9h-7v-9zM546 323h7v9h-7v-9zM641 635v7h-9v-7h9zM380 748v-9h7v9h-7zM300 174h3v21h-3v-21zM368 389h-7v-9h7v9zM263 635v7h-9v-7h9zM670 646h3v21h-3v-21zM293 646h3v21h-3v-21zM465 280h6v8h-11
v-3h5v-5zM805 380h7v9h-7v-9zM380 613v-9h7v9h-7zM678 174h3v21h-3v-21zM705 174h3v21h-3v-21zM103 330h6v7h-11v-4h5v-3zM546 518v-6h10v6h-10zM691 203h6v10h-6v-10zM215 488h2v-12h2v21h-4v-9zM589 698v20h-3v-20h3zM451 527h12v5h-12v-5zM389 213v-10h6v10h-6zM731 655
h5v12h-5v-12zM418 655v6h-10v-6h10zM418 640v6h-10v-6h10zM162 295v6h-8v-8h6v2h2zM657 516h3v4h4v-4h5v1h4v4h-16v-5zM169 302h6v10h-6v-10zM405 640v6h-10v-6h10zM798 655h5v12h-5v-12zM359 720v10h-6v-10h6zM372 640v6h-10v-6h10zM795 640v6h-10v-6h10zM726 130h10v6h-10
v-6zM389 255v-10h6v10h-6zM849 838v-10h6v10h-6zM209 654h2v30h-2v-30zM341 850h10v6h-10v-6zM840 195v10h-6v-10h6zM313 203h6v10h-6v-10zM849 730v-10h6v10h-6zM69 805v-30h2v30h-2zM842 551v-15h4v15h-4zM468 640h10v6h-10v-6zM77 751v14h-4v-11h-1v-3h5zM668 768h10v4
h-5v6h-3v-6h-2v-4zM217 295h2v29h-2v-29zM140 832h6v7h-8v-8h2v1zM290 768h10v4h-4v6h-3v-6h-3v-4zM595 295h2v29h-2v-29zM434 280v8h-7v-8h7zM138 642v-7h8v7h-8zM523 283v-7h8v7h-8zM154 283v-7h8v7h-8zM368 280v8h-7v-8h7zM745 280v8h-7v-8h7zM533 480v-7h8v7h-8z
M812 280v8h-7v-8h7zM116 460v-8h7v8h-7zM77 330v7h-8v-7h8zM553 295v8h-7v-8h7zM380 636v-8h7v8h-7zM533 283v-7h8v7h-8zM153 293v8h-7v-8h7zM153 315v8h-7v-8h7zM234 871h4v14h-4v-14zM209 574h2v28h-2v-28zM154 480v-7h8v7h-8zM554 690h2v28h-2v-28zM126 735v-14h4v14h-4z
M765 277v-7h8v7h-8zM380 571v-8h7v8h-7zM826 527h11v5h-11v-5zM186 880h11v5h-11v-5zM420 775h5v11h-5v-11zM271 831h3v18h-3v-18zM293 831h3v18h-3v-18zM245 249h3v18h-3v-18zM229 608h3v18h-3v-18zM320 608h3v18h-3v-18zM670 831h3v18h-3v-18zM678 249h3v18h-3v-18z
M293 608h3v18h-3v-18zM820 195h3v18h-3v-18zM359 748h-6v-9h6v9zM615 608h3v18h-3v-18zM670 608h3v18h-3v-18zM657 249h3v18h-3v-18zM443 195h3v18h-3v-18zM229 831h3v18h-3v-18zM300 249h3v18h-3v-18zM615 831h3v18h-3v-18zM622 249h3v18h-3v-18zM271 608h3v18h-3v-18z
M254 850h9v6h-9v-6zM93 333v4h-11v-7h3v3h8zM217 216h2v26h-2v-26zM557 574h1v52h-1v-52zM69 673h2v26h-2v-26zM135 324h4v13h-4v-13zM510 670h4v13h-4v-13zM747 251h13v4h-13v-4zM69 748v-26h2v26h-2zM595 216h2v26h-2v-26zM518 832h5v7h-7v-8h2v1zM458 640h5v6h-12v-3h7
v-3zM135 130h10v5h-10v-5zM425 720v10h-5v-10h5zM850 205v-10h5v10h-5zM420 512h5v10h-5v-10zM664 203h5v10h-5v-10zM803 720v10h-5v-10h5zM736 720v10h-5v-10h5zM140 302h5v10h-5v-10zM512 130h10v5h-10v-5zM323 738v10h-5v-10h5zM508 651v10h-5v-10h5zM418 821v5h-10v-5
h10zM516 642v-7h7v7h-7zM146 283v-7h7v7h-7zM525 839v-7h7v7h-7zM427 270h7v7h-7v-7zM525 642v-7h7v7h-7zM805 270h7v7h-7v-7zM123 346v7h-7v-7h7zM553 276v7h-7v-7h7zM175 315v8h-6v-8h6zM708 221v16h-3v-16h3zM677 410h10v3h-6v6h-3v-6h-1v-3zM834 280h6v8h-6v-8zM842 636
v-8h6v8h-6zM85 392v14h-3v-11h-2v-3h5zM313 420h6v8h-6v-8zM331 472v12h-4v-12h4zM691 420h6v8h-6v-8zM820 412h3v16h-3v-16zM323 580v16h-3v-16h3zM683 563h6v8h-6v-8zM823 462v16h-3v-16h3zM353 563h6v8h-6v-8zM705 251h3v16h-3v-16zM849 636v-8h6v8h-6zM840 879h8v6h-8
v-6zM632 850h9v5h-8v1h-1v-6zM98 511v-23h2v23h-2zM586 835h3v14h-5v-2h2v-12zM299 410h9v3h-5v6h-3v-6h-1v-3zM562 323h5v9h-5v-9zM109 820v-9h5v9h-5zM798 739h5v9h-5v-9zM425 297v5h-9v-5h9zM823 177v15h-3v-15h3zM446 339v15h-3v-15h3zM803 604v9h-5v-9h5zM425 462v5h-9
v-5h9zM425 604v9h-5v-9h5zM503 820v-9h5v9h-5zM132 820v-9h5v9h-5zM823 339v15h-3v-15h3zM420 739h5v9h-5v-9zM446 177v15h-3v-15h3zM652 580v22h-2v-22h2zM475 251h11v4h-11v-4zM526 473h5v7h-6v-8h1v1zM369 516h3v14h-3v-14zM380 646v-6h7v6h-7zM184 253h3v14h-3v-14z
M834 270h6v7h-6v-7zM689 771v7h-6v-7h6zM683 779h6v7h-6v-7zM175 276v7h-6v-7h6zM389 277v-7h6v7h-6zM586 670h3v14h-3v-14zM148 839v-7h6v7h-6zM319 412v7h-6v-7h6zM148 642v-7h6v7h-6zM650 646h2v21h-2v-21zM697 412v7h-6v-7h6zM279 203h4v10h-4v-10zM503 839v-8h5v8h-5z
M135 302h4v10h-4v-10zM306 563h5v8h-5v-8zM211 698v20h-2v-20h2zM731 563h5v8h-5v-8zM798 628h5v8h-5v-8zM140 480v-8h5v8h-5zM516 293v10h-4v-10h4zM145 293v8h-5v-8h5zM140 460v-8h5v8h-5zM780 251h10v4h-10v-4zM132 839v-8h5v8h-5zM331 379v10h-4v-10h4zM850 288v-8h5v8
h-5zM664 420h5v8h-5v-8zM420 628h5v8h-5v-8zM793 251h10v4h-10v-4zM145 315v8h-5v-8h5zM523 130h8v5h-8v-5zM812 502h2v20h-2v-20zM522 293v10h-4v-10h4zM608 768v10h-4v-10h4zM240 768v10h-4v-10h4zM514 651v10h-4v-10h4zM287 203h4v10h-4v-10zM327 203h4v10h-4v-10z
M184 324h3v13h-3v-13zM849 775v-4h1v-3h5v7h-6zM219 339v19h-2v-19h2zM597 339v19h-2v-19h2zM254 724h12v6h-5v-5h-7v-1zM237 410v9h-4v-9h4zM126 820v-9h4v9h-4zM184 346h3v12h-3v-12zM849 885v-6h6v6h-6zM650 831h2v18h-2v-18zM443 416h3v12h-3v-12zM849 646v-6h6v6h-6z
M650 608h2v18h-2v-18zM71 643v18h-2v-18h2zM443 297h3v12h-3v-12zM842 646v-6h6v6h-6zM820 297h3v12h-3v-12zM359 640v6h-6v-6h6zM851 389v-9h4v9h-4zM708 472v12h-3v-12h3zM175 295v6h-6v-6h6zM834 168h6v6h-6v-6zM639 365h12v7h-4v-6h-8v-1zM518 323h4v9h-4v-9zM510 820
v-9h4v9h-4zM149 473h4v7h-5v-8h1v1zM353 850h6v6h-6v-6zM512 323h4v9h-4v-9zM140 283v-7h5v7h-5zM434 297v5h-7v-5h7zM544 635v7h-5v-7h5zM434 462v5h-7v-5h7zM105 394v7h-5v-7h5zM544 654v7h-5v-7h5zM562 276h5v7h-5v-7zM166 635v7h-5v-7h5zM146 130h7v5h-7v-5zM262 365h11
v7h-4v-6h-7v-1zM132 642v-7h5v7h-5zM306 779h5v7h-5v-7zM669 412v7h-5v-7h5zM311 771v7h-5v-7h5zM850 277v-7h5v7h-5zM209 835h2v14h-5v-2h3v-12zM435 554h2v17h-2v-17zM812 554h2v17h-2v-17zM533 159v-4h8v4h-8zM135 460v-8h4v8h-4zM518 480v-8h4v8h-4zM139 293v8h-4v-8h4z
M512 460v-8h4v8h-4zM510 839v-8h4v8h-4zM279 563h4v8h-4v-8zM139 315v8h-4v-8h4zM518 460v-8h4v8h-4zM523 159v-4h8v4h-8zM697 563h4v8h-4v-8zM512 480v-8h4v8h-4zM126 839v-8h4v8h-4zM97 753v8h-4v-8h4zM657 563h4v8h-4v-8zM154 159v-4h8v4h-8zM135 480v-8h4v8h-4zM765 255
v-4h8v4h-8zM632 724h11v6h-4v-5h-7v-1zM780 522v-10h3v10h-3zM823 361v10h-3v-10h3zM849 787v-5h6v5h-6zM681 472v10h-3v-10h3zM814 698v15h-2v-15h2zM814 536v15h-2v-15h2zM812 771h2v15h-2v-15zM731 850h5v6h-5v-6zM300 203h3v10h-3v-10zM793 168h10v3h-10v-3zM834 208h6
v5h-6v-5zM803 640v6h-5v-6h5zM785 527h10v3h-10v-3zM780 168h10v3h-10v-3zM206 850h5v6h-5v-6zM705 203h3v10h-3v-10zM584 850h5v6h-5v-6zM446 361v10h-3v-10h3zM303 472v10h-3v-10h3zM618 768v10h-3v-10h3zM443 153h3v10h-3v-10zM657 203h3v10h-3v-10zM69 826v-15h2v15h-2z
M402 522v-10h3v10h-3zM408 527h10v3h-10v-3zM184 302h3v10h-3v-10zM736 640v6h-5v-6h5zM425 640v6h-5v-6h5zM437 536v15h-2v-15h2zM678 203h3v10h-3v-10zM425 655v6h-5v-6h5zM437 698v15h-2v-15h2zM618 276v7h-4v-7h4zM610 635v7h-4v-7h4zM279 779h4v7h-4v-7zM510 642v-7h4
v7h-4zM657 779h4v7h-4v-7zM283 276v7h-4v-7h4zM240 635v7h-4v-7h4zM181 635v7h-4v-7h4zM77 392v14h-2v-14h2zM188 253h2v14h-2v-14zM283 771v7h-4v-7h4zM71 751v14h-2v-14h2zM518 283v-7h4v7h-4zM661 771v7h-4v-7h4zM240 276v7h-4v-7h4zM557 690h1v28h-1v-28zM146 159v-4h7
v4h-7zM553 476v4h-7v-4h7zM615 410v9h-3v-9h3zM248 410v9h-3v-9h3zM820 380h3v9h-3v-9zM625 410v9h-3v-9h3zM443 380h3v9h-3v-9zM416 168h9v3h-9v-3zM188 324h2v13h-2v-13zM554 670h2v13h-2v-13zM425 821v5h-5v-5h5zM850 213v-5h5v5h-5zM664 361h5v5h-5v-5zM200 435v25h-1
v-25h1zM85 702v2h-12v-2h12zM691 273h6v4h-6v-4zM313 273h6v4h-6v-4zM657 850h4v6h-4v-6zM236 850h4v6h-4v-6zM812 655h2v12h-2v-12zM187 315v8h-3v-8h3zM691 158h6v4h-6v-4zM670 563h3v8h-3v-8zM175 476v4h-6v-4h6zM271 563h3v8h-3v-8zM279 850h4v6h-4v-6zM435 655h2v12h-2
v-12zM188 346h2v12h-2v-12zM300 420h3v8h-3v-8zM69 609h2v12h-2v-12zM293 563h3v8h-3v-8zM823 280v8h-3v-8h3zM525 514h6v4h-6v-4zM154 389v-3h8v3h-8zM657 420h3v8h-3v-8zM606 850h4v6h-4v-6zM533 389v-3h8v3h-8zM683 632h6v4h-6v-4zM146 460v-8h3v8h-3zM313 158h6v4h-6v-4
zM523 460v-8h3v8h-3zM320 563h3v8h-3v-8zM678 420h3v8h-3v-8zM435 775h2v11h-2v-11zM82 346h11v2h-11v-2zM184 432h2v11h-2v-11zM93 351v2h-11v-2h11zM71 594v11h-2v-11h2zM69 634v-11h2v11h-2zM618 635v7h-3v-7h3zM805 168h7v3h-7v-3zM293 779h3v7h-3v-7zM232 635v7h-3v-7
h3zM427 168h7v3h-7v-3zM625 276v7h-3v-7h3zM271 779h3v7h-3v-7zM820 270h3v7h-3v-7zM525 748v-3h7v3h-7zM248 276v7h-3v-7h3zM274 771v7h-3v-7h3zM660 276v7h-3v-7h3zM589 635v7h-3v-7h3zM274 635v7h-3v-7h3zM187 276v7h-3v-7h3zM670 779h3v7h-3v-7zM660 412v7h-3v-7h3z
M589 654v7h-3v-7h3zM287 361h4v5h-4v-5zM166 835v4h-5v-4h5zM279 720h4v5h-4v-5zM188 302h2v10h-2v-10zM544 835v4h-5v-4h5zM229 768v10h-2v-10h2zM657 720h4v5h-4v-5zM697 516h4v5h-4v-5zM306 632h5v4h-5v-4zM140 159v-4h5v4h-5zM437 720v10h-2v-10h2zM100 702v2h-10v-2h10
zM154 130h4v5h-4v-5zM814 720v10h-2v-10h2zM435 512h2v10h-2v-10zM413 443v18h-1v-18h1zM435 502h2v9h-2v-9zM446 270v6h-3v-6h3zM443 168h3v6h-3v-6zM148 748v-3h6v3h-6zM670 850h3v6h-3v-6zM435 739h2v9h-2v-9zM783 802v18h-1v-18h1zM812 739h2v9h-2v-9zM271 850h3v6h-3
v-6zM229 850h3v6h-3v-6zM138 820v-9h2v9h-2zM615 850h3v6h-3v-6zM405 802v18h-1v-18h1zM516 820v-9h2v9h-2zM820 168h3v6h-3v-6zM187 295v6h-3v-6h3zM293 850h3v6h-3v-6zM327 158h4v4h-4v-4zM69 346h8v2h-8v-2zM812 628h2v8h-2v-8zM518 514h4v4h-4v-4zM77 351v2h-8v-2h8z
M472 761v-8h2v8h-2zM135 159v-4h4v4h-4zM512 159v-4h4v4h-4zM697 632h4v4h-4v-4zM188 517h-1v16h1v-16zM518 159v-4h4v4h-4zM327 273h4v4h-4v-4zM650 563h2v8h-2v-8zM190 315v8h-2v-8h2zM420 527h5v3h-5v-3zM503 748v-3h5v3h-5zM446 462v5h-3v-5h3zM669 280v3h-5v-3h5z
M681 280v5h-3v-5h3zM320 516h3v5h-3v-5zM798 527h5v3h-5v-3zM556 635v7h-2v-7h2zM652 635v7h-2v-7h2zM556 654v7h-2v-7h2zM772 530v-14h1v14h-1zM211 635v7h-2v-7h2zM597 276v7h-2v-7h2zM650 779h2v7h-2v-7zM219 276v7h-2v-7h2zM480 401v-7h2v7h-2zM190 276v7h-2v-7h2z
M652 771v7h-2v-7h2zM303 280v5h-2v-2h-1v-3h3zM196 365h13v1h-13v-1zM567 724h13v1h-13v-1zM557 670h1v13h-1v-13zM187 476v4h-3v-4h3zM575 365h12v1h-12v-1zM814 640v6h-2v-6h2zM360 751v3h-4v-3h4zM190 295v6h-2v-6h2zM678 273h3v4h-3v-4zM650 850h2v6h-2v-6zM539 512h2v6
h-2v-6zM293 632h3v4h-3v-4zM135 389v-3h4v3h-4zM300 273h3v4h-3v-4zM291 280v3h-4v-3h4zM437 628v6h-2v-6h2zM126 748v-3h4v3h-4zM512 389v-3h4v3h-4zM705 158h3v4h-3v-4zM705 273h3v4h-3v-4zM320 632h3v4h-3v-4zM670 632h3v4h-3v-4zM177 791h1v11h-1v-11zM562 432h1v11h-1
v-11zM190 724h11v1h-11v-1zM554 791h1v11h-1v-11zM437 821v5h-2v-5h2zM812 527h2v5h-2v-5zM435 527h2v5h-2v-5zM793 329v-5h2v5h-2zM443 285h3v3h-3v-3zM780 530v-3h3v3h-3zM368 392v3h-3v-3h3zM296 640v3h-3v-3h3zM402 530v-3h3v3h-3zM77 285v1h-8v-1h8zM283 640v2h-4v-2h4
zM512 518v-4h2v4h-2zM556 835v4h-2v-4h2zM673 640v3h-2v-1h-1v-2h3zM661 640v2h-4v-2h4zM558 654v7h-1v-7h1zM558 635v7h-1v-7h1zM435 643h2v3h-2v-3zM215 517h-6v1h6v-1zM416 329v-5h1v5h-1zM539 724h5v1h-5v-1zM562 365h5v1h-5v-1zM161 724h5v1h-5v-1zM664 276h5v1h-5v-1z
M408 688v-4h1v4h-1zM177 724h4v1h-4v-1zM71 702v2h-2v-2h2zM287 276h4v1h-4v-1zM279 635h4v1h-4v-1zM785 688v-4h1v4h-1zM657 635h4v1h-4v-1zM279 365h4v1h-4v-1zM187 412v1h-3v-1h3zM586 724h3v1h-3v-1zM184 365h3v1h-3v-1zM657 365h3v1h-3v-1zM271 724h3v1h-3v-1zM217 365
h2v1h-2v-1zM188 365h2v1h-2v-1zM595 365h2v1h-2v-1zM556 771v1h-2v-1h2zM554 724h2v1h-2v-1zM650 724h2v1h-2v-1zM209 724h2v1h-2v-1zM557 724h1v1h-1v-1z" />
    <glyph glyph-name="yinyang" unicode="&#x262f;" horiz-adv-x="792" 
d="M643 980h8h153v-850h-823v850h662zM403 814v5h5v9h2v-9h14v3h10v-3h4v11h2v19h10v4h39v5h-71v-23h-14v15h-1v7h1v1h-1v8h1v5h-1v3h1v5h-1v1h1v1h-1v1h1v2h-1v14h-16v-16h-9v-4h9v-156h12v33h1v-5h5v34h3v30h-5zM657 193v-13h16v2h7v-2h11v2h8v-2h13v2h2v-2h30v7h2v-7h25
v68h-14v-4h-15v4h-6v-12h30v-2h-30v-1h-1v1h-28v-10h44v-3h-44v-5h40v-9h-40v-2h52v-12h-52v-3h-19v3h-31zM16 486v-34h23v-6h-23v-11h9v-1h-9v-2h37v9h2v-9h14v4h11v-4h3v11h3v20h9v3h37v7h-68v-24h-17v24h-23v4h-3v9h-5zM185 675v-17h12v3h26v25h33v4h-24v10h24v6h-27v-4
h-32v4h-22v-4h-2v4h-5v-6h1v-10h-1v-4h3v-17h-3v-11h8v17h9zM185 301v-16h12v2h26v26h33v3h-24v8h24v6h-27v-5h-32v5h-22v-5h-2v5h-5v-6h1v-8h-1v-3h3v-18h-3v-10h8v16h9zM539 309v-17h12v3h24v25h34v4h-25v8h25v5h-27v-4h-31v4h-21v-4h-3v4h-3v-17h2v-17h-2v-11h6v17h9z
M302 728h7v3h1v-3h8v3h34v-71h-20v-5h14v-8h5v8h9v-7h23v8h-17v2h17v6h-14v2h14v3h-23v-9h-2v189h-6v-105h-43v-3h-7v-4h7v-5h-7v-4zM539 682v-16h12v3h24v27h34v3h-25v9h25v5h-27v-4h-31v4h-21v-4h-3v4h-3v-17h2v-20h-2v-10h6v16h9zM733 556h38v65h-14v-1h-15v1h-6v-10h30
v-3h-30v-1h-1v1h-2v-10h18v-2h-18v-5h14v-9h-14v-2h26v-9h7v-3h-33v-12zM16 427v-88h5v6h1v64h5v13h11v-51h3v-2h2v-12h3v3h4v36h3v31h-37zM141 914v-4h33v11h-24v-3h-4v3h-18v-2h-5v2h-33v-1h-6v1h-11v-8h-5v8h-10v-4h-3v4h-12v-2h-2v-9h54v9h14v-9h29v4h3zM26 832v-7h-10
v-7h18v-7h19v10h2v-10h14v3h11v-3h3v11h3v10h-22v-4h-17v4h-21zM657 840h-35v-7h15v-5h20v-4h-17v-18h20v18h-2v4h7v5h11v7h-18v2h-1v-2zM640 445v-17h20v17h-2v4h7v5h11v8h-54v-8h15v-5h20v-4h-17zM30 805v-4h8v-51h3v-2h2v-15h3v4h4v38h3v30h-23zM302 454h-33v-7h13v-6h20
v-4h-17v-17h20v17h-2v4h7v6h11v7h-18v3h-1v-3zM398 934h74v12h-74v-4h7v-5h-7v-3zM398 462v-23h10v10h2v-10h14v4h10v-4h4v12h2v11h-22v-5h-14v5h-6zM285 816v-17h20v17h-2v5h7v5h11v6h-52v-6h13v-5h20v-5h-17zM208 788v-3h-27v-4h27v-5h-27v-3h67v15h-40zM582 282v-10h-21
v-18h36v28h-15zM450 472v3h60v3h3v2h-95v-17h22v9h10zM561 415v-2h-26v-4h26v-5h-26v-3h67v14h-41zM757 292h14v80h-5v-2h-9v-2h8v-5h-8v-4h5v-9h-5v-3h13v-10h-13v-17h9v-17h-9v-11zM95 840v4h43v6h-74v-17h22v7h9zM455 171v6h-17v-4h6v-5h-6v-2h-3v2h-135v-4h155v6h-9v1h9
zM338 407h-28v-3h30v-7h-30v-3h9v-2h27v2h3v77h-5v-64h-5v47h-1v-47zM771 526v25h-38v-10h28v-8h-28v-7h38zM397 544h-10v4h10v3h-10v5h10v3h-10v32h10v5h-1v-4h-9v7h-4v1h-7v-9h6v-2h-6v-6h6v-24h-6v-11h6v-4h-6v-3h6v-1h5v1h10v3zM423 788h1v26h-14v-30h4v-29h2v-8h7v20
h-2v14h2v7zM423 408h1v27h-14v-31h4v-27h2v-9h7v19h-2v14h2v7zM561 794v-2h-26v-3h26v-4h-26v-4h67v13h-41zM16 283v-87h35v3h-27v8h27v7h-13v-5h-16v17h-5v3h5v54h-6zM229 647v-11h-21v-15h36v26h-15zM208 407v-2h-27v-4h27v-4h-27v-3h67v13h-40zM464 919h25v10h-6v-3h-5
v-4h-6v7h-74v-3h13v-5h-13v-2h52v8h14v-8zM757 666h14v78h-6v-3h-8v-4h5v-11h-5v-3h13v-10h-13v-17h9v-20h-9v-10zM68 399h1v28h-14v-31h5v-27h2v-9h6v20h-2v14h2v5zM68 780h1v25h-14v-30h5v-27h2v-11h6v22h-2v14h2v7zM458 452v-13h52v13h-52zM208 263v-2h7v-6h-7v-8h36v27
h-15v-11h-21zM771 905v24h-38v-10h28v-9h-28v-5h38zM398 435v-3h6v-5h-6v-50h2v-7h5v34h3v31h-10zM300 185v-12h116v4h-5v-3h-5v3h-94v5h17v3h-29zM582 819h20v11h-30v-4h-4v4h-30v-11h30v5h14v-5zM360 516h41v14h-41v-14zM360 647v-26h23v26h-23zM383 274h-23v-27h23v27z
M269 313h32v-8h24v18h-15v-15h-1v15h-8v-6h-32v-4zM458 830v-11h52v11h-52zM622 320h34v-6h26v16h-17v-14h-1v14h-8v-5h-34v-5zM62 544h-21v-11h54v9h6v2h-18v-9h-3v9h-15v-6h-3v6zM771 950h-38v-2h33v-2h-33v-12h38v16zM464 526h81v7h-21v-2h-4v2h-8v-2h-15v2h-33v-7z
M16 562v-29h24v11h-18v4h18v11h-18v3h-6zM383 295h-23v-9h-28v-4h14v-7h5v7h9v-6h23v7h-17v2h17v5h-14v2h14v3zM582 439h20v13h-28v-6h-7v6h-13v-13h14v5h14v-5zM326 388v-10h16v4h4v8h-27v-2h-9v-18h8v8h7v10h1zM554 544v-3h43v10h-15v-2h-7v-3h-7v5h-29v-10h6v3h9z
M229 811h19v13h-43v-13h9v4h15v-4zM247 360h1v3h-1v7h1v10h-19v-10h7v-7h-7v-3h7v-4h-7v-5h21v5h-3v4zM771 487v29h-29v-5h24v-2h-24v-4h27v-2h-27v-1h15v-6h13v-2h-13v-7h14zM623 299v-7h11v11h-52v-11h32v7h9zM270 665v-7h9v11h-50v-11h32v7h9zM771 865v28h-29v-4h24v-2
h-24v-5h27v-1h-27v-1h15v-7h13v-2h-13v-6h14zM717 282v-28h18v28h-18zM420 282v-28h18v28h-18zM723 664v2h12v10h-18v-8h-28v-5h14v-7h5v7h9v-5h18v6h-12zM247 737h1v4h-1v9h1v9h-1v1h-11v-1h-7v-9h7v-9h-7v-4h7v-5h-7v-4h21v4h-3v5zM683 396v-11h17v6h3v6h-30v-1h-8v-17h7
v6h10v11h1zM757 435v-8h14v35h-14v-23h6v-4h-6zM683 775v-10h17v5h3v7h-30v-2h-8v-17h7v7h10v10h1zM326 767v-10h16v5h4v7h-27v-2h-9v-17h8v7h7v10h1zM320 776h-10v-3h9v-2h27v17h-36v-4h30v-8h-1v4h-19v-4zM270 290v-5h9v10h-50v-10h32v5h9zM16 525v-8h5v2h22v-2h4v7h17v-7
h31v8h-54v-4h-1v4h-24zM599 747h3v3h-3v8h3v9h-20v-9h7v-8h-7v-3h7v-6h-7v-4h20v4h-3v6zM599 368h3v2h-3v9h3v8h-3v1h-10v-1h-7v-8h7v-9h-7v-2h7v-5h-7v-4h20v4h-3v5zM717 655v-26h18v26h-18zM22 627h-6v-54h24v3h-16v7h16v6h-2v-4h-16v15h-5v3h5v24zM280 496h-56v-8h56v8z
M723 290v2h12v11h-18v-9h-28v-4h14v-7h5v7h9v-5h18v5h-12zM623 672v-6h11v10h-52v-10h32v6h9zM416 551h-18v-3h13v-4h-13v-3h52v9h5v1h-17v-7h-3v7h-15v-5h-4v5zM104 811h34v13h-34v-13zM279 525h-55v-8h55v8zM301 699v-1h1v-19h23v20h-15v-17h-1v17h-8zM464 282v-28h16v28
h-16zM40 950h-24v-23h24v10h-18v5h18v8zM383 226h-33v-10h56v5h-10v-3h-13v8zM302 647v-26h16v26h-16zM302 274v-27h16v27h-16zM190 897v-1h10v7h-59v-7h48v1h1zM657 706v-19h25v19h-17v-16h-1v16h-7zM200 522v3h-32v-2h-3v2h-7v-2h-15v2h-4v-8h52v5h9zM634 533h-60v-7h60v7
zM634 503h-60v-7h60v7zM657 282v-28h15v28h-15zM214 437h8v7h-39v-12h31v5zM22 785h-6v-69h5v5h1v64zM37 903v-1h-20v1h-1v-7h5v1h22v-1h4v6h17v-6h31v7h-54v-4h-1v4h-3zM507 946v-12h38v12h-18v-7h-9v5h-2v1h2v1h-11zM762 406v-20h9v35h-14v-15h5zM483 556h14v12h-33v-12
h13v1h6v-1zM507 929v-10h38v10h-38zM757 254h14v28h-14v-28zM24 853h-8v-4h10v-16h21v17h-23v3zM657 655v-26h15v26h-15zM355 950h-49v-8h28v6h6v-6h15v8zM109 548h14v1h5v-1h15v11h-34v-11zM703 415h-38v-4h32v-7h-32v-3h8v-2h30v16zM464 193v-11h33v11h-33zM691 946h-30
v-12h30v12zM691 567h-3v1h-27v-12h30v11zM757 629h14v26h-14v-26zM597 170h-58v-6h58v6zM383 435h-6v4h6v15h-15v3h-4v-5h12v-8h-12v-12h19v3zM513 494h-49v-7h49v7zM513 503h-49v-7h49v7zM104 432h28v12h-28v-12zM266 486h-42v-8h42v8zM65 226v-10h36v10h-10v-3h-8v3h-18z
M420 608v-10h35v10h-8v-2h-9v2h-18zM420 234v-10h35v10h-8v-2h-9v2h-18zM334 937h-28v-11h28v11zM334 921h-28v-11h28v11zM334 544h-28v-11h28v11zM703 794h-38v-2h32v-7h-32v-4h8v-2h30v15zM597 171v22h-15v-22h15zM383 814h-6v5h6v13h-19v-2h12v-6h-12v-13h19v3zM334 558
h-3v1h-25v-11h28v10zM539 282v-28h12v28h-12zM337 614h-35v-11h16v4h19v7zM464 541h33v10h-14v-2h-6v2h-13v-10zM133 669v-11h32v11h-4v-6h-6v6h-22zM229 608v-5h15v11h-36v-6h6v-5h5v5h10zM227 164h15v21h-15v-21zM619 494h-45v-7h45v7zM539 193v-22h29v3h-17v19h-12z
M213 535v-2h9v5h-8v6h-29v-11h15v2h13zM185 647v-26h12v26h-12zM606 946v-12h28v12h-28zM488 303v-11h32v11h-4v-7h-6v7h-22zM280 873h-44v-7h44v7zM684 714h22v14h-22v-14zM327 330h22v13h-22v-13zM65 600v-9h36v9h-10v-3h-8v3h-18zM691 929h-30v-10h30v10zM691 551h-30
v-10h30v10zM526 516h-50v-2h-3v2h-9v-5h49v1h6v-1h7v5zM582 242v-6h15v12h-36v-6h7v-6h4v6h10zM300 274v11h-21v-2h-9v-7h9v-2h21zM383 239h-23v-3h-10v-7h33v5h-4v2h4v3zM337 239h-35v-10h16v4h19v6zM327 706h22v13h-22v-13zM684 338h22v13h-22v-13zM488 676v-10h32v10h-4
v-6h-6v6h-22zM229 234v-5h15v10h-36v-5h6v-5h5v5h10zM707 244v-8h28v12h-18v-4h-10zM691 881h-34v-8h34v8zM334 496h-32v-8h32v8zM334 865h-32v-8h32v8zM334 486h-32v-8h32v8zM604 282v-28h10v28h-10zM402 274v-20h12v20h-12zM535 873h33v8h-33v-8zM229 432h19v12h-24v-7h5
v-5zM251 621h10v26h-10v-26zM251 247h10v27h-10v-27zM634 929h-28v-10h28v10zM493 910v-5h52v5h-52zM582 617v-6h15v10h-36v-4h7v-6h4v6h10zM575 942v-8h8v12h-26v-12h11v8h7zM285 163h3l2 86h-3zM402 533v-7h2v6h14v-6h32v7h-48zM360 370h23v10h-23v-10zM387 600h4v64h-4
v-64zM597 636h-36v-7h36v7zM71 759v-22h12v22h-12zM71 380v-20h12v20h-12zM654 282v10h-20v-2h-11v-5h11v-3h20zM350 207h33v7h-33v-7zM348 185v-3h58v11h-6l-2 -8h-50zM623 282v-28h11v28h-11zM488 282v-28h9v28h-9zM83 585v-2h18v6h-36v-6h15v2h3zM83 210v-3h18v7h-36v-7
h15v3h3zM374 489h20v11h-20v-11zM109 370h22v10h-22v-10zM266 865h-30v-8h30v8zM617 719h26v10h-26v-10zM617 342h26v10h-26v-10zM264 333h24v10h-24v-10zM208 382h40v6h-40v-6zM325 252h17v15h-17v-15zM334 873h-32v-7h32v7zM691 503h-34v-7h34v7zM757 463h14v17h-14v-17z
M691 494h-34v-7h34v7zM302 466h32v7h-32v-7zM109 544v-11h23v11h-4v-3h-5v3h-14zM440 874v-1h10v8h-32v-8h2v1h20zM729 172v-1h15v8h-30v-8h10v1h5zM270 274v-27h9v27h-9zM65 647v-13h18v13h-18zM65 274v-13h18v13h-18zM270 647v-26h9v26h-9zM109 857h29v8h-29v-8zM86 489
v-1h9v8h-31v-8h1v1h21zM619 516h-45v-5h45v5zM557 929v-10h26v10h-8v-5h-7v5h-11zM133 656v-8h32v8h-32zM179 921v-11h21v11h-12v-9h-1v9h-8zM629 509v-1h-10v1h-45v-4h60v4h-5zM183 811h17v13h-17v-13zM604 193v-22h10v22h-10zM427 387v-19h11v19h-11zM427 767v-20h11v20
h-11zM150 937v-11h24v11h-1v-5h-9v5h-14zM139 295v-10h26v10h-4v-7h-6v7h-16zM634 881h-29v-8h29v8zM327 525h-25v-8h25v8zM447 282v-28h8v28h-8zM264 711h24v9h-24v-9zM512 282v-28h8v28h-8zM721 462v-1h12v-9h-12v-13h14v23h-14zM279 501h-3v-1h-10v1h-42v-4h56v3h-1v1z
M292 581h-3v17h-3v-17h-7v-4h7v-2h3v2h3v-7h2v7h6v4h-6v5h-2v-5zM249 185v-21h10v21h-10zM109 647v-13h16v13h-16zM109 274v-13h16v13h-16zM721 838h12v-8h-12v-11h14v21h-10v2h-4v-4zM360 750h23v9h-23v-9zM383 614h-23v-4h-10v-7h5v5h21v-5h7v5h-4v3h4v3zM561 391h41v5
h-41v-5zM561 770h41v5h-41v-5zM224 541v-8h20v11h-15v-3h-5zM438 568v-12h17v12h-17zM107 185v-6h34v6h-34zM691 871h-34v-6h34v6zM440 497v-1h10v7h-32v-7h2v1h20zM302 844h32v6h-32v-6zM109 866h29v7h-29v-7zM109 896h29v7h-29v-7zM208 762h40v5h-40v-5zM464 873h25v8h-25
v-8zM65 614v-11h18v11h-18zM279 879h-3v-2h-10v2h-30v-5h44v3h-1v2zM420 303v-11h18v11h-18zM420 248v-12h18v12h-18zM255 382h33v6h-33v-6zM137 380v-10h18v10h-18zM497 170h-33v-6h33v6zM497 177h-33v-6h33v6zM109 750h22v9h-22v-9zM464 758h22v9h-22v-9zM464 379h22v8
h-22v-8zM83 559v-11h18v11h-18zM65 669v-11h18v11h-18zM86 867v-1h9v7h-31v-7h1v1h21zM513 509h-49v-4h49v4zM771 801h-14v-13h14v13zM717 337v-5h16v-8h-16v-4h18v17h-18zM34 180v-1h15v6h-33v-6h15v1h3zM181 380v-7h-6v-3h22v10h-16zM488 664v-6h32v6h-32zM183 185v-6h9
v-10h-9v-5h29v2h-17v19h-12zM538 865h30v6h-33v-4h3v-2zM139 444v-12h16v12h-16zM327 903h-25v-7h25v7zM684 533h-27v-7h27v7zM129 937v-11h17v11h-17zM90 937v-11h17v11h-17zM757 858v-8h9v-15h5v23h-14zM438 193v-11h17v11h-17zM402 910v-5h2v4h14v-4h32v5h-48zM109 517
h23v8h-23v-8zM109 478h23v8h-23v-8zM109 488h23v8h-23v-8zM141 824v-13h14v13h-14zM139 283v-7h26v7h-26zM420 676v-10h18v10h-18zM420 621v-10h18v10h-18zM65 295v-10h18v10h-18zM65 239v-10h18v10h-18zM582 568v-12h15v12h-15zM420 568v-12h15v12h-15zM420 655v-11h18v11
h-18zM302 669v-11h16v11h-16zM109 658h16v11h-16v-11zM109 614v-11h16v11h-16zM464 292h16v11h-16v-11zM464 248v-12h16v12h-16zM317 799h23v7h-23v-7zM397 937h-21v-11h21v3h-14v5h14v3zM73 949v-7h11v8h-26v-8h10v7h5zM657 475h34v5h-34v-5zM657 853h34v5h-34v-5zM141 169
h-34v-5h34v5zM46 274v-13h13v13h-13zM438 593v-2h17v5h-35v-5h15v2h3zM46 647v-13h13v13h-13zM266 507h-42v-4h42v4zM224 473v-7h24v7h-24zM291 658h-4v-11h4v-5h4v5h1v11h-1v14h-4v-14zM438 219v-3h17v5h-35v-5h15v3h3zM37 913v-3h3v10h-24v-10h1v3h20zM168 647v-13h6v-7
h-6v-6h8v26h-8zM608 770h35v5h-35v-5zM608 391h35v5h-35v-5zM229 559v-11h15v11h-15zM65 559v-11h15v11h-15zM657 303v-11h15v11h-15zM657 248v-12h15v12h-15zM255 762h33v5h-33v-5zM279 903h-13v-1h-3v1h-8v-7h24v7zM535 882h33v5h-33v-5zM420 193v-11h15v11h-15zM717 713
v-5h16v-9h-16v-3h18v17h-18zM524 254h6v28h-6v-28zM137 759v-9h18v9h-18zM492 387v-8h18v8h-18zM492 767v-9h18v9h-18zM717 387v-8h18v8h-18zM717 767v-9h18v9h-18zM736 282v-28h6v28h-6zM302 295v-10h16v10h-16zM302 226v-10h16v10h-16zM464 666h16v10h-16v-10zM464 611h16
v10h-16v-10zM109 239v-10h16v10h-16zM109 285h16v10h-16v-10zM450 516h-32v-5h32v5zM450 887h-32v-5h32v5zM464 598h16v10h-16v-10zM464 234v-10h16v10h-16zM109 226v-10h16v10h-16zM488 290v-5h32v5h-32zM513 881h-20v-8h20v8zM464 655v-11h16v11h-16zM657 379h7v17h-10
v-11h3v-6zM185 274v-13h12v13h-12zM181 759v-7h-6v-2h22v9h-16zM447 781h39v4h-39v-4zM327 879h-25v-5h32v3h-7v2zM684 887h-27v-5h34v3h-7v2zM382 706h-22v-6h16v-4h6v10zM382 330h-22v-6h16v-4h6v10zM707 619v-8h5v5h21v-5h2v10h-18v-2h-10zM302 370h7v18h-9v-10h2v-8z
M95 879h-31v-5h31v5zM205 896h22v7h-22v-7zM535 387v-7h-5v-1h21v8h-16zM535 767v-7h-5v-2h21v9h-16zM398 948h74v2h-74v-2zM397 950h-21v-8h21v4h-14v2h14v2zM158 486h-19v-8h19v8zM158 496h-19v-8h19v8zM582 655v-11h15v11h-15zM464 865h25v6h-25v-6zM657 676v-10h15v10
h-15zM657 621v-10h15v10h-15zM736 655v-26h6v26h-6zM657 234v-10h15v10h-15zM582 224h15v10h-15v-10zM582 598h15v10h-15v-10zM229 216h15v10h-15v-10zM538 853h30v5h-30v-5zM657 758h7v17h-10v-10h3v-7zM634 170h-11v-6h30v5h-19v1zM557 910v-5h31v5h-2v-3h-3v3h-26z
M109 874h29v5h-29v-5zM83 255h-18v-8h18v8zM493 946v-12h12v12h-12zM539 568v-12h12v12h-12zM109 600v-9h16v9h-16zM279 921h-13v-11h13v11zM266 937v-11h13v11h-13zM104 452h28v5h-28v-5zM574 480v-5h28v5h-28zM302 750h7v17h-9v-10h2v-7zM736 462v-23h6v23h-6zM90 950v-8
h17v8h-17zM434 814v-33h4v33h-4zM434 435v-34h4v34h-4zM129 950v-8h17v8h-17zM158 865h-17v-8h17v8zM684 910h-27v-5h27v5zM229 591h15v9h-15v-9zM684 516h-27v-5h27v5zM478 934h11v12h-11v-12zM43 937v-11h12v11h-12zM185 559v-11h12v11h-12zM302 600v-6h4v-3h12v9h-16z
M188 926h12v11h-12v-11zM736 840v-21h6v21h-6zM416 337v-5h22v5h-22zM185 614v-11h12v11h-12zM539 248v-12h12v12h-12zM712 946h-15v-12h9v8h6v4zM608 781h35v4h-35v-4zM255 784h33v4h-33v-4zM608 411h35v4h-35v-4zM109 700h22v6h-22v-6zM464 332h22v5h-22v-5zM526 893h-33
v-4h33v4zM91 647v-13h10v13h-10zM133 634h10v13h-10v-13zM91 274v-13h10v13h-10zM634 910h-28v-5h28v5zM657 608v-5h4v-5h11v10h-15zM38 216h13v10h-13v-10zM131 327v3h-22v-6h21v3h1zM684 509h-27v-4h34v3h-7v1zM327 501h-25v-4h32v3h-7v1zM171 507h-32v-4h32v4zM125 255
h-16v-8h16v8zM572 881v-8h16v8h-16zM450 893h-32v-4h32v4zM450 509h-32v-4h32v4zM712 568h-5v-1h-10v-11h9v7h6v5zM16 656v-22h6v22h-6zM438 636h-18v-7h18v7zM62 706v-6h21v6h-21zM62 330v-6h21v6h-21zM65 656v-8h18v8h-18zM65 283v-7h18v7h-18zM464 882h25v5h-25v-5z
M464 905h25v5h-25v-5zM458 838h31v4h-31v-4zM95 884h-31v-4h31v4zM95 501h-31v-4h31v4zM95 507h-31v-4h31v4zM450 494h-10v-5h-20v5h-2v-7h32v7zM95 486h-9v-6h-21v6h-1v-8h31v8zM73 937v-11h11v11h-11zM112 937v-11h11v11h-11zM321 426h13v8h-13v-8zM224 457v-5h24v5h-24z
M539 655v-11h12v11h-12zM538 838h30v4h-30v-4zM513 871h-20v-6h20v6zM693 248h-20v-7h20v7zM693 621h-20v-6h20v6zM91 773h40v3h-40v-3zM91 394h40v3h-40v-3zM539 621v-10h12v10h-12zM185 239v-10h12v10h-12zM185 226v-10h12v10h-12zM539 234v-10h12v10h-12zM604 568v-12h10
v12h-10zM266 884h-30v-4h30v4zM493 929v-10h12v10h-12zM746 179v-8h15v8h-15zM158 873h-17v-7h17v7zM139 473v-7h16v5h3v2h-19zM623 193v-13h11v13h-11zM205 921v-11h12v6h-3v5h-9zM447 401h39v3h-39v-3zM38 591h13v9h-13v-9zM56 613v-10h3v11h-13v-8h-8v-3h13v10h5z
M353 409h2v58h-2v-58zM629 887v-2h-10v2h-14v-5h29v5h-5zM49 169h-15v-5h26v5h-6v-3h-5v3zM171 884h-30v-4h17v1h6v-1h7v4zM480 636h-16v-7h16v7zM164 950h-14v-8h14v8zM383 356h-23v-5h22v3h1v2zM109 207h16v7h-16v-7zM109 276h16v7h-16v-7zM109 589v-6h16v6h-16zM109 648
h16v8h-16v-8zM458 413v-4h28v4h-28zM450 871h-10v-4h-20v4h-2v-6h32v6zM302 283v-7h16v7h-16zM302 656v-8h16v8h-16zM302 214v-7h16v7h-16zM292 480h3v37h-3v-37zM58 937v-11h10v11h-10zM416 713v-5h22v5h-22zM251 559v-11h10v11h-10zM41 548h10v11h-10v-11zM251 603h10v11
h-10v-11zM604 236h10v12h-10v-12zM464 708h22v5h-22v-5zM251 544v-11h10v11h-10zM91 669v-11h10v11h-10zM133 603h10v11h-10v-11zM91 614v-11h10v11h-10zM109 351h22v5h-22v-5zM175 356v-5h22v5h-22zM91 380v-10h10v10h-10zM109 880h29v4h-17v-2h-3v2h-9v-4zM355 937h-15
v-11h8v8h7v3zM83 627h-18v-6h18v6zM268 185v-12h9v12h-9zM535 889h33v4h-11v-2h-12v2h-10v-4zM217 934v3h-12v-11h9v8h3zM137 706v-6h18v6h-18zM104 785v-4h27v4h-27zM492 337v-5h18v5h-18zM104 405v-4h27v4h-27zM684 893h-27v-4h27v4zM327 884h-25v-4h25v4zM327 507h-25v-4
h25v4zM736 337v-17h6v17h-6zM420 664v-6h18v6h-18zM623 568v-12h11v12h-11zM229 207h15v7h-15v-7zM229 276h15v7h-15v-7zM229 583h15v6h-15v-6zM229 648h15v8h-15v-8zM265 417h7v15h-7v-15zM279 950h-13v-8h13v8zM458 465v-2h52v2h-52zM59 255h-13v-8h13v8zM168 274v-13h8
v13h-8zM699 179v-8h13v8h-13zM214 865v-8h13v8h-13zM109 196h34v3h-34v-3zM109 573h34v3h-34v-3zM736 713v-17h6v17h-6zM104 833h34v2h-34v-2zM137 330v-3h2v-3h16v6h-18zM95 865h-9v-7h-21v7h-1v-8h31v8zM91 295v-10h10v10h-10zM91 239v-10h10v10h-10zM251 229h10v10h-10
v-10zM604 644h10v11h-10v-11zM604 611h10v10h-10v-10zM604 551v-10h10v10h-10zM513 887h-20v-5h20v5zM604 598h10v10h-10v-10zM604 224h10v10h-10v-10zM251 216h10v10h-10v-10zM608 401h35v3h-35v-3zM255 404h33v3h-33v-3zM255 394h33v3h-33v-3zM80 427v-33h3v33h-3z
M488 236h9v12h-9v-12zM270 559v-11h9v11h-9zM270 614v-11h9v11h-9zM623 248v-12h11v12h-11zM279 544h-9v-11h9v11zM62 356v-5h21v5h-12v-2h-3v2h-6zM355 559h-5v-1h-10v-10h8v8h7v3zM255 773h33v3h-33v-3zM80 805v-32h3v32h-3zM46 669v-11h13v6h-9v5h-4zM41 949h2v-7h12v8
h-14v-1zM414 636h-12v-7h12v7zM464 658h16v6h-16v-6zM205 950v-8h12v8h-12zM188 942h12v8h-12v-8zM572 871v-6h16v6h-16zM197 255h-12v-8h12v8zM125 627h-16v-6h16v6zM271 731h12v9h-12v-9zM464 889h25v4h-13v-2h-3v2h-9v-4zM668 176v-5h5v8h-16v-8h4v5h7zM109 497h23v4h-23
v-4zM360 781h23v4h-23v-4zM360 737h23v4h-23v-4zM360 401h23v4h-23v-4zM46 283v-7h13v7h-13zM538 439h7v13h-7v-13zM46 656v-8h13v8h-13zM164 811h7v13h-7v-13zM519 439h7v13h-7v-13zM214 873v-7h13v7h-13zM493 858v-5h17v3h3v2h-20zM554 533v-7h13v7h-13zM554 503v-7h13v7
h-13zM554 494v-7h13v7h-13zM158 274v-13h7v13h-7zM158 647v-13h7v13h-7zM623 234v-10h11v10h-11zM16 706v-20h5v20h-5zM270 226v-10h9v10h-9zM208 413h18v5h-18v-5zM208 792h18v4h-18v-4zM137 356v-5h18v5h-18zM383 732h-23v-4h22v2h1v2zM492 713v-5h18v5h-18zM251 591h10v9
h-10v-9zM420 290v-5h18v5h-18zM488 611h9v10h-9v-10zM488 598h9v10h-9v-10zM133 591h10v9h-10v-9zM488 224h9v10h-9v-10zM657 664v-6h15v6h-15zM582 658h15v6h-15v-6zM623 621v-10h11v10h-11zM270 239v-10h9v10h-9zM91 759v-9h10v9h-10zM634 551h-11v-10h11v10zM706 929h-9
v-10h9v10zM623 608v-10h11v10h-11zM706 551h-9v-10h9v10zM63 185v-6h15v6h-15zM141 850v-6h14v4h3v2h-17zM488 644h9v11h-9v-11zM623 655v-11h11v11h-11zM744 170h-15v-6h15v6zM761 170h-15v-6h15v6zM370 900h16v5h-16v-5zM175 732v-4h22v4h-22zM447 303v-11h8v11h-8z
M179 937v-11h8v11h-8zM464 737h22v4h-22v-4zM109 728h22v4h-22v-4zM512 248v-12h8v12h-8zM175 741v-4h22v4h-22zM109 737h22v4h-22v-4zM168 603h8v11h-8v-11zM348 921h-8v-11h8v11zM416 324v-4h22v4h-22zM112 950v-8h11v8h-11zM643 666v-11h8v11h-8zM464 359h22v4h-22v-4z
M348 544h-8v-11h8v11zM168 544v-11h8v11h-8zM447 248v-12h8v12h-8zM255 921v-11h8v11h-8zM255 937v-11h8v11h-8zM680 179v-8h11v8h-11zM512 193v-11h8v11h-8zM396 229h9v-3h-9v-2h10v10h-10v-5zM396 603h9v-3h-9v-2h10v10h-10v-5zM109 503h23v4h-11v-2h-3v2h-9v-4zM183 452
h17v5h-17v-5zM46 295v-10h13v5h-9v5h-4zM16 330v-17h5v17h-5zM158 879h-17v-5h17v5zM402 664v-6h12v6h-12zM619 871h-14v-6h14v6zM530 363v-4h21v4h-21zM416 363v-4h22v4h-11v-1h-4v1h-7zM458 433v-3h28v3h-28zM185 283v-7h12v7h-12zM62 690v-4h21v4h-21zM458 792v-3h28v3
h-28zM306 589v-6h12v6h-12zM757 658h14v6h-14v-6zM402 282v-6h12v6h-12zM185 214v-7h12v7h-12zM185 656v-8h12v8h-12zM416 741v-4h22v4h-11v-1h-4v1h-7zM402 655v-7h12v7h-12zM164 432h7v12h-7v-12zM551 636h-12v-7h12v7zM530 741v-4h21v4h-21zM270 600v-9h9v9h-9zM229 719
v-3h27v3h-27zM582 350v-3h27v3h-27zM62 732v-4h21v4h-12v-1h-3v1h-6zM582 726v-3h27v3h-27zM229 342v-3h27v3h-27zM512 234v-10h8v10h-8zM464 221v-5h16v5h-16zM512 551v-10h8v10h-8zM168 216h8v10h-8v-10zM512 655v-11h8v11h-8zM512 621v-10h8v10h-8zM447 676v-10h8v10h-8z
M464 285h16v5h-16v-5zM572 887v-5h16v5h-16zM139 457v-5h16v5h-16zM190 865v-8h10v8h-10zM101 255h-10v-8h10v8zM181 488h10v8h-10v-8zM447 655v-11h8v11h-8zM447 621v-10h8v10h-8zM168 229h8v10h-8v-10zM512 568v-12h8v5h-2v5h-2v1h2v1h-6zM572 858v-5h16v5h-16zM512 608
v-10h8v10h-8zM464 596v-5h16v5h-16zM59 627h-13v-6h13v6zM214 850v-6h13v6h-13zM712 170h-13v-6h13v6zM158 614v-11h7v11h-7zM164 370h7v10h-7v-10zM519 819h7v11h-7v-11zM158 544v-11h7v11h-7zM158 501h-19v-4h19v4zM582 216h15v5h-15v-5zM582 285h15v5h-15v-5zM582 591h15
v5h-15v-5zM31 169h-15v-5h15v5zM657 290v-5h15v5h-15zM78 169h-15v-5h15v5zM657 221v-5h15v5h-15zM398 556h8v12h-6v-5h5v-4h-7v-3zM46 239v-7h-8v-3h13v10h-5zM183 478h8v8h-10v-5h2v-3zM137 741v-4h18v4h-18zM492 741v-4h18v4h-18zM492 324v-4h18v4h-18zM717 785v-4h18v4
h-18zM539 664v-6h12v6h-12zM717 413v-4h18v4h-18zM168 591h8v9h-8v-9zM137 690v-4h18v4h-18zM492 413v-4h18v4h-18zM447 767v-9h8v9h-8zM236 850v-6h12v6h-12zM137 732v-4h18v4h-18zM137 405v-4h18v4h-18zM717 741v-4h18v4h-18zM137 785v-4h18v4h-18zM492 785v-4h18v4h-18z
M717 363v-4h18v4h-18zM213 525v-8h9v8h-9zM447 387v-8h8v8h-8zM213 496v-8h9v8h-9zM213 486v-8h9v8h-9zM623 179v-8h11v8h-11zM492 363v-4h18v4h-18zM158 226v-10h7v10h-7zM41 589v-6h10v6h-10zM757 285h14v5h-14v-5zM91 656v-8h10v8h-10zM133 583h10v6h-10v-6zM251 276h10
v7h-10v-7zM91 283v-7h10v7h-10zM614 636h-10v-7h10v7zM190 873v-7h10v7h-10zM402 290v-5h12v5h-12zM133 207h10v7h-10v-7zM158 239v-10h7v10h-7zM281 603h10v7h-10v-7zM251 207h10v7h-10v-7zM158 559v-11h7v6h-1v3h-2v1h2v1h-6zM251 583h10v6h-10v-6zM251 648h10v8h-10v-8z
M535 496h10v7h-10v-7zM376 427v-3h-12v-2h19v5h-7zM360 394h23v3h-23v-3zM360 360h23v3h-23v-3zM405 298v-3h-3v-3h12v6h-9zM405 672v-3h-3v-3h12v6h-9zM360 773h23v3h-23v-3zM46 356v-17h4v17h-4zM493 842v-4h17v4h-17zM236 921v-11h7v11h-2v-3h-3v3h-2zM104 830h34v2h-34
v-2zM561 422h17v4h-17v-4zM561 800h17v4h-17v-4zM56 559v-11h6v11h-6zM464 747h22v3h-22v-3zM175 342v-3h22v3h-22zM464 580h33v2h-33v-2zM175 719v-3h22v3h-22zM109 716h22v3h-22v-3zM416 726v-3h22v3h-22zM464 347h22v3h-22v-3zM416 699v-3h22v3h-22zM416 350v-3h22v3h-22
zM464 723h22v3h-22v-3zM524 236h6v12h-6v-12zM608 792h35v2h-35v-2zM109 360h22v3h-22v-3zM736 303v-11h6v11h-6zM524 193v-11h6v11h-6zM464 205h33v2h-33v-2zM16 669v-11h6v11h-6zM109 339h22v3h-22v-3zM175 363v-3h22v3h-22zM691 170h-11v-6h11v6zM214 879v-5h13v5h-13z
M554 480v-5h13v5h-13zM554 516v-5h13v5h-13zM464 320h16v4h-16v-4zM205 857h8v8h-8v-8zM109 686h16v4h-16v-4zM572 893v-4h16v4h-16zM255 950v-8h8v8h-8zM348 525h-8v-8h8v8zM538 487h7v7h-10v-5h3v-2zM179 950v-8h8v8h-8zM46 732v-16h4v16h-4zM402 741v-4h2v-5h-2v-4h1v-5
h2v18h-3zM176 255h-8v-8h8v8zM572 842v-4h16v4h-16zM158 600v-9h7v9h-7zM164 750h7v9h-7v-9zM706 533h-9v-7h9v7zM530 750v-3h21v3h-21zM270 589v-6h9v6h-9zM213 473v-7h9v7h-9zM519 379h7v8h-7v-8zM634 636h-11v-7h11v7zM62 719v-3h21v3h-21zM279 648v8h-9v-8h9zM519 758h7
v9h-7v-9zM530 350v-3h21v3h-21zM530 726v-3h21v3h-21zM168 554v-6h8v11h-3v-5h-5zM270 214v-7h9v7h-9zM497 636h-9v-7h9v7zM62 342v-3h21v3h-21zM62 316v-3h21v3h-21zM220 916v-6h7v11h-4v-5h-3zM404 473h-6v-10h6v10zM91 330v-6h10v6h-10zM376 805v-2h-12v-2h19v4h-7z
M582 430h20v3h-20v-3zM411 568v-12h5v12h-5zM101 627h-10v-6h10v6zM539 290v-5h12v5h-12zM539 598h6v10h-6v-10zM524 598h6v10h-6v-10zM183 857h6v8h-8v-6h2v-2zM402 363v-3h2v-4h-2v-5h1v-4h2v16h-3zM190 850v-6h10v6h-10zM524 611h6v10h-6v-10zM539 221v-5h12v5h-12z
M604 658h10v6h-10v-6zM524 644h6v11h-6v-11zM524 224h6v10h-6v-10zM16 295v-10h6v10h-6zM143 627h-10v-6h10v6zM724 170h-10v-6h10v6zM538 811v-2h30v2h-30zM736 676v-10h6v10h-6zM81 179h10v6h-10v-6zM91 706v-6h10v6h-10zM614 170h-10v-6h10v6zM691 950h-30v-2h30v2z
M435 177h-15v-4h15v4zM524 551v-10h6v10h-6zM637 942h14v4h-11v1h-3v-5zM654 352v-10h4v5h6v3h-6v2h-4zM183 803v-2h31v2h-31zM718 879v-6h7v8h-8v-2h1zM654 729v-10h4v4h6v3h-6v3h-4zM183 424v-2h31v2h-31zM168 583h8v6h-8v-6zM526 881h-7v-8h7v8zM171 496h-7v-8h7v8z
M171 865h-7v-8h7v8zM168 648h8v8h-8v-8zM168 276h8v7h-8v-7zM368 486h-7v-8h7v8zM168 207h8v7h-8v-7zM348 903h-8v-7h8v7zM220 942h7v8h-7v-8zM183 466h8v7h-8v-7zM520 636h-8v-7h8v7zM171 486h-7v-8h7v8zM181 866h8v7h-8v-7zM205 866h8v7h-8v-7zM757 787v-4h14v4h-14z
M458 811v-2h28v2h-28zM368 865h-7v-8h7v8zM574 465v-2h28v2h-28zM619 893h-14v-4h14v4zM165 255h-7v-8h7v8zM455 636h-8v-7h8v7zM411 193v-11h5v11h-5zM766 834v-11h5v11h-5zM661 596v-5h11v5h-11zM717 750v-3h18v3h-18zM717 726v-3h18v3h-18zM137 776v-3h18v3h-18zM492 792
v-3h18v3h-18zM492 699v-3h18v3h-18zM717 350v-3h18v3h-18zM137 342v-3h18v3h-18zM492 726v-3h18v3h-18zM83 199v-3h18v3h-18zM634 658v6h-11v-6h11zM492 404v-3h18v3h-18zM492 350v-3h18v3h-18zM137 363v-3h18v3h-18zM83 576v-3h18v3h-18zM717 792v-3h18v3h-18zM137 719v-3
h18v3h-18zM717 404v-3h18v3h-18zM137 397v-3h18v3h-18zM492 750v-3h18v3h-18zM736 767v-9h6v9h-6zM223 926h4v11h-7v-3h3v-8zM104 803v-2h26v2h-26zM458 462v-1h52v1h-52zM557 950v-2h26v2h-26zM214 884v-4h13v4h-13zM554 509v-4h13v4h-13zM139 274v-13h4v13h-4zM634 950
h-28v-2h28v2zM104 424v-2h26v2h-26zM718 501v-5h7v7h-8v-2h1zM524 561v-5h6v12h-3v-7h-3zM16 884v-10h5v10h-5zM604 591h10v5h-10v-5zM91 169h-10v-5h10v5zM398 596v-5h8v5h-8zM91 356v-5h10v5h-10zM604 216h10v5h-10v-5zM604 285h10v5h-10v-5zM190 879v-5h10v5h-10zM16 507
v-10h5v10h-5zM622 696h12v5h-12v-5zM535 511h10v5h-10v-5zM707 598h5v10h-5v-10zM526 503h-7v-7h7v7zM171 873h-7v-7h7v7zM725 494h-7v-7h7v7zM158 589v-6h7v6h-7zM526 494h-7v-7h7v7zM158 214v-7h7v7h-7zM236 896h7v7h-7v-7zM164 466h7v7h-7v-7zM205 844h8v6h-8v-6z
M109 313h16v3h-16v-3zM300 343v-10h3v6h6v3h-6v1h-3zM166 185v-6h8v6h-8zM520 177h-8v-6h8v6zM282 934h14v3h-11v2h-3v-5zM310 706v-6h8v6h-8zM360 686h12v4h-12v-4zM310 330v-6h8v6h-8zM302 199v-3h16v3h-16zM464 696h16v3h-16v-3zM447 337v-5h8v5h-8zM350 196h16v3h-16v-3
zM447 664v-6h8v6h-8zM139 316v-3h16v3h-16zM520 170h-8v-6h8v6zM765 179v-8h6v8h-6zM736 387v-8h5v7h1v1h-6zM397 921h-21v-2h21v2zM721 433v-3h14v5h-2v-2h-12zM300 720v-9h3v5h6v3h-6v1h-3zM213 457v-5h9v5h-9zM706 910h-9v-5h9v5zM623 221v-5h11v5h-11zM185 591h5v9h-5
v-9zM65 196h15v3h-15v-3zM229 573h15v3h-15v-3zM488 216h9v5h-9v-5zM350 591h5v9h-5v-9zM488 591h9v5h-9v-5zM706 516h-9v-5h9v5zM706 887h-9v-5h9v5zM229 196h15v3h-15v-3zM623 596v-5h11v5h-11zM65 573h15v3h-15v-3zM464 368h22v2h-22v-2zM139 544v-11h4v11h-4zM361 493
v-5h7v6h-8v-1h1zM402 647v-3h12v3h-12zM530 636h-6v-7h6v7zM141 835v-2h14v2h-14zM156 185v-6h7v6h-7zM657 332h7v5h-7v-5zM665 337v-5h7v5h-7zM164 844h7v6h-7v-6zM165 627h-7v-6h7v6zM554 433v-3h14v3h-14zM725 871h-7v-6h7v6zM302 700h7v6h-7v-6zM526 871h-7v-6h7v6z
M530 370v-2h21v2h-21zM302 324h7v6h-7v-6zM91 741v-4h10v4h-10zM725 516h-8v-5h8v5zM190 884v-4h10v4h-10zM447 713v-5h8v5h-8zM582 809h20v2h-20v-2zM447 290v-5h8v5h-8zM512 221v-5h8v5h-8zM368 879h-8v-5h8v5zM181 503h10v4h-10v-4zM181 874h8v5h-8v-5zM348 879h-8v-5h8
v5zM139 239v-10h4v10h-4zM725 887h-8v-5h8v5zM269 686h10v4h-10v-4zM174 169h-8v-5h8v5zM310 356v-5h8v5h-8zM512 596v-5h8v5h-8zM139 226v-10h4v10h-4zM205 874h8v5h-8v-5zM16 496v-8h5v8h-5zM388 207v-2h18v2h-18zM181 497h10v4h-10v-4zM654 411h10v4h-10v-4zM654 781h10
v4h-10v-4zM535 505h10v4h-10v-4zM91 732v-4h10v4h-10zM91 690v-4h10v4h-10zM214 835v-2h13v2h-13zM661 170h-4v-1h-3v-5h7v6zM229 801h19v2h-19v-2zM229 422h19v2h-19v-2zM608 767v-12h6v5h-5v7h-1zM300 784h9v4h-9v-4zM706 893h-9v-4h9v4zM236 835v-2h12v2h-12zM771 170h-6
v-6h6v6zM717 370v-2h18v2h-18zM306 576v-3h12v3h-12zM530 170h-6v-6h6v6zM492 370v-2h18v2h-18zM527 948h18v2h-18v-2zM185 576v-3h12v3h-12zM530 177h-6v-6h6v6zM185 199v-3h12v3h-12zM524 658h6v6h-6v-6zM277 168h-9v-4h9v4zM360 313h12v3h-12v-3zM183 844h6v6h-6v-6z
M54 185v-6h6v6h-6zM255 380v-11h7v4h-6v7h-1zM213 501v-4h9v4h-9zM706 509h-9v-4h9v4zM361 870v-4h7v5h-8v-1h1zM736 664v-6h6v6h-6zM213 507v-4h9v4h-9zM171 879h-7v-5h7v5zM185 583h5v6h-5v-6zM519 475h7v5h-7v-5zM350 583h5v6h-5v-6zM284 914h7v5h-7v-5zM538 475h7v5h-7
v-5zM164 457v-5h7v5h-7zM519 853h7v5h-7v-5zM16 873v-7h5v7h-5zM255 759v-11h7v4h-6v7h-1zM526 887h-7v-5h7v5zM665 713v-5h7v5h-7zM302 351h7v5h-7v-5zM657 708h7v5h-7v-5zM163 169h-7v-5h7v5zM721 811v-2h14v5h-2v-3h-12zM438 582v-2h17v2h-17zM438 207v-2h17v2h-17z
M47 486h-4v-8h4v8zM348 884h-8v-4h8v4zM368 501h-8v-4h8v4zM181 880h8v4h-8v-4zM348 507h-8v-4h8v4zM725 509h-8v-4h8v4zM447 741v-4h8v4h-8zM205 880h8v4h-8v-4zM348 501h-8v-4h8v4zM47 496h-4v-8h4v8zM447 324v-4h8v4h-8zM368 507h-8v-4h8v4zM725 893h-8v-4h8v4zM639 922
h8v4h-8v-4zM447 363v-4h8v4h-8zM47 865h-4v-8h4v8zM368 884h-8v-4h8v4zM143 255h-4v-8h4v8zM608 387v-10h6v3h-5v7h-1zM406 239h-8v-3h8v3zM251 196h10v3h-10v-3zM673 170h-5v-6h5v6zM360 339h10v3h-10v-3zM582 205h15v2h-15v-2zM420 205h15v2h-15v-2zM657 207v-2h15v2h-15z
M736 290v-5h6v5h-6zM91 719v-3h10v3h-10zM56 226v-10h3v10h-3zM94 185v-6h5v6h-5zM524 216h6v5h-6v-5zM411 234v-10h3v10h-3zM56 239v-10h3v10h-3zM736 814v-5h6v5h-6zM91 316v-3h10v3h-10zM736 435v-5h6v5h-6zM251 573h10v3h-10v-3zM360 716h10v3h-10v-3zM654 401h10v3h-10
v-3zM41 576v-3h10v3h-10zM91 363v-3h10v3h-10zM712 950h-15v-2h15v2zM406 614h-8v-3h8v3zM411 608v-10h3v10h-3zM190 835v-2h10v2h-10zM524 285h6v5h-6v-5zM524 591h6v5h-6v-5zM420 580h15v2h-15v-2zM91 342v-3h10v3h-10zM539 591h6v5h-6v-5zM582 580h15v2h-15v-2zM164 401
h7v4h-7v-4zM519 409h7v4h-7v-4zM665 741v-4h7v4h-7zM526 509h-7v-4h7v4zM665 363v-4h7v4h-7zM164 737h7v4h-7v-4zM519 781h7v4h-7v-4zM519 838h7v4h-7v-4zM282 942h14v2h-14v-2zM141 832v-2h14v2h-14zM657 737h7v4h-7v-4zM637 948h14v2h-14v-2zM171 501h-7v-4h7v4zM657 359
h7v4h-7v-4zM164 781h7v4h-7v-4zM574 462v-1h28v1h-28zM47 873h-4v-7h4v7zM364 466h4v7h-4v-7zM300 404h9v3h-9v-3zM300 773h9v3h-9v-3zM270 199v-3h9v3h-9zM300 394h9v3h-9v-3zM270 576v-3h9v3h-9zM56 600v-9h3v9h-3zM214 832v-2h13v2h-13zM554 465v-2h13v2h-13zM707 591h5
v5h-5v-5zM99 169h-5v-5h5v5zM251 356v-5h5v5h-5zM323 820h25v1h-25v-1zM586 934h2v12h-2v-12zM161 330v-6h4v6h-4zM161 706v-6h4v6h-4zM736 363v-4h6v4h-6zM736 785v-4h6v4h-6zM539 207v-2h12v2h-12zM205 833h8v2h-8v-2zM46 330v-6h4v6h-4zM447 350v-3h8v3h-8zM364 844h4v6
h-4v-6zM447 750v-3h8v3h-8zM736 741v-4h6v4h-6zM539 582v-2h12v2h-12zM236 832v-2h12v2h-12zM310 719v-3h8v3h-8zM493 950v-2h12v2h-12zM447 726v-3h8v3h-8zM168 196h8v3h-8v-3zM400 494v-6h4v6h-4zM279 865h-3v-8h3v8zM310 363v-3h8v3h-8zM736 413v-4h6v4h-6zM279 486h-3
v-8h3v8zM516 337v-5h4v5h-4zM348 873h-8v-3h8v3zM46 706v-6h4v6h-4zM348 496h-8v-3h8v3zM447 699v-3h8v3h-8zM310 342v-3h8v3h-8zM661 582v-2h11v2h-11zM236 937v-11h2v11h-2zM320 835v-1h11v1h-11zM241 926h2v11h-2v-11zM478 948h11v2h-11v-2zM518 950h-11v-2h11v2z
M519 401h7v3h-7v-3zM56 214v-7h3v7h-3zM665 726v-3h7v3h-7zM519 789h7v3h-7v-3zM56 589v-6h3v6h-3zM164 394h7v3h-7v-3zM665 750v-3h7v3h-7zM158 199v-3h7v3h-7zM634 494h-5v-7h5v7zM164 773h7v3h-7v-3zM657 747h7v3h-7v-3zM164 360h7v3h-7v-3zM519 430h7v3h-7v-3zM519 747
h7v3h-7v-3zM164 833h7v2h-7v-2zM665 350v-3h7v3h-7zM302 360h7v3h-7v-3zM538 430h7v3h-7v-3zM251 732v-4h5v4h-5zM721 853h4v5h-4v-5zM604 741v-4h5v4h-5zM190 832v-2h10v2h-10zM721 475h4v5h-4v-5zM654 792h10v2h-10v-2zM604 363v-4h5v4h-5zM402 324v-4h3v4h-3zM516 713v-5
h4v5h-4zM47 879h-4v-5h4v5zM604 580h10v2h-10v-2zM586 919h2v10h-2v-10zM16 865v-4h5v4h-5zM604 205h10v2h-10v-2zM398 582v-2h8v2h-8zM331 603h18v1h-18v-1zM388 582v-2h9v2h-9zM158 573h6v3h-6v-3zM56 576v-3h6v3h-6zM634 871h-5v-6h5v6zM736 350v-3h6v3h-6zM623 582v-2
h11v2h-11zM688 236h18v1h-18v-1zM623 207v-2h11v2h-11zM736 750v-3h6v3h-6zM736 792v-3h6v3h-6zM706 881h-9v-2h9v2zM736 404v-3h6v3h-6zM688 611h18v1h-18v-1zM706 503h-9v-2h9v2zM56 199v-3h6v3h-6zM183 833h6v2h-6v-2zM736 726v-3h6v3h-6zM46 690v-4h4v4h-4zM236 950v-8
h2v8h-2zM512 207v-2h8v2h-8zM400 501v-4h4v4h-4zM241 942h2v8h-2v-8zM647 547h-8v-2h8v2zM47 884h-4v-4h4v4zM47 507h-4v-4h4v4zM516 324v-4h4v4h-4zM403 832v1h14v-1h-14zM47 501h-4v-4h4v4zM161 690v-4h4v4h-4zM447 370v-2h8v2h-8zM205 830h8v2h-8v-2zM411 596v-5h3v5h-3z
M634 516h-5v-5h5v5zM350 573h5v3h-5v-3zM168 351h3v5h-3v-5zM168 339h5v3h-5v-3zM402 699v-3h3v3h-3zM411 221v-5h3v5h-3zM519 463h7v2h-7v-2zM519 368h7v2h-7v-2zM538 463h7v2h-7v-2zM414 248h-12v-1h12v1zM519 809h7v2h-7v-2zM164 422h7v2h-7v-2zM665 370v-2h7v2h-7z
M164 801h7v2h-7v-2zM291 539h-7v-2h7v2zM164 830h7v2h-7v-2zM657 368h7v2h-7v-2zM168 716h5v2h-2v1h-3v-3zM255 824v-13h1v13h-1zM608 452v-13h1v13h-1zM554 462v-1h13v1h-13zM364 833h4v2h-4v-2zM255 444v-12h1v12h-1zM524 205h6v2h-6v-2zM637 657h3v4h-3v-4zM183 830h6v2
h-6v-2zM161 342v-3h4v3h-4zM736 370v-2h6v2h-6zM398 480v-2h6v2h-6zM516 726v-3h4v3h-4zM279 884h-3v-4h3v4zM161 719v-3h4v3h-4zM168 728h3v4h-3v-4zM512 580h6v2h-6v-2zM634 893h-5v-4h5v4zM279 507h-3v-4h3v4zM46 316v-3h4v3h-4zM161 316v-3h4v3h-4zM516 699v-3h4v3h-4z
M516 350v-3h4v3h-4zM677 842v-1h11v1h-11zM320 457v-1h11v1h-11zM608 830v-11h1v11h-1zM677 465v-1h11v1h-11zM707 580h5v2h-5v-2zM411 207v-2h5v2h-5zM411 582v-2h5v2h-5zM219 226h-5v-2h5v2zM173 576v-3h3v3h-3zM414 239h-3v-3h3v3zM282 648h3v4h-3v-4zM524 723h3v3h-3v-3
zM414 614h-3v-3h3v3zM173 942h1v8h-1v-8zM524 737h2v4h-2v-4zM404 507h-4v-2h4v2zM721 463h4v2h-4v-2zM524 347h3v2h-1v1h-2v-3zM524 359h2v4h-2v-4zM538 461h7v1h-7v-1zM519 461h7v1h-7v-1zM527 582v-2h3v2h-3zM403 805v6h1v-6h-1zM219 600h-5v-1h5v1zM608 480v-5h1v5h-1z
M255 457v-5h1v5h-1zM608 858v-5h1v5h-1zM164 356v-5h1v5h-1zM572 608h-4v-1h4v1zM608 842v-4h1v4h-1zM586 948h2v2h-2v-2zM164 732v-4h1v4h-1zM519 741v-4h1v4h-1zM572 234h-4v-1h4v1zM519 363v-4h1v4h-1zM255 741v-4h1v4h-1zM302 833h1v2h-1v-2zM608 433v-3h1v3h-1z
M255 835v-2h1v2h-1zM255 363v-3h1v3h-1zM608 750v-3h1v3h-1zM255 803v-2h1v2h-1zM255 832v-2h1v2h-1zM255 424v-2h1v2h-1zM657 463h1v2h-1v-2zM608 465v-2h1v2h-1zM608 370v-2h1v2h-1zM608 811v-2h1v2h-1zM608 462v-1h1v1h-1z" />
    <glyph glyph-name="heart" unicode="&#x2665;" horiz-adv-x="1217" 
d="M606 133q-155 189 -236 290.5t-91 115.5q-31 48 -46.5 87t-15.5 81q0 73 53 124q53 52 129 52q78 0 138 -54q43 -37 69 -116q26 77 68 116q57 54 137 54q76 0 129 -51q53 -50 53 -119q0 -60 -32 -129q-32 -66 -355 -451z" />
    <glyph glyph-name="vavshindot" unicode="&#xe801;" horiz-adv-x="602" 
d="M177 1061h258v-1061h-258v1061zM-92 1248q0 37 25 62t62 25t62.5 -25t25.5 -62t-25.5 -62.5t-62.5 -25.5t-62 25.5t-25 62.5z" />
    <glyph glyph-name="finalkafsheva" unicode="&#xe802;" horiz-adv-x="861" 
d="M746 -260h-260v1126h-426v195h686v-1321zM253 583q17 0 32.5 -6.5t27 -18t18 -26.5t6.5 -33q0 -37 -24.5 -60.5t-59.5 -23.5q-37 0 -61.5 23.5t-24.5 60.5q0 15 5.5 30t16 27t27 19.5t37.5 7.5zM253 321q17 0 32.5 -6.5t27 -18t18 -26.5t6.5 -33q0 -37 -24.5 -60.5
t-59.5 -23.5q-37 0 -61.5 23.5t-24.5 60.5t24.5 60.5t61.5 23.5z" />
    <glyph glyph-name="finalkafqamats" unicode="&#xe803;" horiz-adv-x="877" 
d="M749 1061v-1321h-260v1126h-426v195h686zM193 250v153h-107v75h296v-75h-105v-153h-84z" />
    <glyph glyph-name="lamedholam" unicode="&#xe804;" horiz-adv-x="943" 
d="M900 1061l-395 -1061h-258l329 866h-504v412h240v-217h588zM-106 1320q14 0 29 -6t27 -17t20 -26.5t8 -34.5q0 -18 -6.5 -33t-18 -26.5t-27 -18t-32.5 -6.5t-32.5 6.5t-27.5 18t-19 26.5t-7 33q0 34 24.5 59t61.5 25z" />
    <glyph glyph-name="lamedholamdagesh" unicode="&#xe805;" horiz-adv-x="924" 
d="M892 1061l-395 -1061h-258l329 866h-504v412h240v-217h588zM-130 1320q14 0 29 -6t27 -17t20 -26.5t8 -34.5q0 -18 -6.5 -33t-18 -26.5t-27 -18t-32.5 -6.5t-32.5 6.5t-27.5 18t-19 26.5t-7 33q0 34 24.5 59t61.5 25zM261 678q15 0 30 -5.5t27 -16.5t19.5 -26.5
t7.5 -35.5q0 -35 -24.5 -59.5t-59.5 -24.5t-59.5 23.5t-24.5 60.5q0 15 5.5 30t16 27t26 19.5t36.5 7.5z" />
    <glyph glyph-name="alefalefalef" unicode="&#xf8ff;" horiz-adv-x="2978" 
d="M-2 965h958v-959h-958v959zM516 504q-2 14 -19.5 31.5t-33.5 37.5q-5 6 -18.5 20.5t-31 34t-38.5 43t-41 46.5q-25 26 -52 56.5t-57 64.5h-47v-56l154 -153q-45 -17 -68.5 -44.5t-42.5 -60.5q-22 -44 -4 -99q10 -27 22 -54t27 -54q33 -54 10 -102h-120q-6 -6 -9.5 -25.5
t9.5 -42.5h166q18 42 26.5 70.5t6 56t-16.5 59.5t-41 81q-10 18 -11.5 43t7 49.5t29 44.5t53.5 29l385 -455h45v51l-47.5 57t-42.5 52q-17 20 -34 39.5t-33 37.5q-16 19 -26 31t-14 17q-28 34 -28 59t14 47q12 24 32.5 57t45 63.5t50 51.5t46.5 21h35v39q0 12 -5 21t-30 9
h-125l-27 60h-45l-8 -117q11 -5 23 -6q10 -2 26.5 -3t38.5 -1q-66 -81 -98.5 -130t-32.5 -77h-4zM1008 965h958v-959h-958v959zM1526 504q-4 14 -20.5 31.5t-32.5 37.5q-6 6 -19 20.5t-30.5 34t-38 42.5t-42.5 47q-26 26 -53.5 56.5t-56.5 64.5h-49v-56l155 -153
q-45 -17 -68.5 -44.5t-39.5 -60.5q-12 -23 -13 -48t6 -51t20.5 -53.5t31.5 -54.5q16 -28 18 -53.5t-8 -48.5h-125q-4 -6 -7 -25.5t7 -42.5h170q19 41 27.5 70t5.5 56.5t-17.5 60t-39.5 80.5q-12 19 -13.5 44t7.5 49t29 44t52 29l387 -455h46v51q-26 30 -49.5 57t-43.5 52
q-17 20 -33.5 39.5t-33.5 37.5q-33 37 -39 48q-15 17 -22 31.5t-8 27.5t3 24.5t10 22.5q12 24 33 57t45.5 63.5t50 51.5t48.5 21h32v39q0 12 -4 21t-28 9h-125l-27 60h-43l-10 -117q11 -5 22 -6q20 -4 66 -4q-66 -81 -97.5 -130t-31.5 -77h-4zM2021 965h963v-959h-963v959z
M2540 504q-5 14 -20 31.5t-34 37.5l-17.5 21t-30 34.5t-38 42.5t-41.5 46q-25 26 -52 56.5t-56 64.5h-51v-56l155 -153q-45 -17 -69.5 -44.5t-40.5 -60.5q-11 -23 -11 -48t6.5 -51t19.5 -53.5t30 -54.5q18 -28 19 -53.5t-9 -48.5h-123q-4 -6 -7 -25.5t7 -42.5h170
q18 40 26 69t5 57t-17.5 60.5t-40.5 80.5q-10 18 -11.5 43t7 49.5t29 44.5t53.5 29l385 -455h45l2 51q-26 30 -49 57t-43 52q-34 40 -68 77q-33 39 -38 48q-31 34 -30 59t15 47q10 24 30.5 57t45.5 63.5t51 51.5t47 21h35v39q0 12 -6 21t-29 9h-125l-26 60h-45l-8 -117
q11 -5 22 -6q17 -4 66 -4q-66 -81 -99.5 -130t-33.5 -77h-2z" />
    <glyph glyph-name="uniFB1D" unicode="&#xfb1d;" horiz-adv-x="545" 
d="M142 1061h262v-596h-262v596zM276 361q15 0 30 -5.5t27 -16.5t19.5 -26.5t7.5 -35.5q0 -35 -24.5 -59.5t-59.5 -24.5t-59.5 23.5t-24.5 60.5q0 15 5.5 30t16 27t26 19.5t36.5 7.5z" />
    <glyph glyph-name="shinshindot" unicode="&#xfb2a;" horiz-adv-x="1409" 
d="M1298 1061v-512q0 -275 -133.5 -412t-383.5 -137h-589l-99 1061h236l90 -867h268q81 0 150 9.5t119 42t78 93.5t28 163v559h236zM829 416h-230v645h230v-645zM1182 1323q14 0 29 -6t27 -17t20 -26.5t8 -34.5q0 -18 -6.5 -33t-18 -26.5t-27 -18t-32.5 -6.5t-32.5 6.5
t-27.5 18t-19 26.5t-7 33q0 34 24.5 59t61.5 25z" />
    <glyph glyph-name="shinsindot" unicode="&#xfb2b;" horiz-adv-x="1395" 
d="M1286 1061v-512q0 -275 -133.5 -412t-383.5 -137h-589l-99 1061h236l90 -877h268q81 0 150 11.5t119 45.5t78 96.5t28 164.5v559h236zM817 416h-230v645h230v-645zM169 1324q14 0 29 -6t27 -17t20 -26.5t8 -34.5q0 -18 -6.5 -33t-18 -26.5t-27 -18t-32.5 -6.5t-32.5 6.5
t-27.5 18t-19 26.5t-7 33q0 34 24.5 59t61.5 25z" />
    <glyph glyph-name="shindageshshindot" unicode="&#xfb2c;" horiz-adv-x="1436" 
d="M721 450q14 0 28.5 -6t26.5 -17t20 -27t8 -35q0 -36 -24.5 -61t-58.5 -25q-17 0 -32.5 6.5t-27 18.5t-18.5 27.5t-7 33.5q0 35 24 60t61 25zM1304 1061v-512q0 -275 -133.5 -412t-383.5 -137h-589l-99 1061h236l90 -877h268q81 0 150 11.5t119 45.5t78 96.5t28 164.5v559
h236zM835 516h-230v545h230v-545zM1173 1350q14 0 29 -6t27 -17t20 -26.5t8 -34.5q0 -18 -6.5 -33t-18 -26.5t-27 -18t-32.5 -6.5t-32.5 6.5t-27.5 18t-19 26.5t-7 33q0 34 24.5 59t61.5 25z" />
    <glyph glyph-name="shindageshsindot" unicode="&#xfb2d;" horiz-adv-x="1439" 
d="M214 1337q14 0 29 -6t27 -17t20 -26.5t8 -34.5q0 -18 -6.5 -33t-18 -26.5t-27 -18t-32.5 -6.5t-32.5 6.5t-27.5 18t-19 26.5t-7 33q0 34 24.5 59t61.5 25zM732 450q14 0 28.5 -6t26.5 -17t20 -27t8 -35q0 -36 -24.5 -61t-58.5 -25q-17 0 -32.5 6.5t-27 18.5t-18.5 27.5
t-7 33.5q0 35 24 60t61 25zM1315 1061v-512q0 -275 -133.5 -412t-383.5 -137h-589l-99 1061h236l90 -877h268q81 0 150 11.5t119 45.5t78 96.5t28 164.5v559h236zM846 516h-230v545h230v-545z" />
    <glyph glyph-name="betdagesh" unicode="&#xfb31;" horiz-adv-x="1008" 
d="M951 195v-195h-856l2 195h481v671h-477v195h729v-866h121zM335 642q15 0 30 -5.5t27 -16.5t19.5 -26.5t7.5 -35.5q0 -35 -24.5 -59.5t-59.5 -24.5t-59.5 23.5t-24.5 60.5q0 15 5.5 30t16 27t26 19.5t36.5 7.5z" />
    <glyph glyph-name="gimeldagesh" unicode="&#xfb32;" horiz-adv-x="767" 
d="M427 279q-11 -73 -39 -126t-69.5 -87t-96 -50t-117.5 -16h-59v225h108q71 0 119 26t76 72.5t36.5 110t0.5 139.5q-5 39 -11.5 90t-12.5 96q-7 53 -15 107h-209v195h418l143 -1061h-222l-42 279h-8zM175 662q15 0 30 -5.5t27 -16.5t19.5 -26.5t7.5 -35.5
q0 -35 -24.5 -59.5t-59.5 -24.5t-59.5 23.5t-24.5 60.5q0 15 5.5 30t16 27t26 19.5t36.5 7.5z" />
    <glyph glyph-name="daletdagesh" unicode="&#xfb33;" horiz-adv-x="1013" 
d="M556 0v866h-494v195h869v-195h-117v-866h-258zM304 614q15 0 30 -5.5t27 -16.5t19.5 -26.5t7.5 -35.5q0 -35 -24.5 -59.5t-59.5 -24.5t-59.5 23.5t-24.5 60.5q0 15 5.5 30t16 27t26 19.5t36.5 7.5z" />
    <glyph glyph-name="hedagesh" unicode="&#xfb34;" horiz-adv-x="1159" 
d="M146 572h252v-572h-252v572zM1016 1061v-1061h-254v866h-624v195h878zM590 695q15 0 30 -5.5t27 -16.5t19.5 -26.5t7.5 -35.5q0 -35 -24.5 -59.5t-59.5 -24.5t-59.5 23.5t-24.5 60.5q0 15 5.5 30t16 27t26 19.5t36.5 7.5z" />
    <glyph glyph-name="vavdagesh" unicode="&#xfb35;" horiz-adv-x="641" 
d="M206 1061h258v-1061h-258v1061zM36 668q14 0 29 -6t27 -17t20 -26.5t8 -34.5q0 -18 -6.5 -33t-18 -26.5t-27 -18t-32.5 -6.5t-32.5 6.5t-27.5 18t-19 26.5t-7 33q0 34 24.5 59t61.5 25z" />
    <glyph glyph-name="zayindagesh" unicode="&#xfb36;" horiz-adv-x="781" 
d="M341 0q-22 102 -43 199q-9 41 -18.5 85t-18.5 86.5t-17.5 81t-14.5 68.5q-13 59 -15 113.5t9.5 99.5t39 79.5t72.5 53.5h-275v195h654v-195h-183q-39 -26 -54.5 -64t-16.5 -81.5t7.5 -88t17.5 -83.5q9 -40 18.5 -85t20 -90.5l21 -91t19.5 -87.5q22 -98 43 -195h-266z
M83 558q14 0 29 -6t27 -17t20 -26.5t8 -34.5q0 -18 -6.5 -33t-18 -26.5t-27 -18t-32.5 -6.5t-32.5 6.5t-27.5 18t-19 26.5t-7 33q0 34 24.5 59t61.5 25z" />
    <glyph glyph-name="tetdagesh" unicode="&#xfb38;" horiz-adv-x="1190" 
d="M1080 1061v-512q0 -155 -37 -260t-103.5 -169t-159.5 -92t-204 -28h-344l-131 1061h252l108 -875h45q51 0 96 4t82 18.5t66 42.5t49 76.5t30.5 120t10.5 173.5v245h-199v195h439zM630 668q15 0 30 -5.5t27 -16.5t19.5 -26.5t7.5 -35.5q0 -35 -24.5 -59.5t-59.5 -24.5
t-59.5 23.5t-24.5 60.5q0 15 5.5 30t16 27t26 19.5t36.5 7.5z" />
    <glyph glyph-name="yoddagesh" unicode="&#xfb39;" horiz-adv-x="663" 
d="M248 1061h262v-596h-262v596zM65 769q14 0 29 -6t27 -17t20 -26.5t8 -34.5q0 -18 -6.5 -33t-18 -26.5t-27 -18t-32.5 -6.5t-32.5 6.5t-27.5 18t-19 26.5t-7 33q0 34 24.5 59t61.5 25z" />
    <glyph glyph-name="finalkafdagesh" unicode="&#xfb3a;" horiz-adv-x="886" 
d="M738 -260h-260v1126h-426v195h686v-1321zM263 605q15 0 30 -5.5t27 -16.5t19.5 -26.5t7.5 -35.5q0 -35 -24.5 -59.5t-59.5 -24.5t-59.5 23.5t-24.5 60.5q0 15 5.5 30t16 27t26 19.5t36.5 7.5z" />
    <glyph glyph-name="kafdagesh" unicode="&#xfb3b;" horiz-adv-x="956" 
d="M425 1061q217 0 318.5 -104.5t101.5 -321.5v-211q0 -215 -105.5 -319.5t-314.5 -104.5h-336v195h295q53 0 92 13.5t64.5 45.5t38 85t12.5 132v119q0 78 -12 131t-37.5 85.5t-64.5 46t-93 13.5h-299v195h340zM288 637q15 0 30 -5.5t27 -16.5t19.5 -26.5t7.5 -35.5
q0 -35 -24.5 -59.5t-59.5 -24.5t-59.5 23.5t-24.5 60.5q0 15 5.5 30t16 27t26 19.5t36.5 7.5z" />
    <glyph glyph-name="lameddagesh" unicode="&#xfb3c;" horiz-adv-x="940" 
d="M896 1061l-395 -1061h-258l329 866h-504v412h240v-217h588zM244 683q15 0 30 -5.5t27 -16.5t19.5 -26.5t7.5 -35.5q0 -35 -24.5 -59.5t-59.5 -24.5t-59.5 23.5t-24.5 60.5q0 15 5.5 30t16 27t26 19.5t36.5 7.5z" />
    <glyph glyph-name="memdagesh" unicode="&#xfb3e;" horiz-adv-x="1155" 
d="M574 195h213v393q0 64 -10 117.5t-35 92t-69 60t-111 21.5h-68l-194 -879h-248l213 866h-172v195h514q120 0 201 -32t130.5 -96.5t70.5 -161t20 -226.5v-545h-455v195zM585 558q15 0 30 -5.5t27 -16.5t19.5 -26.5t7.5 -35.5q0 -35 -24.5 -59.5t-59.5 -24.5t-59.5 23.5
t-24.5 60.5q0 15 5.5 30t16 27t26 19.5t36.5 7.5z" />
    <glyph glyph-name="nundagesh" unicode="&#xfb40;" horiz-adv-x="702" 
d="M79 195h159q34 0 53 5.5t29 20.5t12.5 43t2.5 73v529h-150v195h398v-786q0 -142 -65 -208.5t-195 -66.5h-244v195zM128 647q15 0 30 -5.5t27 -16.5t19.5 -26.5t7.5 -35.5q0 -35 -24.5 -59.5t-59.5 -24.5t-59.5 23.5t-24.5 60.5q0 15 5.5 30t16 27t26 19.5t36.5 7.5z" />
    <glyph glyph-name="samekhdagesh" unicode="&#xfb41;" horiz-adv-x="1155" 
d="M604 651q14 0 29 -6t27 -17t20 -26.5t8 -34.5q0 -18 -6.5 -33t-18 -26.5t-27 -18t-32.5 -6.5t-32.5 6.5t-27.5 18t-19 26.5t-7 33q0 34 24.5 59t61.5 25zM1041 1061v-512q0 -155 -38.5 -260t-107 -169t-163 -92t-205.5 -28h-313l-121 1061h948zM801 867h-448l86 -673h45
q91 0 152 13.5t98 54t52 114.5t15 195v296z" />
    <glyph glyph-name="pedagesh" unicode="&#xfb44;" horiz-adv-x="1132" 
d="M594 1061q215 0 317.5 -104.5t102.5 -321.5v-211q0 -215 -106 -319.5t-314 -104.5h-442v195h401q52 0 92 12.5t66 43t39.5 82.5t13.5 130v143q0 79 -13 129.5t-39.5 80t-66 40.5t-92.5 11h-174v-386h-229v580h444zM565 651q14 0 29 -6t27 -17t20 -26.5t8 -34.5
q0 -18 -6.5 -33t-18 -26.5t-27 -18t-32.5 -6.5t-32.5 6.5t-27.5 18t-19 26.5t-7 33q0 34 24.5 59t61.5 25z" />
    <glyph glyph-name="tsadidagesh" unicode="&#xfb46;" horiz-adv-x="1128" 
d="M998 758q0 -77 -15 -138t-49 -105t-88.5 -69.5t-132.5 -31.5l275 -414h-875v195h489l-548 866h268l297 -488q48 1 75.5 14.5t40.5 37t16 55.5t3 70v311h244v-303zM236 500q15 0 30 -5.5t27 -16.5t19.5 -26.5t7.5 -35.5q0 -35 -24.5 -59.5t-59.5 -24.5t-59.5 23.5
t-24.5 60.5q0 15 5.5 30t16 27t26 19.5t36.5 7.5z" />
    <glyph glyph-name="qofdagesh" unicode="&#xfb47;" horiz-adv-x="1251" 
d="M1117 1061v-512q0 -155 -25.5 -260t-79.5 -169t-138.5 -92t-202.5 -28h-70v194h33q69 0 113.5 8.5t71 41t36.5 97t10 175.5v350h-700v195h952zM181 658h252v-918h-252v918zM621 703q15 0 30 -5.5t27 -16.5t19.5 -26.5t7.5 -35.5q0 -35 -24.5 -59.5t-59.5 -24.5
t-59.5 23.5t-24.5 60.5q0 15 5.5 30t16 27t26 19.5t36.5 7.5z" />
    <glyph glyph-name="shindagesh" unicode="&#xfb49;" horiz-adv-x="1395" 
d="M702 450q14 0 28.5 -6t26.5 -17t20 -27t8 -35q0 -36 -24.5 -61t-58.5 -25q-17 0 -32.5 6.5t-27 18.5t-18.5 27.5t-7 33.5q0 35 24 60t61 25zM1285 1061v-512q0 -275 -133.5 -412t-383.5 -137h-589l-99 1061h236l90 -877h268q81 0 150 11.5t119 45.5t78 96.5t28 164.5v559
h236zM816 516h-230v545h230v-545z" />
    <glyph glyph-name="tavdages" unicode="&#xfb4a;" horiz-adv-x="1260" 
d="M768 1061q108 0 176.5 -34t107.5 -94.5t53.5 -145t14.5 -185.5v-602h-256v590q0 59 -8 109.5t-29.5 87.5t-59.5 58t-98 21h-164v-866h-444v195h215v671h-129v195h621zM685 609q15 0 30 -5.5t27 -16.5t19.5 -26.5t7.5 -35.5q0 -35 -24.5 -59.5t-59.5 -24.5t-59.5 23.5
t-24.5 60.5q0 15 5.5 30t16 27t26 19.5t36.5 7.5z" />
    <glyph glyph-name="vavholam" unicode="&#xfb4b;" horiz-adv-x="622" 
d="M193 1061h258v-1061h-258v1061zM228 1248q0 37 25 62t62 25t62.5 -25t25.5 -62t-25.5 -62.5t-62.5 -25.5t-62 25.5t-25 62.5z" />
    <glyph glyph-name="fffc" unicode="&#xfffc;" horiz-adv-x="1299" 
d="M355 428l617 664l-158 184h422v-465l-162 195l-631 -670zM58 969h604l-125 -129h-348v-711h664v418l135 135v-683h-930v970z" />
    </font>
</defs>
</svg>
